<?xml version="1.0" encoding="UTF-8"?>
<svg id="Layer_2" data-name="Layer 2" xmlns="http://www.w3.org/2000/svg" viewBox="0 0 14.11 24.24">
  <defs>
    <style>
      .cls-1 {
        fill: #fff;
      }

      .cls-2 {
        fill: #999;
      }
    </style>
  </defs>
  <g id="Animated_Vehicles" data-name="Animated Vehicles">
    <g>
      <g>
        <path class="cls-2" d="m2.89,23.24c.62.65,1.49,1,2.38,1h2.92c.9,0,2.41-.35,3.03-1,.61-.64,1.19-1.65,1.19-3.18V5.53c0-2.14-.54-3.85-1-4.69-.46-.84-4.35-.84-4.35-.84,0,0-3.89,0-4.35.84-.46.84-1,2.55-1,4.69v14.53c0,1.52.57,2.53,1.19,3.18Z"/>
        <g>
          <path class="cls-2" d="m12.53,15.48c.07.13.15.26.28.33.04.02.08.04.12.04.07.01.14-.02.21-.04.17-.07.32-.16.47-.27.12-.1.24-.21.33-.34.08-.11.14-.24.16-.37.01-.06.02-.12.01-.18,0-.01-.03-.18-.04-.17l-1.32.5-.68.26.07.19c.34-.1.34-.04.39.05Z"/>
          <path class="cls-2" d="m1.58,15.48c-.07.13-.15.26-.28.33-.04.02-.08.04-.12.04-.07.01-.14-.02-.21-.04-.17-.07-.32-.16-.47-.27-.12-.1-.24-.21-.33-.34-.08-.11-.14-.24-.16-.37-.01-.06-.02-.12-.01-.18,0-.01.03-.18.04-.17l1.32.5.68.26-.07.19c-.34-.1-.34-.04-.39.05Z"/>
        </g>
      </g>
      <path class="cls-1" d="m7.05,13.44c-1.44,0-2.81-.05-4.08-.14l-.65,3.95c0,.49,2.12.89,4.73.89s4.73-.4,4.73-.89l-.65-3.95c-1.27.09-2.64.14-4.08.14Z"/>
      <path class="cls-1" d="m2.98,1.94c1.11-.01,2.81-.16,4.07-.16s2.96.15,4.07.16l.06-.73c0-.07-.95-.85-4.13-.78-3.18-.07-4.13.71-4.13.78l.06.73Z"/>
      <polygon class="cls-1" points="11.32 1.45 11.33 1.46 11.33 1.45 11.32 1.45"/>
      <path class="cls-1" d="m11.46,14.1s0,.05.01.07c.01.07.02.13.03.2.02.1.03.19.05.29.02.12.04.23.06.35.02.13.04.25.07.38.02.13.04.25.07.38.02.12.04.23.06.35.02.1.03.19.05.29.01.08.03.17.04.25,0,.02,0,.04.02.06.01.03.04.04.07.04.04,0,.08-.04.08-.08V4.93s-.1-1.94-.5-3.03c0,0,0-.01,0-.02h0c-.08-.19-.16-.35-.23-.43,0,0,0,0,0,0-.03.33-.05.65-.05.98v9.62c0,.68.06,1.36.18,2.03Z"/>
      <path class="cls-1" d="m2.65,14.1s0,.05-.01.07c-.01.07-.02.13-.03.2-.02.1-.03.19-.05.29-.02.12-.04.23-.06.35-.02.13-.04.25-.07.38-.02.13-.04.25-.07.38-.02.12-.04.23-.06.35-.02.1-.03.19-.05.29-.01.08-.03.17-.04.25,0,.02,0,.04-.02.06-.01.03-.04.04-.07.04-.04,0-.08-.04-.08-.08V4.93s.1-1.94.5-3.03c0,0,0-.01,0-.02h0c.08-.19.16-.35.23-.43,0,0,0,0,0,0,.03.33.05.65.05.98v9.62c0,.68-.06,1.36-.18,2.03Z"/>
      <path class="cls-1" d="m10.06,23.53c.09.1.51-.12.93-.49.43-.38.7-.76.6-.87-.09-.1-.51.12-.93.49-.43.38-.7.76-.6.87Z"/>
      <path class="cls-1" d="m4.05,23.53c-.09.1-.51-.12-.93-.49-.43-.38-.7-.76-.6-.87.09-.1.51.12.93.49.43.38.7.76.6.87Z"/>
    </g>
  </g>
</svg>