<?xml version="1.0" encoding="UTF-8"?>
<svg id="Layer_2" data-name="Layer 2" xmlns="http://www.w3.org/2000/svg" viewBox="0 0 12.31 20.8">
  <defs>
    <style>
      .cls-1 {
        fill: #fff;
      }

      .cls-2 {
        fill: #999;
      }
    </style>
  </defs>
  <g id="Animated_Vehicles" data-name="Animated Vehicles">
    <g>
      <g>
        <path class="cls-2" d="m2.15,19.84c.59.62,2.05.96,2.91.96h2.19c.86,0,2.32-.34,2.91-.96.59-.62.52-1.59.52-3.05V4.69c0-2.06-.52-3.08-.96-3.88-.44-.81-3.56-.81-3.56-.81,0,0-3.12,0-3.56.81s-.96,1.82-.96,3.88v12.09c0,1.47-.07,2.44.52,3.05Z"/>
        <g>
          <path class="cls-2" d="m10.79,15.5c.06.12.15.25.27.32.03.02.07.04.11.04.07.01.14-.01.2-.04.16-.07.31-.15.45-.26.12-.09.23-.2.31-.32.07-.11.13-.23.16-.35.01-.06.02-.12.01-.17,0-.01-.03-.17-.04-.17l-1.27.48-.66.25.07.18c.32-.1.33-.04.37.05Z"/>
          <path class="cls-2" d="m1.52,15.5c-.06.12-.15.25-.27.32-.03.02-.07.04-.11.04-.07.01-.14-.01-.2-.04-.16-.07-.31-.15-.45-.26-.12-.09-.23-.2-.32-.32-.07-.11-.13-.23-.16-.35-.01-.06-.02-.12-.01-.17,0-.01.03-.17.04-.17l1.27.48.66.25-.07.18c-.32-.1-.33-.04-.37.05Z"/>
        </g>
      </g>
      <path class="cls-1" d="m6.16,11.99c-1.13,0-2.22-.04-3.22-.11l-.51,3.11c0,.39,1.67.7,3.73.7s3.73-.31,3.73-.7l-.51-3.11c-1,.07-2.08.11-3.22.11Z"/>
      <path class="cls-1" d="m2.62,5.69c1.04-.02,2.36-.04,3.54-.04s2.5.01,3.54.04l.32-1.09c0-.14-1.73-.25-3.86-.25s-3.86.11-3.86.25l.32,1.09Z"/>
      <path class="cls-1" d="m2.63,12.23s0,.05-.01.07c-.01.06-.02.13-.03.19-.02.09-.03.18-.05.28-.02.11-.04.22-.06.34-.02.12-.04.24-.06.37-.02.12-.04.24-.06.37-.02.11-.04.22-.06.34-.02.09-.03.18-.05.28-.01.08-.03.16-.04.24,0,.02,0,.04-.02.06-.01.02-.04.04-.07.04-.04,0-.08-.04-.08-.08V4.7c.5,1.3.76,3.06.76,4.46v1.12c0,.65-.06,1.31-.17,1.95Z"/>
      <path class="cls-1" d="m9.68,12.23s0,.05.01.07c.01.06.02.13.03.19.02.09.03.18.05.28.02.11.04.22.06.34.02.12.04.24.06.37.02.12.04.24.06.37.02.11.04.22.06.34.02.09.03.18.05.28.01.08.03.16.04.24,0,.02,0,.04.02.06.01.02.04.04.07.04.04,0,.08-.04.08-.08V4.7c-.5,1.3-.76,3.06-.76,4.46v1.12c0,.65.06,1.31.17,1.95Z"/>
      <g>
        <path class="cls-1" d="m7.48,20.41l.94-4.52c-.05,0-.11.01-.16.02l-.77,4.5Z"/>
        <path class="cls-1" d="m4.83,20.41l-.77-4.5c-.06,0-.11-.01-.16-.02l.94,4.52Z"/>
      </g>
      <path class="cls-1" d="m8.19,20.41s2.02-.18,2.16-1.74c.14-1.56-2.16,1.74-2.16,1.74Z"/>
      <path class="cls-1" d="m4.12,20.41s-2.02-.18-2.16-1.74c-.14-1.56,2.16,1.74,2.16,1.74Z"/>
      <path class="cls-1" d="m6.16.6s2.13,0,2.99.48h.31c-.41-.75-3.3-.75-3.3-.75,0,0-2.89,0-3.3.75h.31c.86-.48,2.99-.48,2.99-.48Z"/>
    </g>
  </g>
</svg>