<?xml version="1.0" encoding="UTF-8"?>
<svg id="Layer_2" data-name="Layer 2" xmlns="http://www.w3.org/2000/svg" viewBox="0 0 30.7 35.77">
  <defs>
    <style>
      .cls-1 {
        fill: #999;
      }
    </style>
  </defs>
  <g id="Animated_Vehicles" data-name="Animated Vehicles">
    <path class="cls-1" d="m24.73,16.44l-1.59-1v-2.02c-.08-2.06-3.1-1.91-2.98.15l-1.98-1.24c.05-1.83,1.07-12.12-2.82-12.33-3.9.23-2.86,10.47-2.82,12.33l-1.98,1.24c.1-2.07-2.88-2.2-2.98-.15v2.02s-1.59,1-1.59,1c-.2-1.88-2.91-1.76-2.98.12v1.75s-2.71,1.7-2.71,1.7c-.18.11-.28.31-.28.51v3.28c-.01.4.43.72.81.57l11.82-4.13.3,8.87-4.22,3.45c-.14.11-.22.29-.22.47v2.12c0,.4.41.71.78.58l6.08-1.87,6.08,1.87c.37.12.8-.18.78-.58v-2.12c0-.18-.08-.35-.22-.47l-4.22-3.45.3-8.87,11.82,4.13c.38.14.82-.17.81-.57v-3.28c0-.21-.11-.4-.28-.51l-2.71-1.7v-1.75c-.05-1.9-2.76-1.99-2.98-.12h0Z"/>
  </g>
</svg>