<?xml version="1.0" encoding="UTF-8"?>
<svg id="Layer_2" data-name="Layer 2" xmlns="http://www.w3.org/2000/svg" viewBox="0 0 147.3 115.08">
  <defs>
    <style>
      .cls-1, .cls-2 {
        fill: #fff;
      }

      .cls-2, .cls-3 {
        fill-rule: evenodd;
      }

      .cls-3 {
        fill: #999;
      }
    </style>
  </defs>
  <g id="Animated_Vehicles" data-name="Animated Vehicles">
    <g>
      <polygon class="cls-2" points=".8 7.89 25.2 27.03 26.85 26.08 29.19 23.51 31.33 20.12 29.92 18.29 6.06 .43 2.39 3.35 .8 7.89"/>
      <rect class="cls-1" x="36.55" y="20.51" width="10.08" height="25.28" transform="translate(-9.97 46.21) rotate(-52.78)"/>
      <polygon class="cls-2" points="52.26 45.13 56.7 39.28 69.58 48.36 77.83 55.32 73.39 61.17 71.74 62.08 51.52 46.56 52.26 45.13"/>
      <rect class="cls-1" x="82.74" y="55.6" width="10.08" height="25.28" transform="translate(-19.66 96.87) rotate(-52.78)"/>
      <rect class="cls-1" x="106.46" y="73.15" width="8.84" height="25.28" transform="translate(-24.51 122.19) rotate(-52.78)"/>
      <rect class="cls-1" x="128.94" y="90.7" width="10.08" height="25.28" transform="translate(-29.35 147.52) rotate(-52.78)"/>
      <path class="cls-3" d="m35.06,21.87l.49.38-6.1,8.03-.49-.38,6.1-8.03h0Zm-8.59,3.61l1.92-1.76c.1-.12.2-.14.3-.26l-.93-.7c-.09.12-.2.14-.3.26l-1.92,1.76c-.48.51-.74.21-1.18-.12l-.12-.09-.42.56.86.66c.56.42,1.3.21,1.79-.3h0Zm3.42-2.2l1.61,1.22-.94,1.23-1.61-1.22-1.7,2.24c-.47.62-1.45.75-2.07.28L.56,8.31c-.68-.52-.69-1.4-.28-2.07l1.4-2.74c.17-.36.31-.54.61-.8L4.54.63C5.12,0,5.98-.23,6.66.28l24.64,18.72c.62.47.75,1.45.24,2.13l-1.63,2.15h0ZM2.4,8.84l.42-.56h0c-.43-.33-.79-.5-.43-1.1l1.18-2.32c.09-.12.08-.23.17-.36l-.93-.7c-.09.12-.08.23-.17.36l-1.18,2.32c-.36.6-.37,1.38.25,1.85l.68.52h0Zm.61-.42l-.42.56,3.15,2.39.61-.42-3.34-2.53h0Zm-.1-4.75l.93.7c.05-.06.2-.14.25-.2l1.96-1.82c.48-.51.75-.21,1.18.12h0l.42-.56-.68-.52c-.62-.47-1.36-.26-1.85.25l-1.96,1.82c-.05.06-.2.14-.25.2h0Zm4.93-1.61l-.42.56,3.34,2.53.24-.7-3.15-2.39h0Zm20.82,16.7l.42-.56.86.66c.56.42.55,1.2.19,1.8l-1.22,2.38c-.05.06-.08.23-.13.3l-.93-.7c.05-.06.08-.23.13-.3l1.22-2.38c.36-.6,0-.78-.43-1.1l-.12-.09h0Zm.3-.65l-.42.56-3.27-2.49.61-.42,3.09,2.35h0Zm-4.83,6.36l-3.27-2.49-.24.7,3.09,2.35.42-.56h0ZM6.09,8.72l2.44-3.21,2.66,2.02.31.23,2.65,2.02-2.44,3.21-2.66-2.02-.31-.23-2.66-2.02h0Zm2.75,1.9l2.21-2.9-2.35-1.78-2.21,2.9,2.35,1.78h0Zm2.51-2.67l-2.2,2.9,2.35,1.78,2.21-2.9-2.35-1.78h0Zm116.1,84.11l.49.37-6.1,8.03-.49-.38,6.1-8.03h0Zm.99.75l.5.38-6.1,8.03-.49-.38,6.1-8.03h0Zm.93.7l.5.38-6.1,8.03-.49-.38,6.1-8.03h0Zm.99.75l.5.37-6.1,8.03-.49-.38,6.1-8.03h0Zm.99.75l.5.37-6.1,8.03-.49-.38,6.1-8.03h0Zm.99.75l.5.38-6.1,8.03-.49-.37,6.1-8.03h0Zm.99.75l.5.37-6.1,8.03-.49-.37,6.1-8.03h0Zm.99.75l.5.38-6.1,8.03-.49-.37,6.1-8.03h0Zm.99.75l.49.38-6.1,8.03-.49-.38,6.1-8.03h0Zm.99.75l.49.38-6.1,8.03-.49-.38,6.1-8.03h0Zm.99.75l.49.38-6.1,8.03-.5-.37,6.1-8.03h0Zm.99.75l.49.38-6.1,8.03-.49-.37,6.1-8.03h0Zm.99.75l.49.38-6.1,8.03-.5-.38,6.1-8.03h0Zm.99.75l.49.38-6.1,8.03-.5-.38,6.1-8.03h0Zm.99.75l.49.38-6.1,8.03-.49-.38,6.1-8.03h0Zm.99.75l.5.37-6.1,8.03-.49-.38,6.1-8.03h0Zm.99.75l.43.33-6.1,8.03-.43-.33,6.1-8.03h0Zm.93.7l.5.37-6.1,8.03-.49-.38,6.1-8.03h0Zm.99.75l.5.37-6.1,8.03-.49-.38,6.1-8.03h0Zm.99.75l.5.38-6.1,8.03-.49-.38,6.1-8.03h0Zm-25.24-6.51c-.26-.3-.26-.69-.02-.99l5.16-6.79c.24-.31.61-.42.96-.24l-6.1,8.03h0Zm1.05-6.51l2.11-2.78c.24-.31.24-.7-.02-.99h0l-.5-.38h0s-.5-.38-.5-.38l-.49-.37h0s-.5-.38-.5-.38l-.49-.37h0s-.5-.38-.5-.38l-.5-.38-.43-.33-.49-.38-.49-.38-.5-.38-.49-.38h0s-.49-.37-.49-.37l-.49-.38h0s-.49-.37-.49-.37l-.49-.38h0s-.49-.37-.49-.37l-.49-.38h0s-.49-.37-.49-.37l-.49-.38h0s-.49-.37-.49-.37l-.49-.38h0s-.49-.37-.49-.37l-.49-.38h0s-.49-.37-.49-.37h0s-.5-.38-.5-.38l-.49-.37-.5-.38-.49-.37h0s-.5-.38-.5-.38l-.49-.37h0s-.5-.38-.5-.38l-.49-.38h0s-.5-.38-.5-.38l-.49-.38h0s-.5-.38-.5-.38l-.43-.33h0s-.5-.38-.5-.38l-.49-.37h0s-.5-.38-.5-.38l-.5-.38h0c-.35-.17-.73-.06-.96.24l-5.16,6.79c-.23.31-.24.7.02.99l.12-.15-.11.15.49.37h0l.49.38h0l.49.38h0l.49.38h0l.43.33h0l.49.38h0l.9.68.09.07h0l.87.66.12.09h0l.5.38h0s.49.38.49.38h0s.49.37.49.37h0s.49.38.49.38h0s.49.37.49.37h0s.49.38.49.38h0s.49.37.49.37h0s.49.38.49.38h0s.49.37.49.37h0s.49.38.49.38h0s.5.38.5.38h0s.49.38.49.38h0s.49.37.49.37h0s.5.38.5.38h0s.49.37.49.37h0s.5.38.5.38h0s.49.37.49.37h0s.49.38.49.38h0s.49.37.49.37h0s.49.38.49.38h0s.5.37.5.37h0s.49.38.49.38h0s.49.37.49.37h0s.43.33.43.33h0s.49.37.49.37h0s.5.38.5.38h0s.49.37.49.37h0s.49.38.49.38h0s.52.39.52.39l.47.36h0s.49.37.49.37l.3-.39-.3.39c.35.17.73.07.96-.24l2.11-2.78,1.98,1.5.94-1.23-1.98-1.5Zm1.71-3.28l.3-.39-1.36,1.78-.49-.38,1.06-1.39.49.37Zm-4.46,1.77l-.49-.37,1.06-1.39.49.37-1.06,1.39Zm1.55-1.01l.49.37-1.06,1.39-.49-.38,1.06-1.39Zm-2.54.26l-.49-.38,1.06-1.39.5.38-1.06,1.39Zm-.93-.7l-.49-.38,1.06-1.39.49.38-1.06,1.39Zm-.99-.75l-.49-.38,1.05-1.39.5.38-1.06,1.39Zm-.99-.75l-.49-.38,1.06-1.39.49.38-1.06,1.39Zm-.99-.75l-.49-.37,1.05-1.39.49.37-1.06,1.39Zm-.99-.75l-.49-.37,1.05-1.39.49.37-1.06,1.39Zm-.99-.75l-.49-.38,1.06-1.39.49.38-1.06,1.39Zm-.99-.75l-.49-.38,1.06-1.39.49.38-1.06,1.39Zm-.99-.75l-.49-.38,1.06-1.39.49.38-1.06,1.39Zm-.99-.75l-.49-.38,1.06-1.39.49.38-1.06,1.39Zm-.99-.75l-.49-.37,1.06-1.39.49.37-1.06,1.39Zm-.99-.75l-.49-.38,1.06-1.39.49.37-1.05,1.39Zm-.99-.75l-.49-.38,1.06-1.39.49.37-1.05,1.39Zm-.99-.75l-.49-.38,1.06-1.39.49.38-1.06,1.39Zm-.99-.75l-.49-.38,1.06-1.39.49.38-1.06,1.39Zm-.99-.75l-.43-.33,1.06-1.39.43.33-1.06,1.39Zm-.93-.7l-.49-.37,1.06-1.39.49.37-1.06,1.39Zm-.38.49l-.96,1.27-.49-.37.96-1.27.49.37Zm.49.38l.43.33-.96,1.27-.43-.33.96-1.27Zm.93.7l.49.38-.96,1.27-.49-.38.96-1.27Zm.99.75l.49.38-.96,1.27-.49-.38.96-1.27Zm.99.75l.49.38-.96,1.27-.5-.38.96-1.27Zm.99.75l.49.38-.96,1.27-.49-.38.96-1.27Zm.99.75l.49.37-.96,1.27-.49-.37.97-1.27Zm.99.75l.49.38-.96,1.27-.49-.38.96-1.27Zm.99.75l.49.38-.96,1.27-.49-.38.96-1.27Zm.99.75l.49.38-.96,1.27-.5-.38.96-1.27Zm.99.75l.49.38-.96,1.27-.49-.38.96-1.27Zm.99.75l.49.37-.96,1.27-.49-.37.96-1.27Zm.99.75l.49.37-.96,1.27-.49-.37.96-1.27Zm.99.75l.49.38-.96,1.27-.49-.38.96-1.27Zm.99.75l.49.37-.96,1.27-.49-.38.96-1.27Zm.99.75l.49.38-.97,1.27-.49-.37.96-1.27Zm.93.7l.49.38-.97,1.27-.49-.37.96-1.27Zm.99.75l.49.37-.96,1.27-.49-.37.96-1.27Zm.99.75l.49.38-.96,1.27-.5-.38.97-1.27Zm.99.75l.49.38-.96,1.27-.49-.38.96-1.27Zm.37-.49l1.06-1.39.49.38-1.06,1.39-.49-.38Zm1.99-3.65l-1.06,1.39-.49-.37,1.06-1.39.49.37Zm-.99-.75l-1.06,1.39-.49-.37,1.06-1.39.49.37Zm-.99-.75l-1.06,1.39-.5-.38,1.06-1.39.5.38Zm-.93-.7l-1.06,1.39-.49-.38,1.06-1.39.49.38Zm-.99-.75l-1.06,1.39-.5-.38,1.05-1.39.5.38Zm-.99-.75l-1.06,1.39-.49-.38,1.06-1.39.49.38Zm-.99-.75l-1.06,1.39-.49-.37,1.05-1.39.49.38Zm-.99-.75l-1.06,1.39-.49-.37,1.05-1.39.49.38Zm-.99-.75l-1.06,1.39-.49-.38,1.06-1.39.49.38Zm-.99-.75l-1.06,1.39-.49-.38,1.06-1.39.49.38Zm-.99-.75l-1.06,1.39-.49-.38,1.06-1.39.49.38Zm-.99-.75l-1.06,1.39-.49-.38,1.06-1.39.49.38Zm-.99-.75l-1.06,1.39-.49-.37,1.06-1.39.49.37Zm-.99-.75l-1.05,1.39-.49-.37,1.06-1.39.49.37Zm-.99-.75l-1.05,1.39-.49-.37,1.05-1.39.49.37Zm-.99-.75l-1.05,1.39-.49-.38,1.05-1.39.49.38Zm-.99-.75l-1.05,1.39-.49-.38,1.05-1.39.49.38Zm-.99-.75l-1.05,1.39-.43-.33,1.05-1.39.43.33Zm-.93-.7l-1.05,1.39-.49-.37,1.05-1.39.49.37Zm-6.83,5.91l5.61-7.38-.26.35.49.37-1.05,1.39-.47-.36-.37.5.46.35-1.06,1.39-.47-.36-.37.5.46.35-.96,1.27-.47-.36-.37.5.46.35-1.15,1.51-.49-.37Zm.99.75l1.15-1.51.49.37-1.15,1.51-.49-.38Zm.99.75l1.15-1.51.43.33-1.15,1.51-.43-.33Zm2.07-.81l.49.38-1.15,1.51-.49-.38,1.15-1.51Zm.99.75l.49.38-1.15,1.51-.49-.38,1.15-1.51Zm-.16,2.26l1.15-1.51.5.38-1.15,1.51-.5-.38Zm.99.75l1.15-1.51.49.38-1.15,1.51-.49-.38Zm.99.75l1.15-1.51.49.37-1.15,1.51-.49-.38Zm.99.75l1.15-1.51.49.38-1.15,1.51-.49-.38Zm.99.75l1.15-1.51.49.38-1.15,1.51-.49-.38Zm.99.75l1.15-1.51.5.38-1.15,1.51-.5-.38Zm.99.75l1.15-1.51.49.38-1.15,1.51-.49-.38Zm.99.75l1.15-1.51.49.37-1.15,1.51-.49-.37Zm.99.75l1.15-1.51.49.37-1.15,1.51-.49-.37Zm.99.75l1.15-1.51.49.38-1.15,1.51-.49-.38Zm.99.75l1.15-1.51.49.37-1.15,1.51-.49-.38Zm.99.75l1.15-1.51.49.37-1.15,1.51-.49-.37Zm.93.7l1.15-1.51.49.37-1.15,1.51-.49-.37Zm.99.75l1.15-1.51.49.37-1.15,1.51-.49-.37Zm2.14-.76l.5.38-1.15,1.51-.5-.38,1.15-1.51Zm-.16,2.26l1.15-1.51.49.38-1.15,1.51-.49-.38Zm-36.52-39.62l.5.38-6.1,8.03-.49-.38,6.1-8.03h0Zm17.55,18.69l1.98,1.5-.94,1.24-1.98-1.5-2.11,2.78c-.24.31-.61.41-.96.24l6.1-8.03c.26.3.26.68.03.99l-2.11,2.78h0Zm-16.57-17.94l.43.33-6.1,8.03-.43-.33,6.1-8.03h0Zm.93.7l.5.37-6.1,8.03-.49-.38,6.1-8.03h0Zm.99.75l.5.37-6.1,8.03-.5-.38,6.1-8.03h0Zm.99.75l.5.38-6.1,8.03-.49-.37,6.1-8.03h0Zm.99.75l.5.37-6.1,8.03-.49-.37,6.1-8.03h0Zm.99.75l.5.37-6.1,8.03-.49-.37,6.1-8.03h0Zm.99.75l.49.38-6.1,8.03-.49-.38,6.1-8.03h0Zm.99.75l.49.38-6.1,8.03-.49-.38,6.1-8.03h0Zm.99.75l.49.38-6.1,8.03-.49-.37,6.1-8.03h0Zm.99.75l.49.38-6.1,8.03-.5-.37,6.1-8.03h0Zm.99.75l.49.38-6.1,8.03-.5-.37,6.1-8.03h0Zm.99.75l.49.38-6.1,8.03-.5-.38,6.1-8.03h0Zm.99.75l.49.38-6.1,8.03-.49-.38,6.1-8.03h0Zm.99.75l.49.38-6.1,8.03-.49-.38,6.1-8.03h0Zm.99.75l.5.37-6.1,8.03-.5-.38,6.1-8.03h0Zm.93.7l.5.37-6.1,8.03-.5-.38,6.1-8.03h0Zm.99.75l.5.37-6.1,8.03-.49-.38,6.1-8.03h0Zm.99.75l.5.37-6.1,8.03-.49-.38,6.1-8.03h0Zm.99.75l.5.37-6.1,8.03-.49-.38,6.1-8.03h0Zm-25.24-6.52c-.26-.3-.26-.68-.02-.99l5.16-6.79c.24-.31.61-.41.97-.24l-6.1,8.03h0Zm3.02-5.01l-1.98-1.5-.94,1.24,1.98,1.5.94-1.24Zm0,0l-1.98-1.5-.94,1.24,1.98,1.5.94-1.24Zm-25.07-19.05l1.98,1.5-.94,1.24-1.97-1.5-2.11,2.78c-.23.31-.61.41-.96.24l6.1-8.03c.26.3.26.68.03.99l-2.11,2.78h0Zm-16.63-17.99l.49.38-6.1,8.03-.49-.38,6.1-8.03h0Zm.99.75l.49.38-6.1,8.03-.49-.38,6.1-8.03h0Zm.99.75l.49.37-6.1,8.03-.49-.38,6.1-8.03h0Zm.99.75l.49.38-6.1,8.03-.49-.38,6.1-8.03h0Zm.99.75l.49.38-6.1,8.03-.49-.38,6.1-8.03h0Zm.99.75l.49.38-6.1,8.03-.49-.38,6.1-8.03h0Zm.99.75l.49.38-6.1,8.03-.49-.38,6.1-8.03h0Zm.99.75l.49.38-6.1,8.03-.49-.38,6.1-8.03h0Zm.99.75l.49.38-6.1,8.03-.49-.37,6.1-8.03h0Zm.99.75l.49.38-6.1,8.03-.49-.38,6.1-8.03h0Zm.99.75l.49.38-6.1,8.03-.49-.38,6.1-8.03h0Zm.99.75l.49.38-6.1,8.03-.49-.38,6.1-8.03h0Zm.99.75l.49.37-6.1,8.03-.49-.38,6.1-8.03h0Zm.99.75l.5.37-6.1,8.03-.49-.38,6.1-8.03h0Zm.99.75l.43.33-6.1,8.03-.43-.33,6.1-8.03h0Zm.93.7l.5.37-6.1,8.03-.49-.37,6.1-8.03h0Zm.99.75l.5.37-6.1,8.03-.49-.38,6.1-8.03h0Zm.99.75l.5.37-6.1,8.03-.49-.38,6.1-8.03h0Zm.99.75l.5.37-6.1,8.03-.49-.38,6.1-8.03h0Zm-25.24-6.52c-.26-.3-.26-.69-.02-.99l5.16-6.79c.23-.31.61-.41.96-.24l-6.1,8.03h0Zm112.53,85.48l6.1-8.03c.26.3.26.68.02.99l-5.16,6.79c-.23.31-.61.42-.96.24h0ZM58.71,40.68l17.23,13.09c.81.61,1.21,1.56,1.17,2.5l.72-.95c.24-.31.24-.7-.02-.99h0s-20.14-15.3-20.14-15.3c-.36-.17-.73-.07-.96.24l-.72.94c.9-.29,1.92-.15,2.72.46Zm11.96,20.03l-17.23-13.09c-.8-.61-1.21-1.55-1.17-2.5l-.72.95c-.23.31-.24.7.02.99l20.13,15.3c.36.17.73.07.96-.24l.72-.95c-.9.29-1.92.16-2.72-.46Zm6.09.13l.94-1.24-1.98-1.5.36-.48c.81-1.07.6-2.61-.47-3.42l-17.23-13.09c-1.07-.81-2.61-.6-3.42.47l-1.67,2.19c-.81,1.07-.6,2.61.47,3.42l17.23,13.09c1.07.81,2.61.6,3.42-.47l.36-.48,1.98,1.5Z"/>
    </g>
  </g>
</svg>