<?xml version="1.0" encoding="UTF-8"?>
<svg id="Layer_2" data-name="Layer 2" xmlns="http://www.w3.org/2000/svg" viewBox="0 0 14.86 51">
  <defs>
    <style>
      .cls-1 {
        fill: #fff;
      }

      .cls-2 {
        fill: #999;
      }
    </style>
  </defs>
  <g id="Animated_Vehicles" data-name="Animated Vehicles">
    <g>
      <g>
        <g>
          <path class="cls-2" d="m13.02,42.94c.08.15.18.3.33.38.04.02.09.04.14.05.09.01.17-.02.25-.05.19-.08.38-.18.54-.31.14-.11.28-.24.38-.39.09-.13.16-.27.19-.43.01-.07.02-.14.01-.21,0-.02-.03-.2-.04-.2l-1.53.58-.79.3.08.22c.39-.12.4-.04.45.06Z"/>
          <path class="cls-2" d="m1.84,42.94c-.08.15-.18.3-.33.38-.04.02-.09.04-.14.05-.09.01-.17-.02-.25-.05-.19-.08-.38-.18-.54-.31-.14-.11-.28-.24-.38-.39-.09-.13-.16-.27-.19-.43-.01-.07-.02-.14-.01-.21,0-.02.03-.2.04-.2l1.53.58.79.3-.08.22c-.39-.12-.4-.04-.45.06Z"/>
        </g>
        <rect class="cls-2" x="1.87" y="0" width="11.09" height="36.43" transform="translate(14.84 36.44) rotate(179.98)"/>
        <path class="cls-2" d="m1.94,43.82l.57,2.26h.45s0,.48,0,.48h.46s0,3.45,0,3.45c0,.29.23.52.52.52h.69s0,.47,0,.47h5.59s0-.47,0-.47h.69c.29,0,.52-.23.52-.52v-3.45s.45,0,.45,0v-.48s.45,0,.45,0l.56-2.26c.04-.07.06-.16.06-.24v-5.76c0-.29-.24-.52-.52-.52h-.48s0-.86,0-.86H2.88s0,.86,0,.86h-.48c-.29,0-.52.23-.52.52v5.76c0,.08.02.17.06.24Z"/>
      </g>
      <g>
        <path class="cls-1" d="m7.68,43.47c2.68,0,4.81-.13,4.81-.27l-.7-1.19c-1.28.03-2.67.04-4.11.04v1.42Z"/>
        <path class="cls-1" d="m7.18,43.47v-1.42c-1.45,0-2.83-.02-4.11-.04l-.7,1.19c0,.14,2.13.26,4.81.27Z"/>
      </g>
      <polygon class="cls-1" points="2.37 42.5 2.37 37.95 2.88 37.95 2.89 41.59 2.37 42.5"/>
      <polygon class="cls-1" points="12.49 42.5 12.49 37.95 11.97 37.95 11.97 41.59 12.49 42.5"/>
      <g>
        <rect class="cls-1" x="3" y="33.17" width="8.86" height=".31"/>
        <rect class="cls-1" x="3" y="29.81" width="8.86" height=".31"/>
        <rect class="cls-1" x="2.99" y="26.45" width="8.86" height=".31"/>
        <rect class="cls-1" x="2.99" y="23.1" width="8.86" height=".31"/>
        <rect class="cls-1" x="2.99" y="19.74" width="8.86" height=".31"/>
        <rect class="cls-1" x="2.99" y="16.38" width="8.86" height=".31"/>
        <rect class="cls-1" x="2.99" y="13.03" width="8.86" height=".31"/>
        <rect class="cls-1" x="2.99" y="9.67" width="8.86" height=".31"/>
        <rect class="cls-1" x="2.99" y="6.32" width="8.86" height=".31"/>
        <rect class="cls-1" x="2.98" y="2.96" width="8.86" height=".31"/>
      </g>
      <path class="cls-1" d="m6.84,50.38h.51s.08,0,.08,0h.59c1.31,0,3.54-6.66,3.54-6.66-.54,1.54-2.52,6.56-3.61,6.56h-.46s-.3,0-.3,0h-.28c-1.1,0-3.07-5.02-3.62-6.56,0,0,2.23,6.66,3.55,6.66Z"/>
    </g>
  </g>
</svg>