<?xml version="1.0" encoding="UTF-8"?>
<svg id="Layer_2" data-name="Layer 2" xmlns="http://www.w3.org/2000/svg" viewBox="0 0 136.71 19.49">
  <defs>
    <style>
      .cls-1 {
        fill: #fff;
      }

      .cls-2 {
        fill: #bd3628;
      }

      .cls-3 {
        fill: #666;
      }
    </style>
  </defs>
  <g id="Clickable_Factory" data-name="Clickable Factory">
    <g id="Clickable_Factory-2" data-name="Clickable Factory">
      <g>
        <g>
          <path class="cls-3" d="m.83,6.74h-.83L2.4.2h.82l2.4,6.54h-.83L2.83,1.23h-.05L.83,6.74Zm.3-2.55h3.35v.7H1.13v-.7Z"/>
          <path class="cls-3" d="m6.54,6.74V1.83h.73v.74h.05c.09-.24.25-.44.49-.59s.5-.23.79-.23h.21c.09,0,.15.01.19.01v.77s-.08-.02-.17-.03-.19-.02-.29-.02c-.24,0-.45.05-.64.15s-.33.24-.44.41-.16.37-.16.59v3.11h-.76Z"/>
          <path class="cls-3" d="m10.27,1.02c-.15,0-.27-.05-.38-.15s-.16-.22-.16-.36.05-.26.16-.36c.11-.1.23-.15.38-.15s.27.05.38.15.16.22.16.36-.05.26-.16.36c-.1.1-.23.15-.38.15Zm-.38,5.72V1.83h.75v4.91h-.75Z"/>
          <path class="cls-3" d="m11.88,6.74v-.58l2.79-3.58v-.05h-2.7v-.7h3.67v.6l-2.71,3.55v.05h2.8v.7h-3.85Z"/>
          <path class="cls-3" d="m18.89,6.85c-.44,0-.83-.11-1.17-.32-.33-.21-.59-.51-.78-.89s-.28-.82-.28-1.33.09-.96.28-1.34.45-.68.78-.89c.33-.21.72-.32,1.17-.32s.83.11,1.17.32.59.51.78.89.28.83.28,1.34-.09.95-.28,1.33c-.19.38-.45.67-.78.89s-.73.32-1.17.32Zm0-.68c.34,0,.61-.09.83-.26s.38-.4.48-.68.16-.59.16-.91-.05-.63-.16-.92-.26-.51-.48-.69-.49-.26-.83-.26-.61.09-.83.26c-.22.17-.38.4-.48.69s-.16.59-.16.92.05.63.16.91.27.51.48.68c.22.17.49.26.83.26Z"/>
          <path class="cls-3" d="m23.02,3.79v2.95h-.75V1.83h.73v.77h.06c.11-.25.29-.45.52-.6s.54-.23.91-.23c.33,0,.62.07.87.2s.44.34.58.61.21.62.21,1.04v3.12h-.75v-3.07c0-.38-.1-.69-.3-.9-.2-.22-.48-.32-.83-.32-.24,0-.46.05-.64.16s-.34.26-.45.46-.16.44-.16.72Z"/>
          <path class="cls-3" d="m28.98,6.86c-.31,0-.59-.06-.85-.18-.25-.12-.46-.29-.6-.51-.15-.23-.22-.5-.22-.82,0-.28.06-.51.17-.69s.26-.31.44-.41c.19-.1.39-.18.62-.23.23-.05.45-.09.68-.12.3-.04.54-.07.73-.09s.32-.05.41-.1c.09-.05.13-.13.13-.26v-.03c0-.32-.09-.56-.26-.74-.17-.17-.43-.26-.78-.26s-.64.08-.85.24c-.2.16-.35.33-.43.5l-.72-.26c.13-.3.3-.53.51-.7s.45-.28.7-.35.5-.1.75-.1c.16,0,.34.02.54.06.21.04.41.11.6.23.19.12.35.29.48.52.13.23.19.54.19.93v3.23h-.75v-.66h-.04c-.05.11-.14.22-.26.34s-.28.22-.48.31-.43.15-.71.15Zm.11-.68c.3,0,.55-.06.76-.18s.36-.27.47-.45c.11-.19.16-.38.16-.58v-.69s-.1.07-.21.1c-.11.03-.23.06-.37.08s-.28.04-.41.06c-.13.02-.24.03-.32.04-.2.03-.38.07-.55.12-.17.06-.31.14-.41.25s-.15.26-.15.46c0,.26.1.46.29.59.19.14.44.2.74.2Z"/>
          <path class="cls-3" d="m36.03.2v6.54h-.79V.2h.79Z"/>
          <path class="cls-3" d="m38.27,3.79v2.95h-.75V1.83h.73v.77h.06c.11-.25.29-.45.52-.6s.54-.23.91-.23c.33,0,.62.07.87.2s.44.34.58.61.21.62.21,1.04v3.12h-.75v-3.07c0-.38-.1-.69-.3-.9-.2-.22-.48-.32-.83-.32-.24,0-.46.05-.64.16s-.34.26-.45.46-.16.44-.16.72Z"/>
          <path class="cls-3" d="m43.54,3.79v2.95h-.75V1.83h.73v.77h.06c.11-.25.29-.45.52-.6s.54-.23.91-.23c.33,0,.62.07.87.2s.44.34.58.61.21.62.21,1.04v3.12h-.75v-3.07c0-.38-.1-.69-.3-.9-.2-.22-.48-.32-.83-.32-.24,0-.46.05-.64.16s-.34.26-.45.46-.16.44-.16.72Z"/>
          <path class="cls-3" d="m50.04,6.85c-.44,0-.83-.11-1.17-.32-.33-.21-.59-.51-.78-.89s-.28-.82-.28-1.33.09-.96.28-1.34.45-.68.78-.89c.33-.21.72-.32,1.17-.32s.83.11,1.17.32.59.51.78.89.28.83.28,1.34-.09.95-.28,1.33c-.19.38-.45.67-.78.89s-.72.32-1.17.32Zm0-.68c.34,0,.61-.09.83-.26s.38-.4.48-.68.16-.59.16-.91-.05-.63-.16-.92-.26-.51-.48-.69-.49-.26-.83-.26-.61.09-.83.26c-.22.17-.38.4-.48.69s-.16.59-.16.92.05.63.16.91.27.51.48.68c.22.17.5.26.83.26Z"/>
          <path class="cls-3" d="m57.43,1.84l-1.81,4.91h-.77l-1.82-4.91h.82l1.36,3.91h.05l1.36-3.91h.81Z"/>
          <path class="cls-3" d="m59.88,6.86c-.31,0-.59-.06-.85-.18-.25-.12-.46-.29-.6-.51-.15-.23-.22-.5-.22-.82,0-.28.06-.51.17-.69s.26-.31.44-.41c.19-.1.39-.18.62-.23.23-.05.45-.09.68-.12.3-.04.54-.07.73-.09s.32-.05.41-.1c.09-.05.13-.13.13-.26v-.03c0-.32-.09-.56-.26-.74-.17-.17-.43-.26-.78-.26s-.64.08-.85.24c-.2.16-.35.33-.43.5l-.72-.26c.13-.3.3-.53.51-.7s.45-.28.7-.35.5-.1.75-.1c.16,0,.34.02.54.06.21.04.41.11.6.23.19.12.35.29.48.52.13.23.19.54.19.93v3.23h-.75v-.66h-.04c-.05.11-.14.22-.26.34s-.28.22-.48.31-.43.15-.71.15Zm.11-.68c.3,0,.55-.06.76-.18s.36-.27.47-.45c.11-.19.16-.38.16-.58v-.69s-.1.07-.21.1c-.11.03-.23.06-.37.08s-.28.04-.41.06c-.13.02-.24.03-.32.04-.2.03-.38.07-.55.12-.17.06-.31.14-.41.25s-.15.26-.15.46c0,.26.1.46.29.59.19.14.44.2.74.2Z"/>
          <path class="cls-3" d="m65.64,1.84v.64h-2.54v-.64h2.54Zm-1.8-1.18h.75v4.68c0,.21.03.37.09.48.06.11.14.18.24.21.1.04.2.05.31.05.08,0,.15,0,.21-.01.05-.01.1-.02.13-.02l.15.68s-.12.04-.21.06-.21.03-.35.03c-.21,0-.42-.05-.62-.14s-.37-.23-.5-.42-.2-.42-.2-.71V.66h0Z"/>
          <path class="cls-3" d="m67.16,1.02c-.15,0-.27-.05-.38-.15s-.16-.22-.16-.36.05-.26.16-.36c.11-.1.23-.15.38-.15s.27.05.38.15.16.22.16.36-.05.26-.16.36c-.1.1-.23.15-.38.15Zm-.38,5.72V1.83h.75v4.91h-.75Z"/>
          <path class="cls-3" d="m70.91,6.85c-.44,0-.83-.11-1.17-.32-.33-.21-.59-.51-.78-.89s-.28-.82-.28-1.33.09-.96.28-1.34.45-.68.78-.89c.33-.21.72-.32,1.17-.32s.83.11,1.17.32.59.51.78.89.28.83.28,1.34-.09.95-.28,1.33c-.19.38-.45.67-.78.89s-.73.32-1.17.32Zm0-.68c.34,0,.61-.09.83-.26s.38-.4.48-.68.16-.59.16-.91-.05-.63-.16-.92-.26-.51-.48-.69-.49-.26-.83-.26-.61.09-.83.26c-.22.17-.38.4-.48.69s-.16.59-.16.92.05.63.16.91.27.51.48.68c.21.17.49.26.83.26Z"/>
          <path class="cls-3" d="m75.04,3.79v2.95h-.75V1.83h.73v.77h.06c.11-.25.29-.45.52-.6s.54-.23.91-.23c.33,0,.62.07.87.2s.44.34.58.61.21.62.21,1.04v3.12h-.75v-3.07c0-.38-.1-.69-.3-.9-.2-.22-.48-.32-.83-.32-.24,0-.46.05-.64.16s-.34.26-.45.46-.16.44-.16.72Z"/>
          <path class="cls-3" d="m83.53,6.86c-.31,0-.59-.06-.85-.18-.25-.12-.46-.29-.6-.51-.15-.23-.22-.5-.22-.82,0-.28.06-.51.17-.69s.26-.31.44-.41c.19-.1.39-.18.62-.23.23-.05.45-.09.68-.12.3-.04.54-.07.73-.09s.32-.05.41-.1c.09-.05.13-.13.13-.26v-.03c0-.32-.09-.56-.26-.74-.17-.17-.43-.26-.78-.26s-.64.08-.85.24c-.2.16-.35.33-.43.5l-.72-.26c.13-.3.3-.53.51-.7s.45-.28.7-.35.5-.1.75-.1c.16,0,.34.02.54.06.21.04.41.11.6.23.19.12.35.29.48.52.13.23.19.54.19.93v3.23h-.75v-.66h-.04c-.05.11-.14.22-.26.34s-.28.22-.48.31-.43.15-.71.15Zm.11-.68c.3,0,.55-.06.76-.18s.36-.27.47-.45c.11-.19.16-.38.16-.58v-.69s-.1.07-.21.1c-.11.03-.23.06-.37.08s-.28.04-.41.06c-.13.02-.24.03-.32.04-.2.03-.38.07-.55.12-.17.06-.31.14-.41.25s-.15.26-.15.46c0,.26.1.46.29.59.19.14.44.2.74.2Z"/>
          <path class="cls-3" d="m87.91,3.79v2.95h-.75V1.83h.73v.77h.06c.11-.25.29-.45.52-.6s.54-.23.91-.23c.33,0,.62.07.87.2s.44.34.58.61.21.62.21,1.04v3.12h-.75v-3.07c0-.38-.1-.69-.3-.9-.2-.22-.48-.32-.83-.32-.24,0-.46.05-.64.16s-.34.26-.45.46-.16.44-.16.72Z"/>
          <path class="cls-3" d="m94.28,6.85c-.41,0-.77-.1-1.08-.31s-.56-.5-.74-.88-.27-.83-.27-1.35.09-.96.27-1.34.42-.67.74-.88.68-.31,1.09-.31c.32,0,.57.05.76.16.19.11.33.22.43.36.1.13.18.24.23.33h.06V.21h.75v6.54h-.73v-.75h-.08c-.05.09-.13.2-.24.34-.1.14-.25.26-.44.36s-.44.15-.75.15Zm.1-.68c.3,0,.56-.08.77-.24s.37-.38.48-.66.16-.61.16-.98-.05-.69-.16-.96c-.11-.28-.26-.49-.47-.65s-.47-.23-.77-.23c-.32,0-.59.08-.8.24s-.37.38-.48.66-.16.59-.16.93.05.67.16.95c.11.29.27.51.48.68.21.18.47.26.79.26Z"/>
          <path class="cls-3" d="m10.17,11.7v-.7h4.91v.7h-2.06v5.84h-.79v-5.84h-2.06Z"/>
          <path class="cls-3" d="m18.26,17.65c-.47,0-.88-.1-1.22-.31s-.61-.5-.79-.88-.28-.82-.28-1.32.09-.95.28-1.33c.18-.38.44-.68.77-.9s.72-.32,1.16-.32c.26,0,.51.04.76.13.25.08.48.22.68.41s.37.44.49.76c.12.31.18.7.18,1.16v.32h-3.78v-.65h3.02c0-.28-.06-.52-.17-.74s-.27-.39-.47-.51-.44-.19-.71-.19c-.3,0-.56.07-.78.22-.22.15-.39.34-.5.58s-.18.49-.18.76v.43c0,.37.06.68.19.94s.31.45.54.58c.23.13.5.2.8.2.2,0,.38-.03.54-.08.16-.06.3-.14.42-.25s.21-.26.27-.43l.73.2c-.08.25-.21.46-.39.65s-.4.33-.67.43-.56.14-.89.14Z"/>
          <path class="cls-3" d="m23.44,17.65c-.46,0-.86-.11-1.19-.33s-.59-.52-.77-.9-.27-.82-.27-1.31.09-.94.28-1.32c.18-.38.44-.68.77-.9s.72-.32,1.16-.32c.34,0,.66.06.93.19.28.13.5.31.68.54s.29.5.33.81h-.75c-.06-.22-.18-.42-.38-.6-.2-.17-.46-.26-.79-.26-.29,0-.55.08-.77.23s-.39.37-.51.64c-.12.28-.18.6-.18.97s.06.71.18.99.29.5.51.66c.22.16.48.23.78.23.2,0,.37-.03.53-.1.16-.07.29-.17.41-.29.11-.13.19-.28.24-.46h.75c-.04.29-.15.55-.32.78s-.39.42-.66.55c-.28.13-.6.2-.96.2Z"/>
          <path class="cls-3" d="m27.22,14.59v2.95h-.75v-6.54h.75v2.4h.06c.12-.25.29-.46.52-.61.23-.15.54-.23.92-.23.33,0,.63.07.88.2s.45.34.59.61.21.62.21,1.04v3.12h-.75v-3.07c0-.39-.1-.69-.3-.91-.2-.21-.48-.32-.84-.32-.25,0-.47.05-.66.16-.19.1-.35.26-.46.46-.11.21-.17.46-.17.74Z"/>
          <path class="cls-3" d="m32.54,14.59v2.95h-.75v-4.91h.73v.77h.06c.11-.25.29-.45.52-.6s.54-.23.91-.23c.33,0,.62.07.87.2s.44.34.58.61.21.62.21,1.04v3.12h-.75v-3.07c0-.38-.1-.69-.3-.9-.2-.22-.48-.32-.83-.32-.24,0-.46.05-.64.16s-.34.26-.45.46-.16.44-.16.72Z"/>
          <path class="cls-3" d="m39.04,17.65c-.44,0-.83-.11-1.17-.32-.33-.21-.59-.51-.78-.89s-.28-.82-.28-1.33.09-.96.28-1.34.45-.68.78-.89c.33-.21.72-.32,1.17-.32s.83.11,1.17.32.59.51.78.89.28.83.28,1.34-.09.95-.28,1.33c-.19.38-.45.67-.78.89s-.72.32-1.17.32Zm0-.68c.34,0,.61-.09.83-.26s.38-.4.48-.68.16-.59.16-.91-.05-.63-.16-.92-.26-.51-.48-.69-.49-.26-.83-.26-.61.09-.83.26c-.22.17-.38.4-.48.69s-.16.59-.16.92.05.63.16.91.27.51.48.68c.22.17.5.26.83.26Z"/>
          <path class="cls-3" d="m43.17,11v6.54h-.75v-6.54h.75Z"/>
          <path class="cls-3" d="m46.55,17.65c-.44,0-.83-.11-1.17-.32-.33-.21-.59-.51-.78-.89s-.28-.82-.28-1.33.09-.96.28-1.34.45-.68.78-.89c.33-.21.72-.32,1.17-.32s.83.11,1.17.32.59.51.78.89.28.83.28,1.34-.09.95-.28,1.33c-.19.38-.45.67-.78.89s-.73.32-1.17.32Zm0-.68c.34,0,.61-.09.83-.26s.38-.4.48-.68.16-.59.16-.91-.05-.63-.16-.92-.26-.51-.48-.69-.49-.26-.83-.26-.61.09-.83.26c-.22.17-.38.4-.48.69s-.16.59-.16.92.05.63.16.91.27.51.48.68c.22.17.49.26.83.26Z"/>
          <path class="cls-3" d="m51.91,19.49c-.36,0-.68-.05-.94-.14-.26-.09-.48-.21-.65-.36-.17-.15-.31-.31-.41-.48l.6-.42c.07.09.15.19.26.31s.25.22.43.3c.18.09.42.13.72.13.4,0,.72-.1.98-.29s.39-.49.39-.9v-1h-.06c-.05.09-.13.2-.23.33-.1.13-.25.25-.43.35-.19.1-.44.15-.76.15-.4,0-.75-.09-1.07-.28-.31-.19-.56-.46-.75-.82-.18-.36-.27-.79-.27-1.3s.09-.94.27-1.32.42-.66.74-.87.68-.31,1.09-.31c.32,0,.57.05.76.16s.33.22.43.36c.1.13.18.24.23.33h.08v-.78h.73v5.05c0,.42-.1.77-.29,1.03s-.45.46-.77.58c-.34.13-.69.19-1.08.19Zm-.03-2.7c.3,0,.56-.07.77-.21s.37-.34.48-.6.16-.57.16-.93-.05-.67-.16-.94-.26-.48-.47-.64-.47-.23-.77-.23c-.32,0-.59.08-.8.24-.21.16-.37.38-.48.65s-.16.58-.16.91.05.64.16.9.27.47.48.61c.21.17.48.24.79.24Z"/>
          <path class="cls-3" d="m55.89,19.37c-.13,0-.24-.01-.34-.03-.1-.02-.17-.04-.21-.06l.19-.67c.27.07.5.07.69,0,.18-.07.34-.29.48-.66l.14-.38-1.82-4.93h.82l1.36,3.91h.05l1.36-3.91h.82s-2.09,5.62-2.09,5.62c-.09.25-.21.46-.35.62s-.3.29-.48.37c-.18.08-.39.12-.62.12Z"/>
          <path class="cls-3" d="m68.33,13.04h-.79c-.05-.23-.13-.43-.24-.6s-.26-.32-.42-.44-.35-.21-.55-.27-.41-.09-.63-.09c-.4,0-.75.1-1.08.3s-.58.5-.76.89c-.19.39-.28.87-.28,1.43s.09,1.04.28,1.43c.19.39.44.69.76.89s.68.3,1.08.3c.22,0,.43-.03.63-.09s.38-.15.55-.27.31-.26.42-.44c.12-.17.2-.37.24-.6h.79c-.06.33-.17.63-.33.9-.16.26-.35.49-.59.67-.23.18-.5.32-.79.42s-.6.14-.93.14c-.56,0-1.05-.14-1.49-.41s-.78-.66-1.03-1.16-.37-1.1-.37-1.79.12-1.29.37-1.79.59-.89,1.03-1.16.93-.41,1.49-.41c.33,0,.64.05.93.14.29.1.55.24.79.42.23.18.43.41.59.67.16.29.27.59.33.92Z"/>
          <path class="cls-3" d="m71.5,17.65c-.44,0-.83-.11-1.17-.32-.33-.21-.59-.51-.78-.89s-.28-.82-.28-1.33.09-.96.28-1.34.45-.68.78-.89c.33-.21.72-.32,1.17-.32s.83.11,1.17.32.59.51.78.89.28.83.28,1.34-.09.95-.28,1.33c-.19.38-.45.67-.78.89s-.73.32-1.17.32Zm0-.68c.34,0,.61-.09.83-.26s.38-.4.48-.68.16-.59.16-.91-.05-.63-.16-.92-.26-.51-.48-.69-.49-.26-.83-.26-.61.09-.83.26c-.22.17-.38.4-.48.69s-.16.59-.16.92.05.63.16.91.27.51.48.68c.21.17.49.26.83.26Z"/>
          <path class="cls-3" d="m74.87,17.54v-4.91h.73v.74h.05c.09-.24.25-.44.49-.59s.5-.23.79-.23h.21c.09,0,.15.01.19.01v.77s-.08-.02-.17-.03-.19-.02-.29-.02c-.24,0-.45.05-.64.15s-.33.24-.44.41-.16.37-.16.59v3.11h-.76Z"/>
          <path class="cls-3" d="m78.22,17.54v-4.91h.73v.74h.05c.09-.24.25-.44.49-.59s.5-.23.79-.23h.21c.09,0,.15.01.19.01v.77s-.08-.02-.17-.03-.19-.02-.29-.02c-.24,0-.45.05-.64.15s-.33.24-.44.41-.16.37-.16.59v3.11h-.76Z"/>
          <path class="cls-3" d="m81.96,11.82c-.15,0-.27-.05-.38-.15s-.16-.22-.16-.36.05-.26.16-.36c.11-.1.23-.15.38-.15s.27.05.38.15.16.22.16.36-.05.26-.16.36c-.11.1-.24.15-.38.15Zm-.39,5.72v-4.91h.75v4.91h-.75Z"/>
          <path class="cls-3" d="m85.56,17.65c-.41,0-.77-.1-1.08-.31s-.56-.5-.74-.88-.27-.83-.27-1.35.09-.96.27-1.34.42-.67.74-.88.68-.31,1.09-.31c.32,0,.57.05.76.16.19.11.33.22.43.36.1.13.18.24.23.33h.06v-2.42h.75v6.54h-.73v-.75h-.09c-.05.09-.13.2-.24.34-.1.14-.25.26-.44.36s-.42.15-.74.15Zm.1-.68c.3,0,.56-.08.77-.24s.37-.38.48-.66.16-.61.16-.98-.05-.69-.16-.96c-.11-.28-.26-.49-.47-.65s-.47-.23-.77-.23c-.32,0-.59.08-.8.24s-.37.38-.48.66-.16.59-.16.93.05.67.16.95c.11.29.27.51.48.68.21.18.48.26.79.26Z"/>
          <path class="cls-3" d="m91.29,17.65c-.44,0-.83-.11-1.17-.32-.33-.21-.59-.51-.78-.89s-.28-.82-.28-1.33.09-.96.28-1.34.45-.68.78-.89c.33-.21.72-.32,1.17-.32s.83.11,1.17.32.59.51.78.89.28.83.28,1.34-.09.95-.28,1.33c-.19.38-.45.67-.78.89s-.73.32-1.17.32Zm0-.68c.34,0,.61-.09.83-.26s.38-.4.48-.68.16-.59.16-.91-.05-.63-.16-.92-.26-.51-.48-.69-.49-.26-.83-.26-.61.09-.83.26c-.22.17-.38.4-.48.69s-.16.59-.16.92.05.63.16.91.27.51.48.68c.21.17.49.26.83.26Z"/>
          <path class="cls-3" d="m94.66,17.54v-4.91h.73v.74h.05c.09-.24.25-.44.49-.59s.5-.23.79-.23h.21c.09,0,.15.01.19.01v.77s-.08-.02-.17-.03-.19-.02-.29-.02c-.24,0-.45.05-.64.15s-.33.24-.44.41-.16.37-.16.59v3.11h-.76Z"/>
        </g>
        <g>
          <rect class="cls-2" x="106.71" y="8.14" width="30" height="10.21"/>
          <g>
            <rect class="cls-2" x="124.44" y="1.32" width="4.09" height="8.18"/>
            <rect class="cls-2" x="129.89" y="1.32" width="4.09" height="8.18"/>
            <polygon class="cls-2" points="113.53 2.68 113.53 9.5 106.71 9.5 106.71 8.14 113.53 2.68"/>
            <polygon class="cls-2" points="120.35 2.68 120.35 9.5 113.53 9.5 113.53 8.14 120.35 2.68"/>
          </g>
          <g>
            <rect class="cls-1" x="108.07" y="9.73" width="5.93" height="1.91"/>
            <rect class="cls-1" x="115.19" y="9.73" width="5.93" height="1.91"/>
            <rect class="cls-1" x="122.3" y="9.73" width="5.93" height="1.91"/>
            <rect class="cls-1" x="129.42" y="9.73" width="5.93" height="1.91"/>
          </g>
        </g>
      </g>
    </g>
  </g>
</svg>