<?xml version="1.0" encoding="UTF-8"?>
<svg id="Layer_2" data-name="Layer 2" xmlns="http://www.w3.org/2000/svg" viewBox="0 0 152.65 25.02">
  <defs>
    <style>
      .cls-1 {
        letter-spacing: -.08em;
      }

      .cls-2 {
        fill: #fff;
      }

      .cls-3 {
        fill: #666;
        font-family: Inter-Regular, Inter;
        font-size: 10.5px;
        font-variation-settings: 'wght' 400, 'slnt' 0;
      }

      .cls-4 {
        letter-spacing: -.02em;
      }

      .cls-5 {
        letter-spacing: -.02em;
      }

      .cls-6 {
        letter-spacing: -.02em;
      }

      .cls-7 {
        fill: #bd3628;
      }
    </style>
  </defs>
  <g id="Clickable_Factory" data-name="Clickable Factory">
    <g>
      <text class="cls-3" transform="translate(0 9.07)"><tspan x="0" y="0">Ari</tspan><tspan class="cls-4" x="13.5" y="0">z</tspan><tspan x="19.02" y="0">ona Inn</tspan><tspan class="cls-5" x="55.36" y="0">o</tspan><tspan class="cls-6" x="61.42" y="0">v</tspan><tspan x="67.09" y="0">ation and</tspan><tspan class="cls-1" x="11.91" y="12.6">T</tspan><tspan x="17.82" y="12.6">echnology Corridor</tspan></text>
      <g>
        <rect class="cls-7" x="122.65" y="10.46" width="30" height="10.21"/>
        <g>
          <rect class="cls-7" x="140.38" y="3.64" width="4.09" height="8.18"/>
          <rect class="cls-7" x="145.83" y="3.64" width="4.09" height="8.18"/>
          <polygon class="cls-7" points="129.47 5.01 129.47 11.83 122.65 11.83 122.65 10.46 129.47 5.01"/>
          <polygon class="cls-7" points="136.29 5.01 136.29 11.83 129.47 11.83 129.47 10.46 136.29 5.01"/>
        </g>
        <g>
          <rect class="cls-2" x="124.02" y="12.06" width="5.93" height="1.91"/>
          <rect class="cls-2" x="131.13" y="12.06" width="5.93" height="1.91"/>
          <rect class="cls-2" x="138.24" y="12.06" width="5.93" height="1.91"/>
          <rect class="cls-2" x="145.36" y="12.06" width="5.93" height="1.91"/>
        </g>
      </g>
    </g>
  </g>
</svg>