<?xml version="1.0" encoding="utf-8"?>
<!-- Generator: Adobe Illustrator 27.5.0, SVG Export Plug-In . SVG Version: 6.00 Build 0)  -->
<svg version="1.1" xmlns="http://www.w3.org/2000/svg" xmlns:xlink="http://www.w3.org/1999/xlink" x="0px" y="0px"
	 viewBox="0 0 1113 626" style="enable-background:new 0 0 1113 626;" xml:space="preserve">
<style type="text/css">
	.st0{display:none;}
	.st1{display:inline;}
	.st2{fill:#FFFFFF;}
	.st3{fill:#666666;}
	.st4{clip-path:url(#SVGID_00000005236726276192160100000017724880669586364338_);}
	.st5{fill:#999999;}
	.st6{display:inline;fill:#66CCFF;}
	.st7{clip-path:url(#SVGID_00000145746785371983711970000014354493306353593016_);}
	.st8{clip-path:url(#SVGID_00000145764116709170770170000009980859628593714107_);fill:#999999;}
	.st9{clip-path:url(#SVGID_00000133517452491218248330000008440421351476063902_);fill:#999999;}
	.st10{clip-path:url(#SVGID_00000076594610440506437560000015745982225571231417_);}
	.st11{clip-path:url(#SVGID_00000158005766000062852200000003942603346021386139_);}
	.st12{clip-path:url(#SVGID_00000181800319575710463460000008070712197857374607_);}
	.st13{clip-path:url(#SVGID_00000018926972459443016220000007193148567121939584_);}
	.st14{fill:none;stroke:#959595;stroke-width:1.1583;stroke-miterlimit:10;}
	.st15{fill:#B9008B;}
	.st16{fill:none;stroke:#CCCCCC;stroke-width:3.8039;stroke-miterlimit:10;}
	.st17{fill:none;stroke:#CCCCCC;stroke-width:3.8039;stroke-miterlimit:10;stroke-dasharray:2.9656,2.9656;}
	.st18{fill:none;stroke:#CCCCCC;stroke-width:3.8039;stroke-miterlimit:10;stroke-dasharray:2.9547,2.9547;}
	.st19{fill:none;stroke:#CCCCCC;stroke-width:3.8039;stroke-miterlimit:10;stroke-dasharray:2.9572,2.9572;}
	.st20{fill:none;stroke:#E6E6E6;stroke-width:4.4297;stroke-miterlimit:10;}
	.st21{fill:none;stroke:#E6E6E6;stroke-width:3.8039;stroke-miterlimit:10;}
	.st22{fill:none;stroke:#CCCCCC;stroke-width:4.4297;stroke-miterlimit:10;}
	.st23{fill:none;stroke:#E6E6E6;stroke-width:4.8401;stroke-miterlimit:10;}
	.st24{fill:none;stroke:#D00097;stroke-width:4.8401;stroke-miterlimit:10;}
	.st25{fill:none;stroke:#D00097;stroke-width:3.8039;stroke-miterlimit:10;}
	.st26{display:inline;clip-path:url(#SVGID_00000165236516351952532750000009888338521347075215_);fill:#FFFFFF;}
	
		.st27{clip-path:url(#SVGID_00000075145446841590415300000013303157873851739532_);fill-rule:evenodd;clip-rule:evenodd;fill:url(#SVGID_00000114047501399738140470000013985844411300202376_);}
	
		.st28{clip-path:url(#SVGID_00000026152926931117806020000016181544192306221731_);fill-rule:evenodd;clip-rule:evenodd;fill:url(#SVGID_00000140725500312879527500000004353157383185786009_);}
	
		.st29{clip-path:url(#SVGID_00000044881576958940086360000012223827499955148453_);fill-rule:evenodd;clip-rule:evenodd;fill:url(#SVGID_00000176004422932448097780000001210933405231162270_);}
	
		.st30{clip-path:url(#SVGID_00000124873437792775109990000001002737201175712681_);fill-rule:evenodd;clip-rule:evenodd;fill:url(#SVGID_00000102508828389843766990000005350380767489091742_);}
	
		.st31{clip-path:url(#SVGID_00000110431420947733873710000012683296710656759999_);fill-rule:evenodd;clip-rule:evenodd;fill:url(#SVGID_00000134210975578552804020000002811184965999146942_);}
	.st32{clip-path:url(#SVGID_00000181065815513619443510000013106419390842468249_);}
	.st33{fill:#FFFFFF;stroke:#000000;stroke-width:8.350000e-02;stroke-miterlimit:10;}
	.st34{clip-path:url(#SVGID_00000068651024538917373620000007816585362718860210_);}
	.st35{clip-path:url(#SVGID_00000085941454707976653700000001246895747421859242_);}
	.st36{clip-path:url(#SVGID_00000129884606271993825030000006327196514061045435_);}
	.st37{clip-path:url(#SVGID_00000159431917783701349280000014987893983073726887_);}
	.st38{fill:none;stroke:#E0E0E0;stroke-miterlimit:10;}
	.st39{clip-path:url(#SVGID_00000145030714281414443280000003718026151415968676_);}
	.st40{clip-path:url(#SVGID_00000145777270192557618770000010299678412502837693_);}
	.st41{fill:#BD3628;}
	.st42{display:inline;fill:#BD3628;}
	.st43{fill:none;}
	.st44{display:none;clip-path:url(#SVGID_00000084500877866411201880000003991963618516531338_);}
	.st45{display:inline;fill:#FFFFFF;}
	.st46{font-family:'Inter-SemiBold';}
	.st47{font-size:21px;}
	.st48{display:none;fill:none;}
	.st49{display:inline;fill-rule:evenodd;clip-rule:evenodd;fill:#FFFFFF;}
	.st50{display:inline;fill-rule:evenodd;clip-rule:evenodd;fill:#BDBDBD;}
	.st51{fill:#BDBDBD;}
	.st52{fill:#CCCCCC;}
	.st53{display:inline;fill:#BDBDBD;}
	.st54{clip-path:url(#SVGID_00000170252915234512483350000012634843562166602939_);}
	.st55{fill:#FFFFFF;stroke:#000000;stroke-width:7.280000e-02;stroke-miterlimit:10;}
	.st56{fill:none;stroke:#999999;stroke-width:0.7254;stroke-miterlimit:10;}
</style>
<g id="background_00000023280229309624529290000004994136444302760327_" class="st0">
	<g id="background" class="st1">
		<rect x="-21" y="-19" class="st2" width="1152" height="668"/>
	</g>
</g>
<g id="TransmissionText_00000051356811693244622400000011314619263218844076_" class="st0">
	<g id="TransmissionText" class="st1">
		<g>
			<g>
				<g>
					<path class="st3" d="M321.4,187.5v-0.7h4.9v0.7h-2.1v5.8h-0.8v-5.8H321.4z"/>
					<path class="st3" d="M327.4,193.4v-4.9h0.7v0.7h0c0.1-0.2,0.2-0.4,0.5-0.6s0.5-0.2,0.8-0.2c0,0,0.1,0,0.2,0c0.1,0,0.1,0,0.2,0
						v0.8c0,0-0.1,0-0.2,0s-0.2,0-0.3,0c-0.2,0-0.5,0.1-0.6,0.1c-0.2,0.1-0.3,0.2-0.4,0.4c-0.1,0.2-0.2,0.4-0.2,0.6v3.1H327.4z"/>
					<path class="st3" d="M332.2,193.5c-0.3,0-0.6-0.1-0.9-0.2s-0.5-0.3-0.6-0.5c-0.1-0.2-0.2-0.5-0.2-0.8c0-0.3,0.1-0.5,0.2-0.7
						c0.1-0.2,0.3-0.3,0.4-0.4c0.2-0.1,0.4-0.2,0.6-0.2c0.2-0.1,0.5-0.1,0.7-0.1c0.3,0,0.5-0.1,0.7-0.1c0.2,0,0.3-0.1,0.4-0.1
						c0.1-0.1,0.1-0.1,0.1-0.3v0c0-0.3-0.1-0.6-0.3-0.7c-0.2-0.2-0.4-0.3-0.8-0.3c-0.4,0-0.6,0.1-0.9,0.2c-0.2,0.2-0.4,0.3-0.4,0.5
						l-0.7-0.2c0.1-0.3,0.3-0.5,0.5-0.7c0.2-0.2,0.5-0.3,0.7-0.4s0.5-0.1,0.8-0.1c0.2,0,0.3,0,0.5,0.1c0.2,0,0.4,0.1,0.6,0.2
						c0.2,0.1,0.4,0.3,0.5,0.5s0.2,0.5,0.2,0.9v3.2h-0.8v-0.7h0c0,0.1-0.1,0.2-0.3,0.3s-0.3,0.2-0.5,0.3
						C332.8,193.4,332.5,193.5,332.2,193.5z M332.3,192.8c0.3,0,0.5-0.1,0.8-0.2s0.4-0.3,0.5-0.4s0.2-0.4,0.2-0.6v-0.7
						c0,0-0.1,0.1-0.2,0.1s-0.2,0.1-0.4,0.1s-0.3,0-0.4,0.1s-0.2,0-0.3,0c-0.2,0-0.4,0.1-0.5,0.1c-0.2,0.1-0.3,0.1-0.4,0.2
						s-0.1,0.3-0.1,0.5c0,0.3,0.1,0.5,0.3,0.6C331.8,192.7,332,192.8,332.3,192.8z"/>
					<path class="st3" d="M336.6,190.4v2.9h-0.8v-4.9h0.7v0.8h0.1c0.1-0.2,0.3-0.4,0.5-0.6s0.5-0.2,0.9-0.2c0.3,0,0.6,0.1,0.9,0.2
						c0.2,0.1,0.4,0.3,0.6,0.6c0.1,0.3,0.2,0.6,0.2,1v3.1H339v-3.1c0-0.4-0.1-0.7-0.3-0.9c-0.2-0.2-0.5-0.3-0.8-0.3
						c-0.2,0-0.5,0.1-0.6,0.2c-0.2,0.1-0.3,0.3-0.5,0.5S336.6,190.1,336.6,190.4z"/>
					<path class="st3" d="M344.6,189.5l-0.7,0.2c0-0.1-0.1-0.2-0.2-0.3s-0.2-0.2-0.3-0.3s-0.3-0.1-0.5-0.1c-0.3,0-0.5,0.1-0.8,0.2
						s-0.3,0.3-0.3,0.5c0,0.2,0.1,0.3,0.2,0.4c0.1,0.1,0.4,0.2,0.6,0.3l0.7,0.2c0.4,0.1,0.8,0.3,1,0.5c0.2,0.2,0.3,0.5,0.3,0.8
						c0,0.3-0.1,0.5-0.2,0.8s-0.4,0.4-0.7,0.5c-0.3,0.1-0.6,0.2-1,0.2c-0.5,0-0.9-0.1-1.2-0.3c-0.3-0.2-0.5-0.5-0.6-0.9l0.7-0.2
						c0.1,0.3,0.2,0.5,0.4,0.6s0.4,0.2,0.8,0.2c0.4,0,0.6-0.1,0.8-0.2s0.3-0.3,0.3-0.5c0-0.2-0.1-0.3-0.2-0.4s-0.3-0.2-0.5-0.3
						l-0.8-0.2c-0.5-0.1-0.8-0.3-1-0.5s-0.3-0.5-0.3-0.9c0-0.3,0.1-0.5,0.2-0.7s0.4-0.4,0.6-0.5s0.6-0.2,0.9-0.2
						c0.5,0,0.9,0.1,1.1,0.3C344.3,188.9,344.5,189.2,344.6,189.5z"/>
					<path class="st3" d="M345.8,193.4v-4.9h0.7v0.8h0.1c0.1-0.3,0.3-0.5,0.5-0.6c0.2-0.1,0.5-0.2,0.8-0.2s0.6,0.1,0.8,0.2
						s0.4,0.4,0.5,0.6h0c0.1-0.2,0.3-0.5,0.6-0.6c0.2-0.1,0.5-0.2,0.9-0.2c0.4,0,0.8,0.1,1.1,0.4s0.4,0.7,0.4,1.3v3.3h-0.8v-3.3
						c0-0.4-0.1-0.6-0.3-0.8s-0.4-0.2-0.7-0.2c-0.3,0-0.6,0.1-0.8,0.3c-0.2,0.2-0.3,0.5-0.3,0.8v3.2h-0.8V190c0-0.3-0.1-0.5-0.3-0.7
						c-0.2-0.2-0.4-0.3-0.7-0.3c-0.2,0-0.4,0.1-0.5,0.2c-0.2,0.1-0.3,0.2-0.4,0.4s-0.2,0.4-0.2,0.6v3.1L345.8,193.4L345.8,193.4z"/>
					<path class="st3" d="M354,187.6c-0.1,0-0.3-0.1-0.4-0.1c-0.1-0.1-0.2-0.2-0.2-0.4s0-0.3,0.2-0.4c0.1-0.1,0.2-0.1,0.4-0.1
						s0.3,0.1,0.4,0.1c0.1,0.1,0.2,0.2,0.2,0.4s0,0.3-0.2,0.4C354.3,187.6,354.2,187.6,354,187.6z M353.6,193.4v-4.9h0.8v4.9H353.6z
						"/>
					<path class="st3" d="M359.3,189.5l-0.7,0.2c0-0.1-0.1-0.2-0.2-0.3s-0.2-0.2-0.3-0.3s-0.3-0.1-0.5-0.1c-0.3,0-0.5,0.1-0.8,0.2
						s-0.3,0.3-0.3,0.5c0,0.2,0.1,0.3,0.2,0.4c0.1,0.1,0.4,0.2,0.6,0.3l0.7,0.2c0.4,0.1,0.8,0.3,1,0.5c0.2,0.2,0.3,0.5,0.3,0.8
						c0,0.3-0.1,0.5-0.2,0.8s-0.4,0.4-0.7,0.5c-0.3,0.1-0.6,0.2-1,0.2c-0.5,0-0.9-0.1-1.2-0.3c-0.3-0.2-0.5-0.5-0.6-0.9l0.7-0.2
						c0.1,0.3,0.2,0.5,0.4,0.6s0.4,0.2,0.8,0.2c0.4,0,0.6-0.1,0.8-0.2s0.3-0.3,0.3-0.5c0-0.2-0.1-0.3-0.2-0.4s-0.3-0.2-0.5-0.3
						l-0.8-0.2c-0.5-0.1-0.8-0.3-1-0.5s-0.3-0.5-0.3-0.9c0-0.3,0.1-0.5,0.2-0.7s0.4-0.4,0.6-0.5s0.6-0.2,0.9-0.2
						c0.5,0,0.9,0.1,1.1,0.3C358.9,188.9,359.1,189.2,359.3,189.5z"/>
					<path class="st3" d="M364,189.5l-0.7,0.2c0-0.1-0.1-0.2-0.2-0.3s-0.2-0.2-0.3-0.3s-0.3-0.1-0.5-0.1c-0.3,0-0.5,0.1-0.8,0.2
						s-0.3,0.3-0.3,0.5c0,0.2,0.1,0.3,0.2,0.4c0.1,0.1,0.4,0.2,0.6,0.3l0.7,0.2c0.4,0.1,0.8,0.3,1,0.5c0.2,0.2,0.3,0.5,0.3,0.8
						c0,0.3-0.1,0.5-0.2,0.8s-0.4,0.4-0.7,0.5c-0.3,0.1-0.6,0.2-1,0.2c-0.5,0-0.9-0.1-1.2-0.3c-0.3-0.2-0.5-0.5-0.6-0.9l0.7-0.2
						c0.1,0.3,0.2,0.5,0.4,0.6s0.4,0.2,0.8,0.2c0.4,0,0.6-0.1,0.8-0.2s0.3-0.3,0.3-0.5c0-0.2-0.1-0.3-0.2-0.4s-0.3-0.2-0.5-0.3
						l-0.8-0.2c-0.5-0.1-0.8-0.3-1-0.5s-0.3-0.5-0.3-0.9c0-0.3,0.1-0.5,0.2-0.7s0.4-0.4,0.6-0.5s0.6-0.2,0.9-0.2
						c0.5,0,0.9,0.1,1.1,0.3C363.6,188.9,363.9,189.2,364,189.5z"/>
					<path class="st3" d="M365.6,187.6c-0.1,0-0.3-0.1-0.4-0.1c-0.1-0.1-0.2-0.2-0.2-0.4s0-0.3,0.2-0.4c0.1-0.1,0.2-0.1,0.4-0.1
						s0.3,0.1,0.4,0.1c0.1,0.1,0.2,0.2,0.2,0.4s0,0.3-0.2,0.4C365.9,187.6,365.7,187.6,365.6,187.6z M365.2,193.4v-4.9h0.8v4.9
						H365.2z"/>
					<path class="st3" d="M369.3,193.4c-0.4,0-0.8-0.1-1.2-0.3c-0.3-0.2-0.6-0.5-0.8-0.9s-0.3-0.8-0.3-1.3s0.1-1,0.3-1.3
						c0.2-0.4,0.5-0.7,0.8-0.9s0.7-0.3,1.2-0.3s0.8,0.1,1.2,0.3s0.6,0.5,0.8,0.9s0.3,0.8,0.3,1.3s-0.1,0.9-0.3,1.3s-0.5,0.7-0.8,0.9
						S369.8,193.4,369.3,193.4z M369.3,192.8c0.3,0,0.6-0.1,0.8-0.3s0.4-0.4,0.5-0.7s0.2-0.6,0.2-0.9c0-0.3,0-0.6-0.2-0.9
						s-0.3-0.5-0.5-0.7c-0.2-0.2-0.5-0.3-0.8-0.3s-0.6,0.1-0.8,0.3s-0.4,0.4-0.5,0.7s-0.2,0.6-0.2,0.9s0,0.6,0.2,0.9
						s0.3,0.5,0.5,0.7C368.7,192.7,369,192.8,369.3,192.8z"/>
					<path class="st3" d="M373.5,190.4v2.9h-0.8v-4.9h0.7v0.8h0.1c0.1-0.2,0.3-0.4,0.5-0.6s0.5-0.2,0.9-0.2c0.3,0,0.6,0.1,0.9,0.2
						c0.2,0.1,0.4,0.3,0.6,0.6c0.1,0.3,0.2,0.6,0.2,1v3.1h-0.8v-3.1c0-0.4-0.1-0.7-0.3-0.9c-0.2-0.2-0.5-0.3-0.8-0.3
						c-0.2,0-0.5,0.1-0.6,0.2c-0.2,0.1-0.3,0.3-0.5,0.5S373.5,190.1,373.5,190.4z"/>
					<path class="st3" d="M380.6,193.4v-6.6h0.8v5.8h3v0.7L380.6,193.4L380.6,193.4z"/>
					<path class="st3" d="M385.9,187.6c-0.1,0-0.3-0.1-0.4-0.1c-0.1-0.1-0.2-0.2-0.2-0.4s0-0.3,0.2-0.4c0.1-0.1,0.2-0.1,0.4-0.1
						s0.3,0.1,0.4,0.1c0.1,0.1,0.2,0.2,0.2,0.4s0,0.3-0.2,0.4C386.2,187.6,386.1,187.6,385.9,187.6z M385.5,193.4v-4.9h0.8v4.9
						H385.5z"/>
					<path class="st3" d="M388.4,190.4v2.9h-0.8v-4.9h0.7v0.8h0.1c0.1-0.2,0.3-0.4,0.5-0.6s0.5-0.2,0.9-0.2c0.3,0,0.6,0.1,0.9,0.2
						c0.2,0.1,0.4,0.3,0.6,0.6c0.1,0.3,0.2,0.6,0.2,1v3.1h-0.8v-3.1c0-0.4-0.1-0.7-0.3-0.9c-0.2-0.2-0.5-0.3-0.8-0.3
						c-0.2,0-0.5,0.1-0.6,0.2c-0.2,0.1-0.3,0.3-0.5,0.5S388.4,190.1,388.4,190.4z"/>
					<path class="st3" d="M395,193.4c-0.5,0-0.9-0.1-1.2-0.3s-0.6-0.5-0.8-0.9c-0.2-0.4-0.3-0.8-0.3-1.3s0.1-0.9,0.3-1.3
						c0.2-0.4,0.4-0.7,0.8-0.9s0.7-0.3,1.2-0.3c0.3,0,0.5,0,0.8,0.1c0.2,0.1,0.5,0.2,0.7,0.4c0.2,0.2,0.4,0.4,0.5,0.8
						c0.1,0.3,0.2,0.7,0.2,1.2v0.3h-3.8v-0.6h3c0-0.3-0.1-0.5-0.2-0.7c-0.1-0.2-0.3-0.4-0.5-0.5s-0.4-0.2-0.7-0.2
						c-0.3,0-0.6,0.1-0.8,0.2s-0.4,0.3-0.5,0.6c-0.1,0.2-0.2,0.5-0.2,0.8v0.4c0,0.4,0.1,0.7,0.2,0.9s0.3,0.4,0.5,0.6
						s0.5,0.2,0.8,0.2c0.2,0,0.4,0,0.5-0.1s0.3-0.1,0.4-0.3s0.2-0.3,0.3-0.4l0.7,0.2c-0.1,0.2-0.2,0.5-0.4,0.6
						c-0.2,0.2-0.4,0.3-0.7,0.4S395.4,193.4,395,193.4z"/>
					<path class="st3" d="M401.7,189.5l-0.7,0.2c0-0.1-0.1-0.2-0.2-0.3s-0.2-0.2-0.3-0.3s-0.3-0.1-0.5-0.1c-0.3,0-0.5,0.1-0.8,0.2
						s-0.3,0.3-0.3,0.5c0,0.2,0.1,0.3,0.2,0.4c0.1,0.1,0.4,0.2,0.6,0.3l0.7,0.2c0.4,0.1,0.8,0.3,1,0.5c0.2,0.2,0.3,0.5,0.3,0.8
						c0,0.3-0.1,0.5-0.2,0.8s-0.4,0.4-0.7,0.5c-0.3,0.1-0.6,0.2-1,0.2c-0.5,0-0.9-0.1-1.2-0.3c-0.3-0.2-0.5-0.5-0.6-0.9l0.7-0.2
						c0.1,0.3,0.2,0.5,0.4,0.6s0.4,0.2,0.8,0.2c0.4,0,0.6-0.1,0.8-0.2s0.3-0.3,0.3-0.5c0-0.2-0.1-0.3-0.2-0.4s-0.3-0.2-0.5-0.3
						l-0.8-0.2c-0.5-0.1-0.8-0.3-1-0.5s-0.3-0.5-0.3-0.9c0-0.3,0.1-0.5,0.2-0.7s0.4-0.4,0.6-0.5s0.6-0.2,0.9-0.2
						c0.5,0,0.9,0.1,1.1,0.3C401.4,188.9,401.6,189.2,401.7,189.5z"/>
				</g>
			</g>
		</g>
	</g>
</g>
<g id="Airport_00000003096855848392168890000000608679407709813434_" class="st0">
	<g id="Airport" class="st1">
		<g>
			<g>
				<defs>
					<rect id="SVGID_1_" x="98.4" y="47" width="913.9" height="514"/>
				</defs>
				<clipPath id="SVGID_00000048490077877400893830000018018001970692031126_">
					<use xlink:href="#SVGID_1_"  style="overflow:visible;"/>
				</clipPath>
				<g style="clip-path:url(#SVGID_00000048490077877400893830000018018001970692031126_);">
					<g>
						<g>
							<path class="st5" d="M735.7,171.9l-0.9-0.6v-1.2c0-1.2-1.8-1.1-1.7,0.1l-1.1-0.7c0-1.1,0.6-7-1.6-7.1c-2.2,0.1-1.7,6-1.6,7.1
								l-1.1,0.7c0.1-1.2-1.7-1.3-1.7-0.1v1.2l-0.9,0.6c-0.1-1.1-1.7-1-1.7,0.1v1l-1.6,1c-0.1,0.1-0.2,0.2-0.2,0.3v1.9
								c0,0.2,0.2,0.4,0.5,0.3l6.8-2.4l0.2,5.1l-2.4,2c-0.1,0.1-0.1,0.2-0.1,0.3v1.2c0,0.2,0.2,0.4,0.5,0.3l3.5-1.1l3.5,1.1
								c0.2,0.1,0.5-0.1,0.5-0.3v-1.2c0-0.1,0-0.2-0.1-0.3l-2.4-2l0.2-5.1l6.8,2.4c0.2,0.1,0.5-0.1,0.5-0.3v-1.9
								c0-0.1-0.1-0.2-0.2-0.3l-1.6-1v-1C737.3,170.9,735.8,170.8,735.7,171.9L735.7,171.9z"/>
						</g>
					</g>
					<g>
						<g>
							<g>
								<path class="st3" d="M663.9,165h-0.8c0-0.2-0.1-0.4-0.2-0.6c-0.1-0.2-0.3-0.3-0.4-0.4s-0.3-0.2-0.5-0.3s-0.4-0.1-0.6-0.1
									c-0.4,0-0.8,0.1-1.1,0.3c-0.3,0.2-0.6,0.5-0.8,0.9c-0.2,0.4-0.3,0.9-0.3,1.4c0,0.6,0.1,1.1,0.3,1.4s0.4,0.7,0.8,0.9
									s0.7,0.3,1.1,0.3c0.2,0,0.4,0,0.6-0.1s0.4-0.1,0.5-0.3s0.3-0.3,0.4-0.4c0.1-0.2,0.2-0.4,0.2-0.6h0.8
									c-0.1,0.3-0.2,0.6-0.3,0.9c-0.2,0.3-0.3,0.5-0.6,0.7s-0.5,0.3-0.8,0.4c-0.3,0.1-0.6,0.1-0.9,0.1c-0.6,0-1-0.1-1.5-0.4
									c-0.4-0.3-0.8-0.7-1-1.2s-0.4-1.1-0.4-1.8c0-0.7,0.1-1.3,0.4-1.8s0.6-0.9,1-1.2c0.4-0.3,0.9-0.4,1.5-0.4
									c0.3,0,0.6,0.1,0.9,0.1c0.3,0.1,0.5,0.2,0.8,0.4s0.4,0.4,0.6,0.7C663.8,164.4,663.9,164.7,663.9,165z"/>
								<path class="st3" d="M666.6,169.6c-0.3,0-0.6-0.1-0.8-0.2c-0.2-0.1-0.5-0.3-0.6-0.5c-0.2-0.2-0.2-0.5-0.2-0.8
									c0-0.3,0.1-0.5,0.2-0.7c0.1-0.2,0.3-0.3,0.4-0.4c0.2-0.1,0.4-0.2,0.6-0.2s0.5-0.1,0.7-0.1c0.3,0,0.5-0.1,0.7-0.1
									c0.2,0,0.3-0.1,0.4-0.1c0.1-0.1,0.1-0.1,0.1-0.3v0c0-0.3-0.1-0.6-0.3-0.7c-0.2-0.2-0.4-0.3-0.8-0.3c-0.4,0-0.6,0.1-0.8,0.2
									c-0.2,0.2-0.3,0.3-0.4,0.5l-0.7-0.3c0.1-0.3,0.3-0.5,0.5-0.7s0.5-0.3,0.7-0.4s0.5-0.1,0.8-0.1c0.2,0,0.3,0,0.5,0.1
									c0.2,0,0.4,0.1,0.6,0.2c0.2,0.1,0.3,0.3,0.5,0.5c0.1,0.2,0.2,0.5,0.2,0.9v3.2H668v-0.7h0c0,0.1-0.1,0.2-0.3,0.3
									s-0.3,0.2-0.5,0.3C667.1,169.6,666.8,169.6,666.6,169.6z M666.7,169c0.3,0,0.5-0.1,0.8-0.2s0.4-0.3,0.5-0.4
									c0.1-0.2,0.2-0.4,0.2-0.6v-0.7c0,0-0.1,0.1-0.2,0.1c-0.1,0-0.2,0.1-0.4,0.1s-0.3,0-0.4,0.1s-0.2,0-0.3,0
									c-0.2,0-0.4,0.1-0.5,0.1c-0.2,0.1-0.3,0.1-0.4,0.2s-0.2,0.3-0.2,0.5c0,0.3,0.1,0.5,0.3,0.6S666.4,169,666.7,169z"/>
								<path class="st3" d="M673.7,165.7l-0.7,0.2c0-0.1-0.1-0.2-0.2-0.3s-0.2-0.2-0.3-0.3s-0.3-0.1-0.5-0.1
									c-0.3,0-0.5,0.1-0.8,0.2s-0.3,0.3-0.3,0.5c0,0.2,0.1,0.3,0.2,0.4c0.1,0.1,0.3,0.2,0.6,0.3l0.7,0.2c0.4,0.1,0.8,0.3,1,0.5
									c0.2,0.2,0.3,0.5,0.3,0.8c0,0.3-0.1,0.5-0.2,0.8s-0.4,0.4-0.7,0.5c-0.3,0.1-0.6,0.2-1,0.2c-0.5,0-0.9-0.1-1.2-0.3
									s-0.5-0.5-0.6-0.9l0.7-0.2c0.1,0.3,0.2,0.5,0.4,0.6c0.2,0.1,0.4,0.2,0.8,0.2c0.3,0,0.6-0.1,0.8-0.2s0.3-0.3,0.3-0.5
									c0-0.2-0.1-0.3-0.2-0.4s-0.3-0.2-0.5-0.3l-0.8-0.2c-0.5-0.1-0.8-0.3-1-0.5c-0.2-0.2-0.3-0.5-0.3-0.9c0-0.3,0.1-0.5,0.2-0.7
									s0.4-0.4,0.6-0.5s0.6-0.2,0.9-0.2c0.5,0,0.9,0.1,1.2,0.3C673.4,165.1,673.6,165.4,673.7,165.7z"/>
								<path class="st3" d="M676.3,169.6c-0.3,0-0.6-0.1-0.8-0.2c-0.2-0.1-0.5-0.3-0.6-0.5c-0.2-0.2-0.2-0.5-0.2-0.8
									c0-0.3,0.1-0.5,0.2-0.7c0.1-0.2,0.3-0.3,0.4-0.4c0.2-0.1,0.4-0.2,0.6-0.2s0.5-0.1,0.7-0.1c0.3,0,0.5-0.1,0.7-0.1
									c0.2,0,0.3-0.1,0.4-0.1c0.1-0.1,0.1-0.1,0.1-0.3v0c0-0.3-0.1-0.6-0.3-0.7c-0.2-0.2-0.4-0.3-0.8-0.3c-0.4,0-0.6,0.1-0.8,0.2
									c-0.2,0.2-0.3,0.3-0.4,0.5l-0.7-0.3c0.1-0.3,0.3-0.5,0.5-0.7s0.5-0.3,0.7-0.4s0.5-0.1,0.8-0.1c0.2,0,0.3,0,0.5,0.1
									c0.2,0,0.4,0.1,0.6,0.2c0.2,0.1,0.3,0.3,0.5,0.5c0.1,0.2,0.2,0.5,0.2,0.9v3.2h-0.8v-0.7h0c0,0.1-0.1,0.2-0.3,0.3
									s-0.3,0.2-0.5,0.3C676.9,169.6,676.6,169.6,676.3,169.6z M676.5,169c0.3,0,0.5-0.1,0.8-0.2s0.4-0.3,0.5-0.4
									c0.1-0.2,0.2-0.4,0.2-0.6v-0.7c0,0-0.1,0.1-0.2,0.1c-0.1,0-0.2,0.1-0.4,0.1s-0.3,0-0.4,0.1s-0.2,0-0.3,0
									c-0.2,0-0.4,0.1-0.5,0.1c-0.2,0.1-0.3,0.1-0.4,0.2s-0.2,0.3-0.2,0.5c0,0.3,0.1,0.5,0.3,0.6S676.2,169,676.5,169z"/>
								<path class="st3" d="M687.1,165c-0.1-0.2-0.2-0.4-0.3-0.6c-0.1-0.2-0.2-0.3-0.4-0.4s-0.3-0.2-0.5-0.3
									c-0.2-0.1-0.4-0.1-0.7-0.1c-0.4,0-0.7,0.1-1.1,0.3s-0.6,0.5-0.8,0.9s-0.3,0.9-0.3,1.4c0,0.6,0.1,1.1,0.3,1.4
									c0.2,0.4,0.5,0.7,0.8,0.9s0.7,0.3,1.1,0.3c0.4,0,0.7-0.1,1-0.2c0.3-0.2,0.5-0.4,0.7-0.7c0.2-0.3,0.2-0.6,0.2-1l0.2,0.1h-2
									v-0.7h2.5v0.7c0,0.5-0.1,1-0.3,1.4c-0.2,0.4-0.5,0.7-1,0.9c-0.4,0.2-0.9,0.3-1.4,0.3c-0.6,0-1.1-0.1-1.5-0.4s-0.8-0.7-1-1.2
									s-0.4-1.1-0.4-1.8c0-0.5,0.1-1,0.2-1.4s0.3-0.8,0.6-1.1s0.6-0.5,0.9-0.7c0.3-0.2,0.7-0.2,1.2-0.2c0.3,0,0.7,0.1,1,0.1
									c0.3,0.1,0.6,0.2,0.8,0.4s0.4,0.4,0.6,0.7c0.2,0.3,0.3,0.6,0.3,0.9L687.1,165L687.1,165z"/>
								<path class="st3" d="M689.2,169.5v-4.9h0.7v0.7h0c0.1-0.2,0.2-0.4,0.5-0.6s0.5-0.2,0.8-0.2c0,0,0.1,0,0.2,0
									c0.1,0,0.2,0,0.2,0v0.8c0,0-0.1,0-0.2,0s-0.2,0-0.3,0c-0.2,0-0.5,0.1-0.6,0.1s-0.3,0.2-0.4,0.4s-0.2,0.4-0.2,0.6v3.1H689.2z
									"/>
								<path class="st3" d="M694,169.6c-0.3,0-0.6-0.1-0.8-0.2c-0.2-0.1-0.5-0.3-0.6-0.5c-0.2-0.2-0.2-0.5-0.2-0.8
									c0-0.3,0.1-0.5,0.2-0.7c0.1-0.2,0.3-0.3,0.4-0.4c0.2-0.1,0.4-0.2,0.6-0.2s0.5-0.1,0.7-0.1c0.3,0,0.5-0.1,0.7-0.1
									c0.2,0,0.3-0.1,0.4-0.1c0.1-0.1,0.1-0.1,0.1-0.3v0c0-0.3-0.1-0.6-0.3-0.7c-0.2-0.2-0.4-0.3-0.8-0.3c-0.4,0-0.6,0.1-0.8,0.2
									c-0.2,0.2-0.3,0.3-0.4,0.5l-0.7-0.3c0.1-0.3,0.3-0.5,0.5-0.7s0.5-0.3,0.7-0.4s0.5-0.1,0.8-0.1c0.2,0,0.3,0,0.5,0.1
									c0.2,0,0.4,0.1,0.6,0.2c0.2,0.1,0.3,0.3,0.5,0.5c0.1,0.2,0.2,0.5,0.2,0.9v3.2h-0.8v-0.7h0c0,0.1-0.1,0.2-0.3,0.3
									s-0.3,0.2-0.5,0.3C694.5,169.6,694.3,169.6,694,169.6z M694.1,169c0.3,0,0.5-0.1,0.8-0.2s0.4-0.3,0.5-0.4
									c0.1-0.2,0.2-0.4,0.2-0.6v-0.7c0,0-0.1,0.1-0.2,0.1c-0.1,0-0.2,0.1-0.4,0.1s-0.3,0-0.4,0.1s-0.2,0-0.3,0
									c-0.2,0-0.4,0.1-0.5,0.1c-0.2,0.1-0.3,0.1-0.4,0.2s-0.2,0.3-0.2,0.5c0,0.3,0.1,0.5,0.3,0.6S693.8,169,694.1,169z"/>
								<path class="st3" d="M698.4,166.6v2.9h-0.8v-4.9h0.7v0.8h0.1c0.1-0.2,0.3-0.4,0.5-0.6s0.5-0.2,0.9-0.2
									c0.3,0,0.6,0.1,0.9,0.2s0.4,0.3,0.6,0.6s0.2,0.6,0.2,1v3.1h-0.8v-3.1c0-0.4-0.1-0.7-0.3-0.9c-0.2-0.2-0.5-0.3-0.8-0.3
									c-0.2,0-0.5,0.1-0.6,0.2c-0.2,0.1-0.3,0.3-0.5,0.5S698.4,166.3,698.4,166.6z"/>
								<path class="st3" d="M704.7,169.6c-0.4,0-0.8-0.1-1.1-0.3c-0.3-0.2-0.6-0.5-0.7-0.9s-0.3-0.8-0.3-1.4s0.1-1,0.3-1.3
									c0.2-0.4,0.4-0.7,0.7-0.9s0.7-0.3,1.1-0.3c0.3,0,0.6,0.1,0.8,0.2s0.3,0.2,0.4,0.4s0.2,0.2,0.2,0.3h0.1V163h0.8v6.6h-0.7
									v-0.8h-0.1c0,0.1-0.1,0.2-0.2,0.3s-0.2,0.3-0.4,0.4S705,169.6,704.7,169.6z M704.8,168.9c0.3,0,0.6-0.1,0.8-0.2
									s0.4-0.4,0.5-0.7s0.2-0.6,0.2-1s0-0.7-0.2-1s-0.3-0.5-0.5-0.6c-0.2-0.1-0.5-0.2-0.8-0.2c-0.3,0-0.6,0.1-0.8,0.2
									c-0.2,0.2-0.4,0.4-0.5,0.7s-0.2,0.6-0.2,0.9c0,0.4,0,0.7,0.2,0.9s0.3,0.5,0.5,0.7S704.5,168.9,704.8,168.9z"/>
								<path class="st3" d="M710.5,169.6c-0.5,0-0.9-0.1-1.2-0.3s-0.6-0.5-0.8-0.9s-0.3-0.8-0.3-1.3s0.1-0.9,0.3-1.3
									c0.2-0.4,0.4-0.7,0.8-0.9s0.7-0.3,1.2-0.3c0.3,0,0.5,0,0.8,0.1c0.2,0.1,0.5,0.2,0.7,0.4s0.4,0.4,0.5,0.8
									c0.1,0.3,0.2,0.7,0.2,1.2v0.3h-3.8v-0.6h3c0-0.3-0.1-0.5-0.2-0.7s-0.3-0.4-0.5-0.5c-0.2-0.1-0.4-0.2-0.7-0.2
									c-0.3,0-0.6,0.1-0.8,0.2s-0.4,0.3-0.5,0.6c-0.1,0.2-0.2,0.5-0.2,0.8v0.4c0,0.4,0.1,0.7,0.2,0.9s0.3,0.4,0.5,0.6
									s0.5,0.2,0.8,0.2c0.2,0,0.4,0,0.5-0.1c0.2-0.1,0.3-0.1,0.4-0.3c0.1-0.1,0.2-0.3,0.3-0.4l0.7,0.2c-0.1,0.2-0.2,0.5-0.4,0.6
									c-0.2,0.2-0.4,0.3-0.7,0.4S710.9,169.6,710.5,169.6z"/>
								<path class="st3" d="M641.8,173.8h1l2.2,5.4h0.1l2.2-5.4h1v6.6h-0.7v-5h-0.1l-2,5h-0.7l-2-5h-0.1v5h-0.7L641.8,173.8
									L641.8,173.8z"/>
								<path class="st3" d="M652.8,178.3v-2.9h0.8v4.9h-0.8v-0.8h0c-0.1,0.2-0.3,0.5-0.5,0.6c-0.2,0.2-0.5,0.3-0.9,0.3
									c-0.3,0-0.6-0.1-0.8-0.2c-0.2-0.1-0.4-0.3-0.6-0.6c-0.1-0.3-0.2-0.6-0.2-1v-3.1h0.8v3.1c0,0.4,0.1,0.6,0.3,0.9
									c0.2,0.2,0.5,0.3,0.8,0.3c0.2,0,0.4-0.1,0.6-0.1c0.2-0.1,0.4-0.2,0.5-0.4C652.7,178.9,652.8,178.6,652.8,178.3z"/>
								<path class="st3" d="M655.6,177.4v2.9h-0.8v-4.9h0.7v0.8h0.1c0.1-0.2,0.3-0.4,0.5-0.6s0.5-0.2,0.9-0.2
									c0.3,0,0.6,0.1,0.9,0.2s0.4,0.3,0.6,0.6s0.2,0.6,0.2,1v3.1H658v-3.1c0-0.4-0.1-0.7-0.3-0.9c-0.2-0.2-0.5-0.3-0.8-0.3
									c-0.2,0-0.5,0.1-0.6,0.2c-0.2,0.1-0.3,0.3-0.5,0.5S655.6,177.1,655.6,177.4z"/>
								<path class="st3" d="M660.5,174.6c-0.2,0-0.3-0.1-0.4-0.1s-0.2-0.2-0.2-0.4s0-0.3,0.2-0.4s0.2-0.1,0.4-0.1s0.3,0.1,0.4,0.1
									s0.2,0.2,0.2,0.4s0,0.3-0.2,0.4S660.7,174.6,660.5,174.6z M660.2,180.3v-4.9h0.8v4.9H660.2z"/>
								<path class="st3" d="M664.3,180.4c-0.5,0-0.9-0.1-1.2-0.3s-0.6-0.5-0.8-0.9c-0.2-0.4-0.3-0.8-0.3-1.3c0-0.5,0.1-0.9,0.3-1.3
									c0.2-0.4,0.4-0.7,0.8-0.9s0.7-0.3,1.2-0.3c0.3,0,0.7,0.1,0.9,0.2c0.3,0.1,0.5,0.3,0.7,0.5s0.3,0.5,0.3,0.8h-0.8
									c-0.1-0.2-0.2-0.4-0.4-0.6c-0.2-0.2-0.5-0.3-0.8-0.3c-0.3,0-0.5,0.1-0.8,0.2s-0.4,0.4-0.5,0.6c-0.1,0.3-0.2,0.6-0.2,1
									c0,0.4,0.1,0.7,0.2,1s0.3,0.5,0.5,0.7c0.2,0.2,0.5,0.2,0.8,0.2c0.2,0,0.4,0,0.5-0.1c0.2-0.1,0.3-0.2,0.4-0.3
									c0.1-0.1,0.2-0.3,0.2-0.5h0.8c0,0.3-0.2,0.6-0.3,0.8s-0.4,0.4-0.7,0.6S664.6,180.4,664.3,180.4z"/>
								<path class="st3" d="M667.7,174.6c-0.2,0-0.3-0.1-0.4-0.1s-0.2-0.2-0.2-0.4s0-0.3,0.2-0.4s0.2-0.1,0.4-0.1s0.3,0.1,0.4,0.1
									s0.2,0.2,0.2,0.4s0,0.3-0.2,0.4S667.8,174.6,667.7,174.6z M667.3,180.3v-4.9h0.8v4.9H667.3z"/>
								<path class="st3" d="M669.4,182.2v-6.8h0.7v0.8h0.1c0-0.1,0.1-0.2,0.2-0.3c0.1-0.1,0.2-0.2,0.4-0.4s0.4-0.2,0.8-0.2
									c0.4,0,0.8,0.1,1.1,0.3s0.6,0.5,0.7,0.9s0.3,0.8,0.3,1.3c0,0.5-0.1,1-0.3,1.4s-0.4,0.7-0.7,0.9c-0.3,0.2-0.7,0.3-1.1,0.3
									c-0.3,0-0.6-0.1-0.8-0.2s-0.3-0.2-0.4-0.4s-0.2-0.2-0.2-0.3h-0.1v2.6L669.4,182.2L669.4,182.2z M670.2,177.9
									c0,0.4,0,0.7,0.2,1s0.3,0.5,0.5,0.7s0.5,0.2,0.8,0.2c0.3,0,0.6-0.1,0.8-0.2s0.4-0.4,0.5-0.7c0.1-0.3,0.2-0.6,0.2-0.9
									c0-0.4,0-0.7-0.2-0.9c-0.1-0.3-0.3-0.5-0.5-0.7c-0.2-0.2-0.5-0.2-0.8-0.2c-0.3,0-0.6,0.1-0.8,0.2s-0.4,0.4-0.5,0.6
									S670.2,177.5,670.2,177.9z"/>
								<path class="st3" d="M676.4,180.4c-0.3,0-0.6-0.1-0.8-0.2c-0.2-0.1-0.5-0.3-0.6-0.5c-0.2-0.2-0.2-0.5-0.2-0.8
									c0-0.3,0.1-0.5,0.2-0.7c0.1-0.2,0.3-0.3,0.4-0.4c0.2-0.1,0.4-0.2,0.6-0.2s0.5-0.1,0.7-0.1c0.3,0,0.5-0.1,0.7-0.1
									c0.2,0,0.3-0.1,0.4-0.1c0.1-0.1,0.1-0.1,0.1-0.3v0c0-0.3-0.1-0.6-0.3-0.7c-0.2-0.2-0.4-0.3-0.8-0.3c-0.4,0-0.6,0.1-0.8,0.2
									c-0.2,0.2-0.3,0.3-0.4,0.5l-0.7-0.3c0.1-0.3,0.3-0.5,0.5-0.7s0.5-0.3,0.7-0.4s0.5-0.1,0.8-0.1c0.2,0,0.3,0,0.5,0.1
									c0.2,0,0.4,0.1,0.6,0.2c0.2,0.1,0.3,0.3,0.5,0.5c0.1,0.2,0.2,0.5,0.2,0.9v3.2h-0.8v-0.7h0c0,0.1-0.1,0.2-0.3,0.3
									s-0.3,0.2-0.5,0.3C676.9,180.4,676.7,180.4,676.4,180.4z M676.5,179.8c0.3,0,0.5-0.1,0.8-0.2s0.4-0.3,0.5-0.4
									c0.1-0.2,0.2-0.4,0.2-0.6v-0.7c0,0-0.1,0.1-0.2,0.1c-0.1,0-0.2,0.1-0.4,0.1s-0.3,0-0.4,0.1s-0.2,0-0.3,0
									c-0.2,0-0.4,0.1-0.5,0.1c-0.2,0.1-0.3,0.1-0.4,0.2s-0.2,0.3-0.2,0.5c0,0.3,0.1,0.5,0.3,0.6S676.2,179.8,676.5,179.8z"/>
								<path class="st3" d="M680.8,173.8v6.6H680v-6.6H680.8z"/>
								<path class="st3" d="M685,180.3h-0.8l2.4-6.6h0.8l2.4,6.6H689l-2-5.5h0L685,180.3z M685.3,177.8h3.3v0.7h-3.3V177.8z"/>
								<path class="st3" d="M691.1,174.6c-0.2,0-0.3-0.1-0.4-0.1s-0.2-0.2-0.2-0.4s0-0.3,0.2-0.4s0.2-0.1,0.4-0.1s0.3,0.1,0.4,0.1
									s0.2,0.2,0.2,0.4s0,0.3-0.2,0.4S691.3,174.6,691.1,174.6z M690.8,180.3v-4.9h0.8v4.9H690.8z"/>
								<path class="st3" d="M692.9,180.3v-4.9h0.7v0.7h0c0.1-0.2,0.2-0.4,0.5-0.6s0.5-0.2,0.8-0.2c0,0,0.1,0,0.2,0
									c0.1,0,0.2,0,0.2,0v0.8c0,0-0.1,0-0.2,0s-0.2,0-0.3,0c-0.2,0-0.5,0.1-0.6,0.1s-0.3,0.2-0.4,0.4s-0.2,0.4-0.2,0.6v3.1H692.9z
									"/>
								<path class="st3" d="M696.2,182.2v-6.8h0.7v0.8h0.1c0-0.1,0.1-0.2,0.2-0.3c0.1-0.1,0.2-0.2,0.4-0.4s0.4-0.2,0.8-0.2
									c0.4,0,0.8,0.1,1.1,0.3s0.6,0.5,0.7,0.9s0.3,0.8,0.3,1.3c0,0.5-0.1,1-0.3,1.4s-0.4,0.7-0.7,0.9c-0.3,0.2-0.7,0.3-1.1,0.3
									c-0.3,0-0.6-0.1-0.8-0.2s-0.3-0.2-0.4-0.4s-0.2-0.2-0.2-0.3H697v2.6L696.2,182.2L696.2,182.2z M697,177.9c0,0.4,0,0.7,0.2,1
									s0.3,0.5,0.5,0.7s0.5,0.2,0.8,0.2c0.3,0,0.6-0.1,0.8-0.2s0.4-0.4,0.5-0.7c0.1-0.3,0.2-0.6,0.2-0.9c0-0.4,0-0.7-0.2-0.9
									c-0.1-0.3-0.3-0.5-0.5-0.7c-0.2-0.2-0.5-0.2-0.8-0.2c-0.3,0-0.6,0.1-0.8,0.2s-0.4,0.4-0.5,0.6S697,177.5,697,177.9z"/>
								<path class="st3" d="M703.7,180.4c-0.4,0-0.8-0.1-1.2-0.3c-0.3-0.2-0.6-0.5-0.8-0.9s-0.3-0.8-0.3-1.3s0.1-1,0.3-1.3
									s0.5-0.7,0.8-0.9s0.7-0.3,1.2-0.3s0.8,0.1,1.2,0.3s0.6,0.5,0.8,0.9s0.3,0.8,0.3,1.3s-0.1,0.9-0.3,1.3s-0.5,0.7-0.8,0.9
									S704.2,180.4,703.7,180.4z M703.7,179.8c0.3,0,0.6-0.1,0.8-0.3c0.2-0.2,0.4-0.4,0.5-0.7s0.2-0.6,0.2-0.9
									c0-0.3,0-0.6-0.2-0.9s-0.3-0.5-0.5-0.7c-0.2-0.2-0.5-0.3-0.8-0.3s-0.6,0.1-0.8,0.3c-0.2,0.2-0.4,0.4-0.5,0.7
									s-0.2,0.6-0.2,0.9s0,0.6,0.2,0.9s0.3,0.5,0.5,0.7C703.1,179.7,703.4,179.8,703.7,179.8z"/>
								<path class="st3" d="M707.1,180.3v-4.9h0.7v0.7h0c0.1-0.2,0.2-0.4,0.5-0.6s0.5-0.2,0.8-0.2c0,0,0.1,0,0.2,0
									c0.1,0,0.2,0,0.2,0v0.8c0,0-0.1,0-0.2,0s-0.2,0-0.3,0c-0.2,0-0.5,0.1-0.6,0.1s-0.3,0.2-0.4,0.4s-0.2,0.4-0.2,0.6v3.1H707.1z
									"/>
								<path class="st3" d="M712.6,175.4v0.6H710v-0.6H712.6z M710.8,174.2h0.8v4.7c0,0.2,0,0.4,0.1,0.5s0.1,0.2,0.2,0.2
									c0.1,0,0.2,0.1,0.3,0.1c0.1,0,0.2,0,0.2,0c0,0,0.1,0,0.1,0l0.2,0.7c0,0-0.1,0-0.2,0.1s-0.2,0-0.3,0c-0.2,0-0.4-0.1-0.6-0.1
									s-0.4-0.2-0.5-0.4s-0.2-0.4-0.2-0.7L710.8,174.2L710.8,174.2z"/>
							</g>
						</g>
					</g>
				</g>
			</g>
		</g>
	</g>
</g>
<g id="Notes_00000067202208063280290130000008225435380146141880_" class="st0">
	<g id="Notes">
	</g>
</g>
<g id="_x31_6:9_00000090987281789628604810000015892849931247527050_" class="st0">
	<g id="_x31_6:9">
		<rect x="1036.4" y="47" class="st1" width="913.9" height="514"/>
		<rect x="-66" y="47" class="st1" width="164" height="50"/>
		<rect x="1013" y="47" class="st1" width="164" height="50"/>
	</g>
</g>
<g id="Casa_Grande_00000067926951726729579200000016219390856043929503_" class="st0">
	<g id="Casa_Grande" class="st1">
		<g>
			<g>
				<defs>
					<rect id="SVGID_00000027581039857524467770000017841307297931636375_" x="98.6" y="47" width="913.9" height="514"/>
				</defs>
				<clipPath id="SVGID_00000183246521829558844290000012336860342556322714_">
					<use xlink:href="#SVGID_00000027581039857524467770000017841307297931636375_"  style="overflow:visible;"/>
				</clipPath>
				<g style="clip-path:url(#SVGID_00000183246521829558844290000012336860342556322714_);">
					<g>
						<g>
							<g>
								<g>
									<path class="st3" d="M797.9,278.8h-1.1c-0.1-0.3-0.2-0.6-0.3-0.8c-0.2-0.2-0.3-0.4-0.6-0.6c-0.2-0.2-0.5-0.3-0.7-0.4
										s-0.5-0.1-0.8-0.1c-0.5,0-1,0.1-1.4,0.4c-0.4,0.3-0.8,0.7-1,1.2s-0.4,1.2-0.4,1.9c0,0.8,0.1,1.4,0.4,1.9s0.6,0.9,1,1.2
										s0.9,0.4,1.4,0.4c0.3,0,0.6,0,0.8-0.1s0.5-0.2,0.7-0.4c0.2-0.2,0.4-0.4,0.6-0.6c0.2-0.2,0.3-0.5,0.3-0.8h1.1
										c-0.1,0.5-0.2,0.9-0.4,1.2s-0.5,0.6-0.8,0.9s-0.7,0.4-1,0.6s-0.8,0.2-1.2,0.2c-0.7,0-1.4-0.2-2-0.5c-0.6-0.4-1-0.9-1.4-1.5
										c-0.3-0.7-0.5-1.5-0.5-2.4s0.2-1.7,0.5-2.4s0.8-1.2,1.4-1.5s1.2-0.5,2-0.5c0.4,0,0.8,0.1,1.2,0.2s0.7,0.3,1,0.6
										s0.6,0.5,0.8,0.9C797.7,277.9,797.9,278.3,797.9,278.8z"/>
									<path class="st3" d="M800,277.1c-0.2,0-0.4-0.1-0.5-0.2s-0.2-0.3-0.2-0.5s0.1-0.4,0.2-0.5s0.3-0.2,0.5-0.2s0.4,0.1,0.5,0.2
										s0.2,0.3,0.2,0.5s-0.1,0.4-0.2,0.5C800.4,277,800.2,277.1,800,277.1z M799.5,284.8v-6.5h1v6.5H799.5z"/>
									<path class="st3" d="M805.2,278.2v0.9h-3.4v-0.9H805.2z M802.8,276.6h1v6.2c0,0.3,0,0.5,0.1,0.6s0.2,0.2,0.3,0.3
										s0.3,0.1,0.4,0.1c0.1,0,0.2,0,0.3,0c0.1,0,0.1,0,0.2,0l0.2,0.9c-0.1,0-0.2,0-0.3,0.1c-0.1,0-0.3,0-0.5,0
										c-0.3,0-0.6-0.1-0.8-0.2s-0.5-0.3-0.7-0.6s-0.3-0.6-0.3-1L802.8,276.6L802.8,276.6z"/>
									<path class="st3" d="M807.4,287.2c-0.2,0-0.3,0-0.5,0s-0.2,0-0.3-0.1l0.3-0.9c0.4,0.1,0.7,0.1,0.9,0
										c0.2-0.1,0.5-0.4,0.6-0.9l0.2-0.5l-2.4-6.6h1.1l1.8,5.2h0.1l1.8-5.2l1.1,0l-2.8,7.5c-0.1,0.3-0.3,0.6-0.5,0.8
										c-0.2,0.2-0.4,0.4-0.6,0.5S807.7,287.2,807.4,287.2z"/>
									<path class="st3" d="M819.4,284.9c-0.6,0-1.1-0.1-1.5-0.4s-0.8-0.7-1-1.2c-0.2-0.5-0.4-1.1-0.4-1.8c0-0.7,0.1-1.3,0.4-1.8
										s0.6-0.9,1-1.2s1-0.4,1.5-0.4s1.1,0.1,1.5,0.4s0.8,0.7,1,1.2s0.4,1.1,0.4,1.8c0,0.7-0.1,1.3-0.4,1.8
										c-0.2,0.5-0.6,0.9-1,1.2S820,284.9,819.4,284.9z M819.4,284c0.5,0,0.8-0.1,1.1-0.4s0.5-0.5,0.6-0.9s0.2-0.8,0.2-1.2
										s-0.1-0.9-0.2-1.2c-0.1-0.4-0.3-0.7-0.6-0.9s-0.7-0.4-1.1-0.4s-0.8,0.1-1.1,0.4s-0.5,0.5-0.6,0.9s-0.2,0.8-0.2,1.2
										s0.1,0.8,0.2,1.2s0.3,0.7,0.6,0.9S819,284,819.4,284z"/>
									<path class="st3" d="M826.8,278.2v0.9h-3.5v-0.9H826.8z M824.4,284.8v-7.5c0-0.4,0.1-0.7,0.3-0.9c0.2-0.2,0.4-0.4,0.7-0.6
										s0.6-0.2,0.9-0.2c0.2,0,0.5,0,0.6,0.1s0.3,0.1,0.3,0.1l-0.3,0.9c0,0-0.1,0-0.2-0.1c-0.1,0-0.2,0-0.3,0
										c-0.3,0-0.6,0.1-0.7,0.2c-0.2,0.2-0.2,0.4-0.2,0.7v7.2L824.4,284.8L824.4,284.8z"/>
									<path class="st3" d="M797.9,293.1h-1.1c-0.1-0.3-0.2-0.6-0.3-0.8c-0.2-0.2-0.3-0.4-0.6-0.6c-0.2-0.2-0.5-0.3-0.7-0.4
										s-0.5-0.1-0.8-0.1c-0.5,0-1,0.1-1.4,0.4c-0.4,0.3-0.8,0.7-1,1.2s-0.4,1.2-0.4,1.9c0,0.8,0.1,1.4,0.4,1.9s0.6,0.9,1,1.2
										s0.9,0.4,1.4,0.4c0.3,0,0.6,0,0.8-0.1s0.5-0.2,0.7-0.4c0.2-0.2,0.4-0.4,0.6-0.6c0.2-0.2,0.3-0.5,0.3-0.8h1.1
										c-0.1,0.5-0.2,0.9-0.4,1.2s-0.5,0.6-0.8,0.9s-0.7,0.4-1,0.6s-0.8,0.2-1.2,0.2c-0.7,0-1.4-0.2-2-0.5c-0.6-0.4-1-0.9-1.4-1.5
										c-0.3-0.7-0.5-1.5-0.5-2.4s0.2-1.7,0.5-2.4s0.8-1.2,1.4-1.5s1.2-0.5,2-0.5c0.4,0,0.8,0.1,1.2,0.2s0.7,0.3,1,0.6
										s0.6,0.5,0.8,0.9C797.7,292.3,797.9,292.7,797.9,293.1z"/>
									<path class="st3" d="M801.4,299.3c-0.4,0-0.8-0.1-1.1-0.2s-0.6-0.4-0.8-0.7s-0.3-0.7-0.3-1.1c0-0.4,0.1-0.7,0.2-0.9
										s0.3-0.4,0.6-0.5c0.2-0.1,0.5-0.2,0.8-0.3c0.3-0.1,0.6-0.1,0.9-0.2c0.4,0,0.7-0.1,1-0.1s0.4-0.1,0.5-0.1
										c0.1-0.1,0.2-0.2,0.2-0.3v0c0-0.4-0.1-0.8-0.3-1s-0.6-0.4-1-0.4c-0.5,0-0.9,0.1-1.1,0.3s-0.5,0.4-0.6,0.7l-1-0.3
										c0.2-0.4,0.4-0.7,0.7-0.9c0.3-0.2,0.6-0.4,0.9-0.5s0.7-0.1,1-0.1c0.2,0,0.5,0,0.7,0.1c0.3,0,0.5,0.1,0.8,0.3
										s0.5,0.4,0.6,0.7c0.2,0.3,0.3,0.7,0.3,1.2v4.3h-1v-0.9h0c-0.1,0.1-0.2,0.3-0.3,0.5c-0.2,0.2-0.4,0.3-0.6,0.4
										C802.1,299.2,801.8,299.3,801.4,299.3z M801.6,298.4c0.4,0,0.7-0.1,1-0.2s0.5-0.4,0.6-0.6s0.2-0.5,0.2-0.8v-0.9
										c0,0-0.1,0.1-0.3,0.1s-0.3,0.1-0.5,0.1c-0.2,0-0.4,0.1-0.5,0.1s-0.3,0-0.4,0c-0.3,0-0.5,0.1-0.7,0.2
										c-0.2,0.1-0.4,0.2-0.5,0.3s-0.2,0.4-0.2,0.6c0,0.4,0.1,0.6,0.4,0.8C800.8,298.3,801.2,298.4,801.6,298.4z"/>
									<path class="st3" d="M810.9,294.1l-0.9,0.3c-0.1-0.1-0.1-0.3-0.2-0.4s-0.3-0.3-0.5-0.4s-0.4-0.1-0.7-0.1
										c-0.4,0-0.7,0.1-1,0.3s-0.4,0.4-0.4,0.7c0,0.2,0.1,0.5,0.3,0.6c0.2,0.1,0.5,0.3,0.8,0.4l1,0.2c0.6,0.1,1,0.4,1.3,0.6
										s0.4,0.7,0.4,1.1c0,0.4-0.1,0.7-0.3,1c-0.2,0.3-0.5,0.5-0.9,0.7c-0.4,0.2-0.8,0.3-1.3,0.3c-0.7,0-1.2-0.1-1.7-0.4
										c-0.4-0.3-0.7-0.7-0.8-1.3l1-0.2c0.1,0.4,0.3,0.6,0.5,0.8c0.2,0.2,0.6,0.3,1,0.3c0.5,0,0.8-0.1,1.1-0.3
										c0.3-0.2,0.4-0.4,0.4-0.7c0-0.2-0.1-0.4-0.2-0.6s-0.4-0.3-0.7-0.4l-1.1-0.3c-0.6-0.1-1-0.4-1.3-0.7
										c-0.3-0.3-0.4-0.7-0.4-1.1c0-0.4,0.1-0.7,0.3-1s0.5-0.5,0.9-0.7c0.4-0.2,0.8-0.2,1.2-0.2c0.7,0,1.2,0.1,1.5,0.4
										C810.5,293.2,810.8,293.6,810.9,294.1z"/>
									<path class="st3" d="M814.5,299.3c-0.4,0-0.8-0.1-1.1-0.2s-0.6-0.4-0.8-0.7s-0.3-0.7-0.3-1.1c0-0.4,0.1-0.7,0.2-0.9
										s0.3-0.4,0.6-0.5c0.2-0.1,0.5-0.2,0.8-0.3c0.3-0.1,0.6-0.1,0.9-0.2c0.4,0,0.7-0.1,1-0.1s0.4-0.1,0.5-0.1
										c0.1-0.1,0.2-0.2,0.2-0.3v0c0-0.4-0.1-0.8-0.3-1s-0.6-0.4-1-0.4c-0.5,0-0.9,0.1-1.1,0.3s-0.5,0.4-0.6,0.7l-1-0.3
										c0.2-0.4,0.4-0.7,0.7-0.9c0.3-0.2,0.6-0.4,0.9-0.5s0.7-0.1,1-0.1c0.2,0,0.5,0,0.7,0.1c0.3,0,0.5,0.1,0.8,0.3
										s0.5,0.4,0.6,0.7c0.2,0.3,0.3,0.7,0.3,1.2v4.3h-1v-0.9h0c-0.1,0.1-0.2,0.3-0.3,0.5c-0.2,0.2-0.4,0.3-0.6,0.4
										C815.2,299.2,814.8,299.3,814.5,299.3z M814.6,298.4c0.4,0,0.7-0.1,1-0.2s0.5-0.4,0.6-0.6s0.2-0.5,0.2-0.8v-0.9
										c0,0-0.1,0.1-0.3,0.1s-0.3,0.1-0.5,0.1c-0.2,0-0.4,0.1-0.5,0.1s-0.3,0-0.4,0c-0.3,0-0.5,0.1-0.7,0.2
										c-0.2,0.1-0.4,0.2-0.5,0.3s-0.2,0.4-0.2,0.6c0,0.4,0.1,0.6,0.4,0.8C813.9,298.3,814.2,298.4,814.6,298.4z"/>
									<path class="st3" d="M828.8,293.1c-0.1-0.3-0.2-0.5-0.4-0.8c-0.2-0.2-0.3-0.4-0.5-0.6c-0.2-0.2-0.5-0.3-0.7-0.4
										c-0.3-0.1-0.5-0.1-0.9-0.1c-0.5,0-1,0.1-1.4,0.4s-0.8,0.7-1,1.2s-0.4,1.2-0.4,1.9c0,0.8,0.1,1.4,0.4,1.9s0.6,0.9,1,1.2
										c0.4,0.3,0.9,0.4,1.5,0.4c0.5,0,0.9-0.1,1.3-0.3c0.4-0.2,0.7-0.5,0.9-0.9s0.3-0.9,0.3-1.4l0.3,0.1h-2.6v-0.9h3.3v0.9
										c0,0.7-0.2,1.3-0.5,1.9c-0.3,0.5-0.7,0.9-1.3,1.2s-1.2,0.4-1.8,0.4c-0.8,0-1.5-0.2-2-0.5c-0.6-0.4-1-0.9-1.4-1.5
										s-0.5-1.5-0.5-2.4c0-0.7,0.1-1.3,0.3-1.9s0.5-1,0.8-1.4s0.7-0.7,1.2-0.9c0.5-0.2,1-0.3,1.5-0.3c0.5,0,0.9,0.1,1.3,0.2
										c0.4,0.1,0.8,0.3,1.1,0.6s0.6,0.5,0.8,0.9c0.2,0.4,0.4,0.7,0.4,1.2H828.8z"/>
									<path class="st3" d="M831.6,299.1v-6.5h1v1h0.1c0.1-0.3,0.3-0.6,0.7-0.8c0.3-0.2,0.7-0.3,1.1-0.3c0.1,0,0.2,0,0.3,0
										c0.1,0,0.2,0,0.2,0v1c0,0-0.1,0-0.2,0s-0.2,0-0.4,0c-0.3,0-0.6,0.1-0.8,0.2s-0.4,0.3-0.6,0.5s-0.2,0.5-0.2,0.8v4.1
										L831.6,299.1L831.6,299.1z"/>
									<path class="st3" d="M838,299.3c-0.4,0-0.8-0.1-1.1-0.2s-0.6-0.4-0.8-0.7s-0.3-0.7-0.3-1.1c0-0.4,0.1-0.7,0.2-0.9
										s0.3-0.4,0.6-0.5c0.2-0.1,0.5-0.2,0.8-0.3c0.3-0.1,0.6-0.1,0.9-0.2c0.4,0,0.7-0.1,1-0.1s0.4-0.1,0.5-0.1
										c0.1-0.1,0.2-0.2,0.2-0.3v0c0-0.4-0.1-0.8-0.3-1s-0.6-0.4-1-0.4c-0.5,0-0.9,0.1-1.1,0.3s-0.5,0.4-0.6,0.7l-1-0.3
										c0.2-0.4,0.4-0.7,0.7-0.9c0.3-0.2,0.6-0.4,0.9-0.5s0.7-0.1,1-0.1c0.2,0,0.5,0,0.7,0.1c0.3,0,0.5,0.1,0.8,0.3
										s0.5,0.4,0.6,0.7c0.2,0.3,0.3,0.7,0.3,1.2v4.3h-1v-0.9h0c-0.1,0.1-0.2,0.3-0.3,0.5c-0.2,0.2-0.4,0.3-0.6,0.4
										C838.7,299.2,838.4,299.3,838,299.3z M838.1,298.4c0.4,0,0.7-0.1,1-0.2s0.5-0.4,0.6-0.6s0.2-0.5,0.2-0.8v-0.9
										c0,0-0.1,0.1-0.3,0.1s-0.3,0.1-0.5,0.1c-0.2,0-0.4,0.1-0.5,0.1s-0.3,0-0.4,0c-0.3,0-0.5,0.1-0.7,0.2
										c-0.2,0.1-0.4,0.2-0.5,0.3s-0.2,0.4-0.2,0.6c0,0.4,0.1,0.6,0.4,0.8C837.4,298.3,837.7,298.4,838.1,298.4z"/>
									<path class="st3" d="M843.8,295.2v3.9h-1v-6.5h1v1h0.1c0.2-0.3,0.4-0.6,0.7-0.8s0.7-0.3,1.2-0.3c0.4,0,0.8,0.1,1.2,0.3
										c0.3,0.2,0.6,0.5,0.8,0.8c0.2,0.4,0.3,0.8,0.3,1.4v4.2h-1v-4.1c0-0.5-0.1-0.9-0.4-1.2c-0.3-0.3-0.6-0.4-1.1-0.4
										c-0.3,0-0.6,0.1-0.9,0.2c-0.2,0.1-0.5,0.3-0.6,0.6S843.8,294.8,843.8,295.2z"/>
									<path class="st3" d="M852.3,299.3c-0.5,0-1-0.1-1.4-0.4c-0.4-0.3-0.7-0.7-1-1.2c-0.2-0.5-0.3-1.1-0.3-1.8s0.1-1.3,0.3-1.8
										c0.2-0.5,0.6-0.9,1-1.2c0.4-0.3,0.9-0.4,1.5-0.4c0.4,0,0.8,0.1,1,0.2c0.2,0.1,0.4,0.3,0.6,0.5s0.2,0.3,0.3,0.4h0.1v-3.2h1
										v8.7h-1v-1h-0.1c-0.1,0.1-0.2,0.3-0.3,0.5c-0.1,0.2-0.3,0.3-0.6,0.5S852.8,299.3,852.3,299.3z M852.5,298.4
										c0.4,0,0.7-0.1,1-0.3s0.5-0.5,0.6-0.9c0.1-0.4,0.2-0.8,0.2-1.3c0-0.5-0.1-0.9-0.2-1.3c-0.1-0.4-0.3-0.6-0.6-0.9
										s-0.6-0.3-1-0.3c-0.4,0-0.8,0.1-1.1,0.3c-0.3,0.2-0.5,0.5-0.6,0.9s-0.2,0.8-0.2,1.2c0,0.5,0.1,0.9,0.2,1.3
										c0.1,0.4,0.4,0.7,0.6,0.9C851.7,298.3,852,298.4,852.5,298.4z"/>
									<path class="st3" d="M860,299.3c-0.6,0-1.2-0.1-1.6-0.4s-0.8-0.7-1-1.2c-0.2-0.5-0.4-1.1-0.4-1.8s0.1-1.3,0.4-1.8
										c0.2-0.5,0.6-0.9,1-1.2s1-0.4,1.5-0.4c0.3,0,0.7,0.1,1,0.2c0.3,0.1,0.6,0.3,0.9,0.5c0.3,0.2,0.5,0.6,0.7,1
										c0.2,0.4,0.2,0.9,0.2,1.5v0.4h-5v-0.9h4c0-0.4-0.1-0.7-0.2-1c-0.2-0.3-0.3-0.5-0.6-0.7s-0.6-0.2-1-0.2
										c-0.4,0-0.8,0.1-1,0.3c-0.3,0.2-0.5,0.5-0.7,0.8c-0.2,0.3-0.2,0.6-0.2,1v0.6c0,0.5,0.1,0.9,0.3,1.3s0.4,0.6,0.7,0.8
										s0.7,0.3,1.1,0.3c0.3,0,0.5,0,0.7-0.1s0.4-0.2,0.6-0.3s0.3-0.3,0.4-0.6l1,0.3c-0.1,0.3-0.3,0.6-0.5,0.9s-0.5,0.4-0.9,0.6
										S860.5,299.3,860,299.3z"/>
								</g>
							</g>
						</g>
					</g>
				</g>
			</g>
			<g>
				<defs>
					<rect id="SVGID_00000090276077569147990380000004740828515338521757_" x="98.6" y="47" width="913.9" height="514"/>
				</defs>
				<clipPath id="SVGID_00000127753162753432367780000014989006638752582816_">
					<use xlink:href="#SVGID_00000090276077569147990380000004740828515338521757_"  style="overflow:visible;"/>
				</clipPath>
				
					<circle style="clip-path:url(#SVGID_00000127753162753432367780000014989006638752582816_);fill:#999999;" cx="779.4" cy="280" r="4"/>
			</g>
		</g>
	</g>
</g>
<g id="Phoenix_00000170270910134491341090000003313878369293716898_" class="st0">
	<g id="Phoenix" class="st1">
		<g>
			<g>
				<defs>
					<rect id="SVGID_00000142151452932067366900000000753341184169261484_" x="98.6" y="47" width="913.9" height="514"/>
				</defs>
				<clipPath id="SVGID_00000174583032874917906080000015402535230252157368_">
					<use xlink:href="#SVGID_00000142151452932067366900000000753341184169261484_"  style="overflow:visible;"/>
				</clipPath>
				
					<circle style="clip-path:url(#SVGID_00000174583032874917906080000015402535230252157368_);fill:#999999;" cx="618.4" cy="56" r="4"/>
			</g>
			<g>
				<defs>
					<rect id="SVGID_00000121957892388395202590000012781477187460753313_" x="98.6" y="47" width="913.9" height="514"/>
				</defs>
				<clipPath id="SVGID_00000015333246254513731680000014284496680894379163_">
					<use xlink:href="#SVGID_00000121957892388395202590000012781477187460753313_"  style="overflow:visible;"/>
				</clipPath>
				<g style="clip-path:url(#SVGID_00000015333246254513731680000014284496680894379163_);">
					<g>
						<path class="st3" d="M628.2,59.5v-8.7h3c0.7,0,1.2,0.1,1.7,0.4c0.4,0.2,0.8,0.6,1,1c0.2,0.4,0.3,0.9,0.3,1.4s-0.1,1-0.3,1.4
							s-0.5,0.8-1,1s-1,0.4-1.7,0.4H629v-0.9h2.1c0.5,0,0.8-0.1,1.1-0.2s0.5-0.4,0.6-0.7s0.2-0.6,0.2-0.9s-0.1-0.7-0.2-0.9
							s-0.3-0.5-0.6-0.7s-0.7-0.2-1.1-0.2h-1.9v7.8L628.2,59.5L628.2,59.5z"/>
						<path class="st3" d="M636.7,55.6v3.9h-1v-8.7h1V54h0.1c0.2-0.3,0.4-0.6,0.7-0.8s0.7-0.3,1.2-0.3c0.5,0,0.8,0.1,1.2,0.3
							c0.3,0.2,0.6,0.5,0.8,0.8c0.2,0.4,0.3,0.8,0.3,1.4v4.2h-1v-4.1c0-0.5-0.1-0.9-0.4-1.2s-0.6-0.4-1.1-0.4
							c-0.3,0-0.6,0.1-0.9,0.2s-0.5,0.3-0.6,0.6S636.7,55.2,636.7,55.6z"/>
						<path class="st3" d="M645.4,59.7c-0.6,0-1.1-0.1-1.5-0.4s-0.8-0.7-1-1.2s-0.4-1.1-0.4-1.8c0-0.7,0.1-1.3,0.4-1.8
							c0.2-0.5,0.6-0.9,1-1.2c0.5-0.3,1-0.4,1.5-0.4c0.6,0,1.1,0.1,1.5,0.4s0.8,0.7,1,1.2s0.4,1.1,0.4,1.8c0,0.7-0.1,1.3-0.4,1.8
							s-0.6,0.9-1,1.2C646.5,59.5,646,59.7,645.4,59.7z M645.4,58.8c0.5,0,0.8-0.1,1.1-0.3s0.5-0.5,0.6-0.9s0.2-0.8,0.2-1.2
							s-0.1-0.8-0.2-1.2c-0.1-0.4-0.3-0.7-0.6-0.9c-0.3-0.2-0.7-0.3-1.1-0.3s-0.8,0.1-1.1,0.3s-0.5,0.5-0.6,0.9
							c-0.1,0.4-0.2,0.8-0.2,1.2s0.1,0.8,0.2,1.2s0.3,0.7,0.6,0.9S645,58.8,645.4,58.8z"/>
						<path class="st3" d="M652.7,59.7c-0.6,0-1.2-0.1-1.6-0.4s-0.8-0.7-1-1.2s-0.4-1.1-0.4-1.8s0.1-1.3,0.4-1.8
							c0.2-0.5,0.6-0.9,1-1.2s1-0.4,1.5-0.4c0.3,0,0.7,0.1,1,0.2c0.3,0.1,0.6,0.3,0.9,0.5c0.3,0.2,0.5,0.6,0.7,1
							c0.2,0.4,0.2,0.9,0.2,1.5v0.4h-5v-0.9h4c0-0.4-0.1-0.7-0.2-1c-0.2-0.3-0.3-0.5-0.6-0.7s-0.6-0.2-1-0.2c-0.4,0-0.8,0.1-1,0.3
							s-0.5,0.5-0.7,0.8c-0.2,0.3-0.2,0.7-0.2,1v0.6c0,0.5,0.1,0.9,0.3,1.3s0.4,0.6,0.7,0.8s0.7,0.3,1.1,0.3c0.3,0,0.5,0,0.7-0.1
							s0.4-0.2,0.6-0.3s0.3-0.3,0.4-0.6l1,0.3c-0.1,0.3-0.3,0.6-0.5,0.9s-0.5,0.4-0.9,0.6S653.1,59.7,652.7,59.7z"/>
						<path class="st3" d="M657.9,55.6v3.9h-1V53h1v1h0.1c0.2-0.3,0.4-0.6,0.7-0.8s0.7-0.3,1.2-0.3c0.4,0,0.8,0.1,1.2,0.3
							c0.3,0.2,0.6,0.5,0.8,0.8c0.2,0.4,0.3,0.8,0.3,1.4v4.2h-1v-4.1c0-0.5-0.1-0.9-0.4-1.2c-0.3-0.3-0.6-0.4-1.1-0.4
							c-0.3,0-0.6,0.1-0.9,0.2s-0.5,0.3-0.6,0.6S657.9,55.2,657.9,55.6z"/>
						<path class="st3" d="M664.4,51.9c-0.2,0-0.4-0.1-0.5-0.2s-0.2-0.3-0.2-0.5s0.1-0.3,0.2-0.5s0.3-0.2,0.5-0.2s0.4,0.1,0.5,0.2
							s0.2,0.3,0.2,0.5s-0.1,0.3-0.2,0.5S664.6,51.9,664.4,51.9z M663.9,59.5V53h1v6.5L663.9,59.5L663.9,59.5z"/>
						<path class="st3" d="M667.5,53l1.6,2.7l1.6-2.7h1.2l-2.1,3.3l2.1,3.3h-1.2l-1.6-2.5l-1.6,2.5h-1.2l2.1-3.3l-2.1-3.3H667.5z"/>
						<path class="st3" d="M627.6,70.2v-0.7l2.9-4.6h0.5v1h-0.3l-2.2,3.4v0.1h3.9v0.7H627.6z M630.7,71.5V70v-0.3V65h0.8v6.6
							L630.7,71.5L630.7,71.5z"/>
						<path class="st3" d="M635.6,71.6c-0.4,0-0.7-0.1-1-0.2c-0.3-0.2-0.5-0.3-0.7-0.6s-0.3-0.6-0.3-0.9h0.8c0,0.3,0.2,0.5,0.4,0.7
							c0.2,0.2,0.5,0.3,0.9,0.3c0.3,0,0.5-0.1,0.7-0.2c0.2-0.1,0.4-0.3,0.5-0.5s0.2-0.5,0.2-0.8c0-0.3-0.1-0.5-0.2-0.8
							c-0.1-0.2-0.3-0.4-0.5-0.5c-0.2-0.1-0.5-0.2-0.7-0.2c-0.2,0-0.4,0-0.6,0.1s-0.4,0.1-0.5,0.2l-0.7-0.1l0.4-3.2h3.4v0.7h-2.7
							l-0.2,1.9h0c0.1-0.1,0.3-0.2,0.5-0.3s0.4-0.1,0.6-0.1c0.4,0,0.8,0.1,1.1,0.3c0.3,0.2,0.6,0.4,0.7,0.8s0.3,0.7,0.3,1.1
							s-0.1,0.8-0.3,1.1s-0.4,0.6-0.8,0.8S636,71.6,635.6,71.6z"/>
						<path class="st3" d="M641.6,71.5v-4.9h0.7v0.8h0.1c0.1-0.3,0.3-0.5,0.5-0.6c0.2-0.2,0.5-0.2,0.8-0.2s0.6,0.1,0.8,0.2
							c0.2,0.2,0.4,0.3,0.5,0.6h0c0.1-0.2,0.3-0.5,0.6-0.6c0.2-0.2,0.5-0.2,0.9-0.2c0.4,0,0.8,0.1,1.1,0.4c0.3,0.3,0.4,0.7,0.4,1.3
							v3.3h-0.8v-3.3c0-0.4-0.1-0.6-0.3-0.8c-0.2-0.2-0.4-0.2-0.7-0.2c-0.3,0-0.6,0.1-0.8,0.3s-0.3,0.5-0.3,0.8v3.2h-0.8v-3.4
							c0-0.3-0.1-0.5-0.3-0.7c-0.2-0.2-0.4-0.3-0.7-0.3c-0.2,0-0.4,0.1-0.5,0.2c-0.2,0.1-0.3,0.2-0.4,0.4s-0.2,0.4-0.2,0.6v3.1
							L641.6,71.5L641.6,71.5z"/>
						<path class="st3" d="M649.8,65.8c-0.2,0-0.3-0.1-0.4-0.2s-0.2-0.2-0.2-0.4s0-0.3,0.2-0.4s0.2-0.2,0.4-0.2s0.3,0.1,0.4,0.2
							s0.2,0.2,0.2,0.4s0,0.3-0.2,0.4C650.1,65.8,649.9,65.8,649.8,65.8z M649.4,71.5v-4.9h0.8v4.9
							C650.2,71.5,649.4,71.5,649.4,71.5z"/>
						<path class="st3" d="M652.3,68.6v2.9h-0.8v-4.9h0.7v0.8h0.1c0.1-0.2,0.3-0.4,0.5-0.6s0.5-0.2,0.9-0.2c0.3,0,0.6,0.1,0.9,0.2
							c0.2,0.1,0.4,0.3,0.6,0.6c0.1,0.3,0.2,0.6,0.2,1v3.1h-0.8v-3.1c0-0.4-0.1-0.7-0.3-0.9c-0.2-0.2-0.5-0.3-0.8-0.3
							c-0.2,0-0.5,0.1-0.6,0.2c-0.2,0.1-0.3,0.3-0.5,0.5C652.4,68.1,652.3,68.3,652.3,68.6z"/>
					</g>
				</g>
			</g>
		</g>
	</g>
</g>
<g id="Tuscon_00000070085754125048098230000013502291124710585268_" class="st0">
	<g id="Tuscon" class="st1">
		<g>
			<g>
				<defs>
					<rect id="SVGID_00000067946952226392088240000013364717072044971395_" x="98.6" y="47" width="913.9" height="514"/>
				</defs>
				<clipPath id="SVGID_00000080173673343371559060000010921797093827048602_">
					<use xlink:href="#SVGID_00000067946952226392088240000013364717072044971395_"  style="overflow:visible;"/>
				</clipPath>
				<g style="clip-path:url(#SVGID_00000080173673343371559060000010921797093827048602_);">
					<circle class="st5" cx="960.9" cy="538.5" r="4"/>
					<g>
						<g>
							<path class="st3" d="M970.2,534.2v-0.9h6.5v0.9H974v7.8h-1.1v-7.8H970.2z"/>
							<path class="st3" d="M982.4,539.4v-3.9h1v6.5h-1v-1.1h-0.1c-0.2,0.3-0.4,0.6-0.7,0.8c-0.3,0.2-0.7,0.3-1.2,0.3
								c-0.4,0-0.8-0.1-1.1-0.3s-0.6-0.5-0.8-0.8s-0.3-0.8-0.3-1.4v-4.2h1v4.1c0,0.5,0.1,0.9,0.4,1.1s0.6,0.4,1,0.4
								c0.2,0,0.5-0.1,0.8-0.2s0.5-0.3,0.7-0.6C982.3,540.1,982.4,539.8,982.4,539.4z"/>
							<path class="st3" d="M987.9,542.2c-0.6,0-1.1-0.1-1.6-0.4s-0.8-0.7-1-1.2s-0.4-1.1-0.4-1.7c0-0.7,0.1-1.2,0.4-1.8
								s0.6-0.9,1-1.2c0.4-0.3,1-0.4,1.5-0.4c0.5,0,0.9,0.1,1.2,0.3c0.4,0.2,0.7,0.4,0.9,0.7s0.4,0.7,0.4,1.1h-1
								c-0.1-0.3-0.2-0.6-0.5-0.8s-0.6-0.3-1.1-0.3c-0.4,0-0.7,0.1-1,0.3c-0.3,0.2-0.5,0.5-0.7,0.9c-0.2,0.4-0.2,0.8-0.2,1.3
								c0,0.5,0.1,1,0.2,1.3c0.2,0.4,0.4,0.7,0.7,0.9c0.3,0.2,0.6,0.3,1,0.3c0.3,0,0.5,0,0.7-0.1s0.4-0.2,0.5-0.4
								c0.2-0.2,0.2-0.4,0.3-0.6h1c-0.1,0.4-0.2,0.7-0.4,1s-0.5,0.5-0.9,0.7C988.8,542.1,988.4,542.2,987.9,542.2z"/>
							<path class="st3" d="M996.5,537l-0.9,0.3c-0.1-0.2-0.1-0.3-0.2-0.4s-0.3-0.3-0.5-0.4s-0.4-0.1-0.7-0.1c-0.4,0-0.7,0.1-1,0.3
								s-0.4,0.4-0.4,0.7c0,0.2,0.1,0.5,0.3,0.6s0.5,0.3,0.8,0.4l1,0.2c0.6,0.1,1,0.4,1.3,0.7s0.4,0.7,0.4,1.1c0,0.4-0.1,0.7-0.3,1
								c-0.2,0.3-0.5,0.5-0.9,0.7c-0.4,0.2-0.8,0.3-1.3,0.3c-0.7,0-1.2-0.1-1.7-0.4s-0.7-0.7-0.8-1.3l1-0.2c0.1,0.3,0.3,0.6,0.5,0.8
								c0.2,0.2,0.6,0.3,1,0.3c0.5,0,0.8-0.1,1.1-0.3c0.3-0.2,0.4-0.4,0.4-0.7c0-0.2-0.1-0.4-0.2-0.6s-0.4-0.3-0.7-0.3l-1.1-0.2
								c-0.6-0.1-1-0.4-1.3-0.7s-0.4-0.7-0.4-1.1c0-0.4,0.1-0.7,0.3-1s0.5-0.5,0.9-0.7c0.4-0.2,0.8-0.2,1.2-0.2
								c0.7,0,1.2,0.1,1.5,0.4C996.1,536.1,996.4,536.5,996.5,537z"/>
							<path class="st3" d="M1000.8,542.2c-0.6,0-1.1-0.1-1.5-0.4c-0.4-0.3-0.8-0.7-1-1.2s-0.4-1.1-0.4-1.8c0-0.7,0.1-1.3,0.4-1.8
								c0.2-0.5,0.6-0.9,1-1.2c0.5-0.3,1-0.4,1.5-0.4c0.6,0,1.1,0.1,1.5,0.4c0.4,0.3,0.8,0.7,1,1.2s0.4,1.1,0.4,1.8
								c0,0.7-0.1,1.3-0.4,1.8s-0.6,0.9-1,1.2S1001.4,542.2,1000.8,542.2z M1000.8,541.3c0.5,0,0.8-0.1,1.1-0.3s0.5-0.5,0.6-0.9
								s0.2-0.8,0.2-1.2s-0.1-0.8-0.2-1.2c-0.1-0.4-0.3-0.7-0.6-0.9c-0.3-0.2-0.7-0.3-1.1-0.3s-0.8,0.1-1.1,0.3s-0.5,0.5-0.6,0.9
								s-0.2,0.8-0.2,1.2s0.1,0.8,0.2,1.2c0.1,0.4,0.3,0.7,0.6,0.9C1000,541.2,1000.4,541.3,1000.8,541.3z"/>
							<path class="st3" d="M1006.3,538.1v3.9h-1v-6.5h1v1h0.1c0.2-0.3,0.4-0.6,0.7-0.8s0.7-0.3,1.2-0.3c0.4,0,0.8,0.1,1.2,0.3
								c0.3,0.2,0.6,0.5,0.8,0.8c0.2,0.4,0.3,0.8,0.3,1.4v4.2h-1V538c0-0.5-0.1-0.9-0.4-1.2c-0.3-0.3-0.6-0.4-1.1-0.4
								c-0.3,0-0.6,0.1-0.9,0.2s-0.5,0.3-0.6,0.6C1006.4,537.4,1006.3,537.7,1006.3,538.1z"/>
							<path class="st3" d="M972.6,546.3v6.5h-0.8v-5.7h0l-1.6,1.1v-0.8l1.6-1.1L972.6,546.3L972.6,546.3z"/>
							<path class="st3" d="M977.8,549.9v3H977v-6.5h0.8v2.4h0.1c0.1-0.2,0.3-0.5,0.5-0.6c0.2-0.2,0.5-0.2,0.9-0.2
								c0.3,0,0.6,0.1,0.9,0.2s0.5,0.3,0.6,0.6c0.1,0.3,0.2,0.6,0.2,1v3.1h-0.8v-3.1c0-0.4-0.1-0.7-0.3-0.9
								c-0.2-0.2-0.5-0.3-0.8-0.3c-0.2,0-0.5,0-0.7,0.2s-0.3,0.3-0.5,0.5C977.8,549.4,977.8,549.6,977.8,549.9z"/>
							<path class="st3" d="M982.3,552.8v-4.9h0.7v0.7h0c0.1-0.2,0.2-0.4,0.5-0.6s0.5-0.2,0.8-0.2c0,0,0.1,0,0.2,0
								c0.1,0,0.2,0,0.2,0v0.8c0,0-0.1,0-0.2,0c-0.1,0-0.2,0-0.3,0c-0.2,0-0.5,0-0.6,0.2c-0.2,0.1-0.3,0.2-0.4,0.4s-0.2,0.4-0.2,0.6
								v3.1H982.3z"/>
						</g>
					</g>
				</g>
			</g>
		</g>
	</g>
</g>
<g id="Roads__x2F__Rail_00000100377658353025040260000014521612444883483264_" class="st0">
	<g id="Roads__x2F__Rail" class="st1">
		<g>
			<g>
				<defs>
					<rect id="SVGID_00000176764421768215864360000003230248468790688444_" x="98.6" y="47" width="913.9" height="514"/>
				</defs>
				<clipPath id="SVGID_00000008828729546196486150000001616327744096466819_">
					<use xlink:href="#SVGID_00000176764421768215864360000003230248468790688444_"  style="overflow:visible;"/>
				</clipPath>
				<g style="clip-path:url(#SVGID_00000008828729546196486150000001616327744096466819_);">
					<g>
						<g>
							<defs>
								<rect id="SVGID_00000104704896831737660570000011432428532892375486_" x="102.4" y="81.7" width="823" height="462.6"/>
							</defs>
							<clipPath id="SVGID_00000092433191984659989110000007745321637487706034_">
								<use xlink:href="#SVGID_00000104704896831737660570000011432428532892375486_"  style="overflow:visible;"/>
							</clipPath>
							<g style="clip-path:url(#SVGID_00000092433191984659989110000007745321637487706034_);">
								<rect x="-107.7" y="-171.7" class="st14" width="1289.2" height="725.1"/>
								<g>
									<path class="st16" d="M186.3-874.1L365.1-779c0,0,7.6,7.6,7.6,76.1v154.7c0,0,22.8,73.5,72.3,149.6
										s422.2,646.7,422.2,646.7s15.2,22.8,15.2,49.5s0,170.7,0,170.7s3.8,15.7,41.8,46.2c38,30.4,452.7,334.8,452.7,334.8
										s34.2,34.2,60.9,72.3l213,258.7l498.3,494.5"/>
									<path class="st16" d="M-110.4,444.2c0,0,380.4,26.6,886.3,26.6c0,0,19.2-7.9,37.2-19.3c0,0,17-11.4,30.8,0l64.9,49.6"/>
									<g>
										<g>
											<path class="st19" d="M1405.7,840.7C1338.8,789.9,340.9,31.9,286-9.8"/>
										</g>
									</g>
									<polyline class="st16" points="226.2,352.7 226.2,-31.5 309.2,-214.1 309.2,-263.6 359.4,-438.6 413.1,-453.5 									"/>
									<path class="st16" d="M1188.6,352.7H226.2c0,0-78.8,98.1-176.3,94.7"/>
									<polyline class="st16" points="754.4,590.4 754.4,395.5 785.4,364.1 									"/>
									<path class="st16" d="M765.9,352.7c-6.5,0-11.5,0-11.5,0V106.9L809.1,2.9l68.5-47.8"/>
									<path class="st16" d="M237.4-55.4C415.9,80.2,655.5,262.2,731.2,319.7"/>
									<polyline class="st16" points="755,337.9 754.8,352.7 817.7,375.8 823.8,388.2 1420.7,843.4 2156.8,1659.6 									"/>
									<polyline class="st16" points="730.2,318.9 893.8,318.9 893.8,352 									"/>
									<polyline class="st21" points="1046.6,352 1046.6,106.9 1058.6,93.2 1351.2,93.2 									"/>
									<polyline class="st21" points="1058.6,93.2 842.5,-69.6 816,-140.5 769.9,-177.6 602.8,-343.5 									"/>
									<polyline class="st21" points="776.9,64.1 816,83.7 1020,64.1 									"/>
									<line class="st22" x1="314.4" y1="352.7" x2="314.4" y2="0.8"/>
									<line class="st16" x1="377.1" y1="352.7" x2="377.1" y2="586.9"/>
									<polyline class="st16" points="754.4,222.4 958.5,222.4 1046.6,222.4 									"/>
									<polyline class="st20" points="226.2,0.8 279.5,0.8 279.5,-91 									"/>
									<polyline class="st20" points="427.8,90.2 420.2,52.8 420.2,-31.5 385.6,-54.4 239.6,-54.4 									"/>
									<polyline class="st23" points="802.9,14.7 781.6,-20.1 776.9,-86.6 									"/>
								</g>
							</g>
						</g>
					</g>
				</g>
			</g>
			<g class="st0">
				<defs>
					<rect id="SVGID_00000000220459184458468390000008639673752956009658_" x="98.6" y="47" width="913.9" height="514"/>
				</defs>
				<clipPath id="SVGID_00000122698502549400259400000006104430329044528548_" class="st1">
					<use xlink:href="#SVGID_00000000220459184458468390000008639673752956009658_"  style="overflow:visible;"/>
				</clipPath>
				
					<rect x="801" y="72" style="display:inline;clip-path:url(#SVGID_00000122698502549400259400000006104430329044528548_);fill:#FFFFFF;" width="70" height="24"/>
			</g>
			<g>
				<defs>
					<rect id="SVGID_00000081643586812119289120000012022060968799510971_" x="98.6" y="47" width="913.9" height="514"/>
				</defs>
				<clipPath id="SVGID_00000066515779496267619130000004399377990050849418_">
					<use xlink:href="#SVGID_00000081643586812119289120000012022060968799510971_"  style="overflow:visible;"/>
				</clipPath>
				
					<linearGradient id="SVGID_00000183233616433132630060000006080761313609180585_" gradientUnits="userSpaceOnUse" x1="371.4147" y1="886.4303" x2="414.4147" y2="886.4303" gradientTransform="matrix(0 1 1 0 -348.4303 -292.4147)">
					<stop  offset="0" style="stop-color:#FFFFFF"/>
					<stop  offset="1" style="stop-color:#FFFFFF;stop-opacity:0"/>
				</linearGradient>
				
					<polygon style="clip-path:url(#SVGID_00000066515779496267619130000004399377990050849418_);fill-rule:evenodd;clip-rule:evenodd;fill:url(#SVGID_00000183233616433132630060000006080761313609180585_);" points="
					184,122 184,79 892,79 892,122 				"/>
			</g>
			<g>
				<defs>
					<rect id="SVGID_00000041982609270199734350000007659452263176126132_" x="98.6" y="47" width="913.9" height="514"/>
				</defs>
				<clipPath id="SVGID_00000176034812257451234170000009535576071035695535_">
					<use xlink:href="#SVGID_00000041982609270199734350000007659452263176126132_"  style="overflow:visible;"/>
				</clipPath>
				
					<linearGradient id="SVGID_00000035500355023400210820000001126770662766010776_" gradientUnits="userSpaceOnUse" x1="-1495" y1="504" x2="-1452" y2="504" gradientTransform="matrix(-1 0 0 1 -567 -185)">
					<stop  offset="0" style="stop-color:#FFFFFF"/>
					<stop  offset="1" style="stop-color:#FFFFFF;stop-opacity:0"/>
				</linearGradient>
				
					<polygon style="clip-path:url(#SVGID_00000176034812257451234170000009535576071035695535_);fill-rule:evenodd;clip-rule:evenodd;fill:url(#SVGID_00000035500355023400210820000001126770662766010776_);" points="
					885,105 928,105 928,533 885,533 				"/>
			</g>
			<g>
				<defs>
					<rect id="SVGID_00000094620394331806231930000015291039883848789690_" x="98.6" y="47" width="913.9" height="514"/>
				</defs>
				<clipPath id="SVGID_00000026163480615188854860000013120228162354874539_">
					<use xlink:href="#SVGID_00000094620394331806231930000015291039883848789690_"  style="overflow:visible;"/>
				</clipPath>
				
					<linearGradient id="SVGID_00000153669228557271376870000007214839567486896297_" gradientUnits="userSpaceOnUse" x1="98" y1="180.5" x2="141" y2="180.5" gradientTransform="matrix(1 0 0 -1 0 628)">
					<stop  offset="0" style="stop-color:#FFFFFF"/>
					<stop  offset="1" style="stop-color:#FFFFFF;stop-opacity:0"/>
				</linearGradient>
				
					<rect x="98" y="398" style="clip-path:url(#SVGID_00000026163480615188854860000013120228162354874539_);fill-rule:evenodd;clip-rule:evenodd;fill:url(#SVGID_00000153669228557271376870000007214839567486896297_);" width="43" height="99"/>
			</g>
			<g>
				<defs>
					<rect id="SVGID_00000006684201168173035250000006988409324373102992_" x="98.6" y="47" width="913.9" height="514"/>
				</defs>
				<clipPath id="SVGID_00000085930675473103815640000009791831160716455576_">
					<use xlink:href="#SVGID_00000006684201168173035250000006988409324373102992_"  style="overflow:visible;"/>
				</clipPath>
				
					<linearGradient id="SVGID_00000091703356210101506440000003243114345944941230_" gradientUnits="userSpaceOnUse" x1="-266.4303" y1="542.9147" x2="-223.4303" y2="542.9147" gradientTransform="matrix(0 -1 -1 0 920.4147 279.5697)">
					<stop  offset="0" style="stop-color:#FFFFFF"/>
					<stop  offset="1" style="stop-color:#FFFFFF;stop-opacity:0"/>
				</linearGradient>
				
					<polygon style="clip-path:url(#SVGID_00000085930675473103815640000009791831160716455576_);fill-rule:evenodd;clip-rule:evenodd;fill:url(#SVGID_00000091703356210101506440000003243114345944941230_);" points="
					390,503 390,546 365,546 365,503 				"/>
			</g>
			<g>
				<defs>
					<rect id="SVGID_00000138547503259430499070000003718407976670641552_" x="98.6" y="47" width="913.9" height="514"/>
				</defs>
				<clipPath id="SVGID_00000144332155743269529410000007675040345213566393_">
					<use xlink:href="#SVGID_00000138547503259430499070000003718407976670641552_"  style="overflow:visible;"/>
				</clipPath>
				
					<linearGradient id="SVGID_00000160875894610833705170000004716780973428121778_" gradientUnits="userSpaceOnUse" x1="-266.4303" y1="165.9147" x2="-223.4303" y2="165.9147" gradientTransform="matrix(0 -1 -1 0 920.4147 279.5697)">
					<stop  offset="0" style="stop-color:#FFFFFF"/>
					<stop  offset="1" style="stop-color:#FFFFFF;stop-opacity:0"/>
				</linearGradient>
				
					<polygon style="clip-path:url(#SVGID_00000144332155743269529410000007675040345213566393_);fill-rule:evenodd;clip-rule:evenodd;fill:url(#SVGID_00000160875894610833705170000004716780973428121778_);" points="
					767,503 767,546 742,546 742,503 				"/>
			</g>
		</g>
	</g>
</g>
<g id="Road_Signs_00000144337416341331022600000007680251560302868139_" class="st0">
	<g id="Road_Signs" class="st1">
		<g>
			<g>
				<defs>
					<rect id="SVGID_00000139269088282677145380000001528950372103125940_" x="98.4" y="47" width="913.9" height="514"/>
				</defs>
				<clipPath id="SVGID_00000037689281058608248470000000203866452220315294_">
					<use xlink:href="#SVGID_00000139269088282677145380000001528950372103125940_"  style="overflow:visible;"/>
				</clipPath>
				<g style="clip-path:url(#SVGID_00000037689281058608248470000000203866452220315294_);">
					<ellipse class="st33" cx="272.9" cy="351.5" rx="15.5" ry="11.5"/>
					<g>
						<g>
							<path class="st5" d="M269.2,356.5c-0.6,0-1.1-0.1-1.5-0.3c-0.5-0.2-0.8-0.5-1-0.9c-0.2-0.4-0.4-0.8-0.4-1.3
								c0-0.4,0.1-0.7,0.2-1s0.4-0.6,0.6-0.8c0.3-0.2,0.5-0.4,0.9-0.4v0c-0.4-0.1-0.8-0.3-1-0.7c-0.2-0.4-0.4-0.8-0.4-1.2
								c0-0.4,0.1-0.8,0.3-1.2s0.5-0.6,0.9-0.8s0.9-0.3,1.4-0.3c0.5,0,1,0.1,1.4,0.3c0.4,0.2,0.7,0.5,0.9,0.8
								c0.2,0.4,0.3,0.8,0.4,1.2c0,0.5-0.1,0.9-0.4,1.2s-0.6,0.6-1,0.7v0c0.3,0.1,0.6,0.2,0.9,0.4s0.5,0.5,0.6,0.8
								c0.1,0.3,0.2,0.7,0.2,1c0,0.5-0.1,0.9-0.4,1.3s-0.6,0.7-1,0.9C270.3,356.4,269.8,356.5,269.2,356.5z M269.2,355.5
								c0.4,0,0.7-0.1,1-0.2s0.5-0.3,0.7-0.5s0.2-0.5,0.2-0.8c0-0.3-0.1-0.6-0.3-0.9s-0.4-0.5-0.7-0.6c-0.3-0.1-0.6-0.2-1-0.2
								s-0.7,0.1-1,0.2c-0.3,0.1-0.5,0.3-0.7,0.6s-0.2,0.5-0.2,0.9c0,0.3,0.1,0.6,0.2,0.8c0.1,0.2,0.4,0.4,0.7,0.5
								C268.5,355.5,268.8,355.5,269.2,355.5z M269.2,351.4c0.3,0,0.6-0.1,0.8-0.2c0.2-0.1,0.4-0.3,0.6-0.5s0.2-0.5,0.2-0.8
								c0-0.3-0.1-0.5-0.2-0.8c-0.1-0.2-0.3-0.4-0.6-0.5c-0.2-0.1-0.5-0.2-0.8-0.2c-0.3,0-0.6,0.1-0.9,0.2s-0.4,0.3-0.6,0.5
								c-0.1,0.2-0.2,0.5-0.2,0.8c0,0.3,0.1,0.6,0.2,0.8s0.3,0.4,0.6,0.5C268.6,351.3,268.9,351.4,269.2,351.4z"/>
							<path class="st5" d="M273.6,354.5v-0.9l3.8-6.1h0.6v1.4h-0.4l-2.9,4.6v0.1h5.2v0.9H273.6z M277.7,356.3v-2v-0.4v-6.3h1v8.7
								L277.7,356.3L277.7,356.3z"/>
						</g>
					</g>
				</g>
			</g>
			<g>
				<defs>
					<rect id="SVGID_00000149366581999657689790000010957137324150039443_" x="98.4" y="47" width="913.9" height="514"/>
				</defs>
				<clipPath id="SVGID_00000091702379736039652620000008918671482322866326_">
					<use xlink:href="#SVGID_00000149366581999657689790000010957137324150039443_"  style="overflow:visible;"/>
				</clipPath>
				<g style="clip-path:url(#SVGID_00000091702379736039652620000008918671482322866326_);">
					<ellipse class="st33" cx="753.9" cy="271.5" rx="15.5" ry="11.5"/>
					<g>
						<g>
							<path class="st5" d="M746.4,276.5c-0.6,0-1.1-0.1-1.5-0.3s-0.8-0.5-1-0.8c-0.3-0.4-0.4-0.8-0.4-1.2h1.1
								c0,0.3,0.1,0.5,0.3,0.7s0.4,0.4,0.7,0.5s0.6,0.2,0.9,0.2c0.4,0,0.7-0.1,1-0.2s0.5-0.3,0.7-0.5s0.2-0.5,0.2-0.8
								c0-0.3-0.1-0.6-0.2-0.9s-0.4-0.4-0.7-0.6c-0.3-0.1-0.7-0.2-1.1-0.2h-0.7v-0.9h0.7c0.3,0,0.7-0.1,0.9-0.2s0.5-0.3,0.6-0.5
								s0.2-0.5,0.2-0.8c0-0.3-0.1-0.5-0.2-0.8s-0.3-0.4-0.5-0.5c-0.2-0.1-0.5-0.2-0.8-0.2c-0.3,0-0.6,0-0.8,0.2s-0.5,0.3-0.7,0.5
								s-0.3,0.5-0.3,0.7h-1c0-0.5,0.2-0.9,0.4-1.2c0.3-0.4,0.6-0.6,1-0.8c0.4-0.2,0.9-0.3,1.4-0.3c0.5,0,1,0.1,1.4,0.3
								s0.7,0.5,0.9,0.9s0.3,0.7,0.3,1.1c0,0.5-0.1,0.9-0.4,1.3s-0.6,0.6-1,0.7v0.1c0.5,0.1,1,0.3,1.3,0.7s0.5,0.8,0.5,1.4
								c0,0.5-0.1,0.9-0.4,1.3s-0.6,0.7-1,0.9S747,276.5,746.4,276.5z"/>
							<path class="st5" d="M753.9,276.5c-0.6,0-1.1-0.1-1.5-0.3s-0.8-0.5-1-0.9c-0.2-0.4-0.4-0.8-0.4-1.3c0-0.4,0.1-0.7,0.2-1
								c0.2-0.3,0.3-0.6,0.6-0.8c0.3-0.2,0.5-0.4,0.9-0.4v0c-0.4-0.1-0.8-0.3-1-0.7c-0.2-0.4-0.4-0.8-0.4-1.2c0-0.4,0.1-0.8,0.3-1.2
								c0.2-0.4,0.5-0.6,0.9-0.8s0.8-0.3,1.4-0.3c0.5,0,1,0.1,1.3,0.3c0.4,0.2,0.7,0.5,0.9,0.8c0.2,0.4,0.3,0.8,0.3,1.2
								c0,0.5-0.1,0.9-0.4,1.2s-0.6,0.6-1,0.7v0c0.3,0.1,0.6,0.2,0.8,0.4s0.5,0.5,0.6,0.8c0.2,0.3,0.2,0.7,0.2,1
								c0,0.5-0.1,0.9-0.4,1.3s-0.6,0.7-1,0.9C755,276.4,754.5,276.5,753.9,276.5z M753.9,275.5c0.4,0,0.7-0.1,1-0.2
								s0.5-0.3,0.7-0.5s0.2-0.5,0.2-0.8c0-0.3-0.1-0.6-0.3-0.9s-0.4-0.5-0.7-0.6c-0.3-0.1-0.6-0.2-1-0.2s-0.7,0.1-1,0.2
								c-0.3,0.1-0.5,0.3-0.7,0.6s-0.2,0.5-0.2,0.9c0,0.3,0.1,0.6,0.2,0.8c0.2,0.2,0.4,0.4,0.7,0.5
								C753.1,275.5,753.5,275.5,753.9,275.5z M753.9,271.4c0.3,0,0.6-0.1,0.8-0.2c0.2-0.1,0.4-0.3,0.6-0.5s0.2-0.5,0.2-0.8
								c0-0.3-0.1-0.5-0.2-0.8s-0.3-0.4-0.6-0.5s-0.5-0.2-0.8-0.2c-0.3,0-0.6,0.1-0.9,0.2s-0.4,0.3-0.6,0.5
								c-0.1,0.2-0.2,0.5-0.2,0.8c0,0.3,0.1,0.6,0.2,0.8s0.3,0.4,0.6,0.5C753.3,271.3,753.5,271.4,753.9,271.4z"/>
							<path class="st5" d="M758.8,276.3l3.9-7.7v-0.1h-4.5v-0.9h5.6v1l-3.9,7.7L758.8,276.3L758.8,276.3z"/>
						</g>
					</g>
				</g>
			</g>
			<g>
				<defs>
					<rect id="SVGID_00000078726740235668687140000004671178619715974542_" x="98.4" y="47" width="913.9" height="514"/>
				</defs>
				<clipPath id="SVGID_00000134232229688589156460000007994302103362054319_">
					<use xlink:href="#SVGID_00000078726740235668687140000004671178619715974542_"  style="overflow:visible;"/>
				</clipPath>
				<g style="clip-path:url(#SVGID_00000134232229688589156460000007994302103362054319_);">
					<g>
						
							<g id="g1606_00000158025470071067205680000000887322179970921380_" transform="matrix(1.0070935,0,0,1.0102847,-2.1280324,-3.66885)">
							<path id="path1608_00000007395305846367328440000009575514678364159423_" class="st33" d="M860,268.5c0-1.6,0.2-3.1,0.6-4.5
								h26.6c0.4,1.4,0.6,3,0.6,4.5c0,8.4-6,15.5-13.9,17.2C865.9,284,860,277,860,268.5z"/>
						</g>
						
							<g id="g1610_00000181796145287270871750000014392252463559846049_" transform="matrix(1.0125461,0,0,1.0271486,-3.7638021,-3.1017482)">
							<path id="path1612_00000132781326453839939930000000987894862302560141_" class="st33" d="M857.7,258.6
								c0.6-1.9,1.5-3.7,2.7-5.3c1.6,0.4,3.3,0.7,5.1,0.7c1.9,0,3.7-0.3,5.3-0.8c1.7,0.5,3.5,0.8,5.3,0.8c1.8,0,3.5-0.2,5.1-0.7
								c1.2,1.6,2.1,3.3,2.7,5.3H857.7L857.7,258.6z"/>
						</g>
					</g>
					<g>
						<g>
							<path class="st5" d="M875.8,267.3v8.7h-1.1v-7.6h0l-2.1,1.4v-1.1l2.2-1.5L875.8,267.3L875.8,267.3z"/>
							<path class="st5" d="M881.1,276.1c-0.6,0-1.2-0.2-1.6-0.5c-0.5-0.4-0.8-0.9-1-1.5s-0.4-1.5-0.4-2.4c0-0.9,0.1-1.8,0.4-2.4
								s0.6-1.2,1-1.5c0.5-0.4,1-0.5,1.6-0.5s1.2,0.2,1.6,0.5s0.8,0.9,1,1.5s0.4,1.5,0.4,2.4c0,1-0.1,1.8-0.4,2.4
								c-0.2,0.7-0.6,1.2-1,1.5C882.3,275.9,881.7,276.1,881.1,276.1z M881.1,275.2c0.6,0,1.1-0.3,1.5-0.9c0.3-0.6,0.5-1.5,0.5-2.6
								c0-0.8-0.1-1.4-0.2-1.9s-0.4-0.9-0.7-1.2s-0.7-0.4-1.1-0.4c-0.6,0-1.1,0.3-1.5,0.9s-0.5,1.5-0.5,2.6c0,0.8,0.1,1.4,0.2,1.9
								s0.4,0.9,0.7,1.2S880.7,275.2,881.1,275.2z"/>
						</g>
					</g>
				</g>
			</g>
			<g>
				<defs>
					<rect id="SVGID_00000151525579904227448310000009029699685424320442_" x="98.4" y="47" width="913.9" height="514"/>
				</defs>
				<clipPath id="SVGID_00000170965136592154363680000009437474821014595504_">
					<use xlink:href="#SVGID_00000151525579904227448310000009029699685424320442_"  style="overflow:visible;"/>
				</clipPath>
				<g style="clip-path:url(#SVGID_00000170965136592154363680000009437474821014595504_);">
					<g>
						<g id="g1606" transform="matrix(1.0070935,0,0,1.0102847,-2.1280324,-3.66885)">
							<path id="path1608" class="st33" d="M259.7,457.9c0-1.6,0.2-3.1,0.6-4.5h26.6c0.4,1.4,0.6,3,0.6,4.5c0,8.4-6,15.5-13.9,17.2
								C265.7,473.4,259.7,466.3,259.7,457.9z"/>
						</g>
						<g id="g1610" transform="matrix(1.0125461,0,0,1.0271486,-3.7638021,-3.1017482)">
							<path id="path1612" class="st33" d="M260.7,444.8c0.6-1.9,1.5-3.7,2.7-5.3c1.6,0.5,3.3,0.7,5.1,0.7c1.9,0,3.6-0.3,5.4-0.8
								c1.7,0.5,3.5,0.8,5.4,0.8c1.8,0,3.5-0.2,5.1-0.7c1.2,1.6,2.1,3.3,2.7,5.3H260.7L260.7,444.8z"/>
						</g>
					</g>
					<g>
						<g>
							<path class="st5" d="M273,467.4c-0.6,0-1.1-0.1-1.5-0.3c-0.5-0.2-0.8-0.5-1-0.9c-0.2-0.4-0.4-0.8-0.4-1.3
								c0-0.4,0.1-0.7,0.2-1s0.4-0.6,0.6-0.8c0.3-0.2,0.5-0.4,0.9-0.4v0c-0.4-0.1-0.8-0.3-1-0.7c-0.2-0.4-0.4-0.8-0.4-1.2
								c0-0.4,0.1-0.8,0.3-1.2s0.5-0.6,0.9-0.8s0.9-0.3,1.4-0.3c0.5,0,1,0.1,1.4,0.3c0.4,0.2,0.7,0.5,0.9,0.8
								c0.2,0.4,0.3,0.8,0.4,1.2c0,0.5-0.1,0.9-0.4,1.2s-0.6,0.6-1,0.7v0c0.3,0.1,0.6,0.2,0.9,0.4s0.5,0.5,0.6,0.8
								c0.1,0.3,0.2,0.7,0.2,1c0,0.5-0.1,0.9-0.4,1.3s-0.6,0.7-1,0.9S273.6,467.4,273,467.4z M273,466.5c0.4,0,0.7-0.1,1-0.2
								s0.5-0.3,0.7-0.5s0.2-0.5,0.2-0.8c0-0.3-0.1-0.6-0.3-0.9s-0.4-0.5-0.7-0.6c-0.3-0.1-0.6-0.2-1-0.2s-0.7,0.1-1,0.2
								c-0.3,0.1-0.5,0.3-0.7,0.6s-0.2,0.5-0.2,0.9c0,0.3,0.1,0.6,0.2,0.8c0.1,0.2,0.4,0.4,0.7,0.5
								C272.2,466.4,272.6,466.5,273,466.5z M273,462.3c0.3,0,0.6-0.1,0.8-0.2c0.2-0.1,0.4-0.3,0.6-0.5s0.2-0.5,0.2-0.8
								c0-0.3-0.1-0.5-0.2-0.8c-0.1-0.2-0.3-0.4-0.6-0.5c-0.2-0.1-0.5-0.2-0.8-0.2c-0.3,0-0.6,0.1-0.9,0.2s-0.4,0.3-0.6,0.5
								c-0.1,0.2-0.2,0.5-0.2,0.8c0,0.3,0.1,0.6,0.2,0.8s0.3,0.4,0.6,0.5C272.4,462.3,272.7,462.3,273,462.3z"/>
						</g>
					</g>
				</g>
			</g>
		</g>
	</g>
</g>
<g id="Transmission_Lines_00000105412227799326785440000008611023952942893967_" class="st0">
	<g id="Transmission_Lines" class="st1">
		<g>
			<g>
				<defs>
					<rect id="SVGID_00000098207796895194508290000004395342896796917143_" x="98.4" y="47" width="913.9" height="514"/>
				</defs>
				<clipPath id="SVGID_00000126289826420381740580000000015799319192811692_">
					<use xlink:href="#SVGID_00000098207796895194508290000004395342896796917143_"  style="overflow:visible;"/>
				</clipPath>
				<g style="clip-path:url(#SVGID_00000126289826420381740580000000015799319192811692_);">
					<polyline class="st38" points="316.5,200.6 437.2,200.6 582.5,318.6 689.5,318.6 721,337.1 721,442.1 773.5,543.5 					"/>
					<polyline class="st38" points="376,201.1 376,212.4 398,240.1 398,423.1 408.3,435.9 506.2,435.9 506.2,444.7 711,444.7 
						734,449.1 746,444.1 828,444.1 					"/>
					<polyline class="st38" points="925,396.1 744.8,396.1 687,252.1 687,278.8 					"/>
					<polyline class="st38" points="924,122.2 725.9,122.2 681.5,81.5 					"/>
					<polyline class="st38" points="428.5,82.5 695.5,284.9 695.5,322 					"/>
				</g>
			</g>
		</g>
	</g>
</g>
<g id="Clickable_Factory_00000113311614555073545680000006261908244557358209_" class="st0">
	<g id="Clickable_Factory">
		<g class="st1">
			<g>
				<defs>
					<rect id="SVGID_00000175313441401044111630000009774305469063484808_" x="98.4" y="47" width="913.9" height="514"/>
				</defs>
				<clipPath id="SVGID_00000172427264764191022170000006454649794561044877_">
					<use xlink:href="#SVGID_00000175313441401044111630000009774305469063484808_"  style="overflow:visible;"/>
				</clipPath>
				<g style="clip-path:url(#SVGID_00000172427264764191022170000006454649794561044877_);">
					<g>
						<g>
							<path class="st3" d="M569.1,411.6h-0.8l2.4-6.5h0.8l2.4,6.5h-0.8l-2-5.5h0L569.1,411.6z M569.4,409.1h3.3v0.7h-3.3V409.1z"/>
							<path class="st3" d="M574.8,411.6v-4.9h0.7v0.7h0c0.1-0.2,0.2-0.4,0.5-0.6s0.5-0.2,0.8-0.2c0,0,0.1,0,0.2,0s0.2,0,0.2,0v0.8
								c0,0-0.1,0-0.2,0s-0.2,0-0.3,0c-0.2,0-0.5,0-0.6,0.1s-0.3,0.2-0.4,0.4s-0.2,0.4-0.2,0.6v3.1L574.8,411.6L574.8,411.6z"/>
							<path class="st3" d="M578.6,405.9c-0.2,0-0.3,0-0.4-0.1s-0.2-0.2-0.2-0.4s0-0.3,0.2-0.4c0.1-0.1,0.2-0.1,0.4-0.1
								s0.3,0,0.4,0.1s0.2,0.2,0.2,0.4s0,0.3-0.2,0.4C578.8,405.9,578.7,405.9,578.6,405.9z M578.2,411.6v-4.9h0.8v4.9H578.2z"/>
							<path class="st3" d="M580.2,411.6v-0.6l2.8-3.6v0h-2.7v-0.7h3.7v0.6l-2.7,3.5v0h2.8v0.7L580.2,411.6L580.2,411.6z"/>
							<path class="st3" d="M587.2,411.8c-0.4,0-0.8-0.1-1.2-0.3c-0.3-0.2-0.6-0.5-0.8-0.9s-0.3-0.8-0.3-1.3c0-0.5,0.1-1,0.3-1.3
								s0.5-0.7,0.8-0.9c0.3-0.2,0.7-0.3,1.2-0.3s0.8,0.1,1.2,0.3s0.6,0.5,0.8,0.9s0.3,0.8,0.3,1.3s-0.1,1-0.3,1.3
								c-0.2,0.4-0.5,0.7-0.8,0.9S587.6,411.8,587.2,411.8z M587.2,411.1c0.3,0,0.6-0.1,0.8-0.3s0.4-0.4,0.5-0.7s0.2-0.6,0.2-0.9
								s0-0.6-0.2-0.9s-0.3-0.5-0.5-0.7s-0.5-0.3-0.8-0.3s-0.6,0.1-0.8,0.3c-0.2,0.2-0.4,0.4-0.5,0.7s-0.2,0.6-0.2,0.9
								s0,0.6,0.2,0.9s0.3,0.5,0.5,0.7C586.6,411,586.8,411.1,587.2,411.1z"/>
							<path class="st3" d="M591.3,408.7v3h-0.8v-4.9h0.7v0.8h0.1c0.1-0.2,0.3-0.5,0.5-0.6s0.5-0.2,0.9-0.2c0.3,0,0.6,0.1,0.9,0.2
								s0.4,0.3,0.6,0.6s0.2,0.6,0.2,1v3.1h-0.8v-3.1c0-0.4-0.1-0.7-0.3-0.9c-0.2-0.2-0.5-0.3-0.8-0.3c-0.2,0-0.5,0-0.6,0.2
								s-0.3,0.3-0.5,0.5S591.3,408.4,591.3,408.7z"/>
							<path class="st3" d="M597.3,411.8c-0.3,0-0.6-0.1-0.8-0.2c-0.2-0.1-0.5-0.3-0.6-0.5c-0.2-0.2-0.2-0.5-0.2-0.8
								c0-0.3,0.1-0.5,0.2-0.7s0.3-0.3,0.4-0.4c0.2-0.1,0.4-0.2,0.6-0.2c0.2,0,0.5-0.1,0.7-0.1c0.3,0,0.5-0.1,0.7-0.1s0.3,0,0.4-0.1
								c0.1,0,0.1-0.1,0.1-0.3v0c0-0.3-0.1-0.6-0.3-0.7c-0.2-0.2-0.4-0.3-0.8-0.3c-0.4,0-0.6,0.1-0.8,0.2c-0.2,0.2-0.3,0.3-0.4,0.5
								l-0.7-0.3c0.1-0.3,0.3-0.5,0.5-0.7s0.5-0.3,0.7-0.4s0.5-0.1,0.8-0.1c0.2,0,0.3,0,0.5,0.1c0.2,0,0.4,0.1,0.6,0.2
								c0.2,0.1,0.3,0.3,0.5,0.5c0.1,0.2,0.2,0.5,0.2,0.9v3.2h-0.8V411h0c0,0.1-0.1,0.2-0.3,0.3s-0.3,0.2-0.5,0.3
								S597.5,411.8,597.3,411.8z M597.4,411.1c0.3,0,0.5-0.1,0.8-0.2s0.4-0.3,0.5-0.5c0.1-0.2,0.2-0.4,0.2-0.6v-0.7
								c0,0-0.1,0.1-0.2,0.1c-0.1,0-0.2,0.1-0.4,0.1s-0.3,0-0.4,0.1c-0.1,0-0.2,0-0.3,0c-0.2,0-0.4,0.1-0.5,0.1
								c-0.2,0.1-0.3,0.1-0.4,0.2s-0.2,0.3-0.2,0.5c0,0.3,0.1,0.5,0.3,0.6C596.8,411,597.1,411.1,597.4,411.1z"/>
							<path class="st3" d="M604.3,405.1v6.5h-0.8v-6.5H604.3z"/>
							<path class="st3" d="M606.6,408.7v3h-0.8v-4.9h0.7v0.8h0.1c0.1-0.2,0.3-0.5,0.5-0.6s0.5-0.2,0.9-0.2c0.3,0,0.6,0.1,0.9,0.2
								s0.4,0.3,0.6,0.6s0.2,0.6,0.2,1v3.1h-0.8v-3.1c0-0.4-0.1-0.7-0.3-0.9c-0.2-0.2-0.5-0.3-0.8-0.3c-0.2,0-0.5,0-0.6,0.2
								s-0.3,0.3-0.5,0.5S606.6,408.4,606.6,408.7z"/>
							<path class="st3" d="M611.8,408.7v3h-0.8v-4.9h0.7v0.8h0.1c0.1-0.2,0.3-0.5,0.5-0.6s0.5-0.2,0.9-0.2c0.3,0,0.6,0.1,0.9,0.2
								s0.4,0.3,0.6,0.6s0.2,0.6,0.2,1v3.1h-0.8v-3.1c0-0.4-0.1-0.7-0.3-0.9c-0.2-0.2-0.5-0.3-0.8-0.3c-0.2,0-0.5,0-0.6,0.2
								s-0.3,0.3-0.5,0.5S611.8,408.4,611.8,408.7z"/>
							<path class="st3" d="M618.3,411.8c-0.4,0-0.8-0.1-1.2-0.3c-0.3-0.2-0.6-0.5-0.8-0.9s-0.3-0.8-0.3-1.3c0-0.5,0.1-1,0.3-1.3
								s0.5-0.7,0.8-0.9c0.3-0.2,0.7-0.3,1.2-0.3s0.8,0.1,1.2,0.3s0.6,0.5,0.8,0.9s0.3,0.8,0.3,1.3s-0.1,1-0.3,1.3
								c-0.2,0.4-0.5,0.7-0.8,0.9S618.8,411.8,618.3,411.8z M618.3,411.1c0.3,0,0.6-0.1,0.8-0.3s0.4-0.4,0.5-0.7s0.2-0.6,0.2-0.9
								s0-0.6-0.2-0.9s-0.3-0.5-0.5-0.7s-0.5-0.3-0.8-0.3s-0.6,0.1-0.8,0.3c-0.2,0.2-0.4,0.4-0.5,0.7s-0.2,0.6-0.2,0.9
								s0,0.6,0.2,0.9s0.3,0.5,0.5,0.7C617.7,411,618,411.1,618.3,411.1z"/>
							<path class="st3" d="M625.7,406.7l-1.8,4.9h-0.8l-1.8-4.9h0.8l1.4,3.9h0l1.4-3.9H625.7z"/>
							<path class="st3" d="M628.2,411.8c-0.3,0-0.6-0.1-0.8-0.2c-0.2-0.1-0.5-0.3-0.6-0.5c-0.2-0.2-0.2-0.5-0.2-0.8
								c0-0.3,0.1-0.5,0.2-0.7s0.3-0.3,0.4-0.4c0.2-0.1,0.4-0.2,0.6-0.2c0.2,0,0.5-0.1,0.7-0.1c0.3,0,0.5-0.1,0.7-0.1s0.3,0,0.4-0.1
								c0.1,0,0.1-0.1,0.1-0.3v0c0-0.3-0.1-0.6-0.3-0.7c-0.2-0.2-0.4-0.3-0.8-0.3c-0.4,0-0.6,0.1-0.8,0.2c-0.2,0.2-0.3,0.3-0.4,0.5
								l-0.7-0.3c0.1-0.3,0.3-0.5,0.5-0.7s0.5-0.3,0.7-0.4s0.5-0.1,0.8-0.1c0.2,0,0.3,0,0.5,0.1c0.2,0,0.4,0.1,0.6,0.2
								c0.2,0.1,0.3,0.3,0.5,0.5c0.1,0.2,0.2,0.5,0.2,0.9v3.2h-0.8V411h0c0,0.1-0.1,0.2-0.3,0.3s-0.3,0.2-0.5,0.3
								S628.5,411.8,628.2,411.8z M628.3,411.1c0.3,0,0.5-0.1,0.8-0.2s0.4-0.3,0.5-0.5c0.1-0.2,0.2-0.4,0.2-0.6v-0.7
								c0,0-0.1,0.1-0.2,0.1c-0.1,0-0.2,0.1-0.4,0.1s-0.3,0-0.4,0.1c-0.1,0-0.2,0-0.3,0c-0.2,0-0.4,0.1-0.5,0.1
								c-0.2,0.1-0.3,0.1-0.4,0.2s-0.2,0.3-0.2,0.5c0,0.3,0.1,0.5,0.3,0.6C627.7,411,628,411.1,628.3,411.1z"/>
							<path class="st3" d="M633.9,406.7v0.6h-2.5v-0.6H633.9z M632.1,405.6h0.8v4.7c0,0.2,0,0.4,0.1,0.5c0.1,0.1,0.1,0.2,0.2,0.2
								c0.1,0,0.2,0,0.3,0c0.1,0,0.2,0,0.2,0c0,0,0.1,0,0.1,0l0.2,0.7c0,0-0.1,0-0.2,0.1s-0.2,0-0.3,0c-0.2,0-0.4,0-0.6-0.1
								s-0.4-0.2-0.5-0.4s-0.2-0.4-0.2-0.7L632.1,405.6L632.1,405.6z"/>
							<path class="st3" d="M635.5,405.9c-0.2,0-0.3,0-0.4-0.1s-0.2-0.2-0.2-0.4s0-0.3,0.2-0.4c0.1-0.1,0.2-0.1,0.4-0.1
								s0.3,0,0.4,0.1s0.2,0.2,0.2,0.4s0,0.3-0.2,0.4C635.7,405.9,635.6,405.9,635.5,405.9z M635.1,411.6v-4.9h0.8v4.9H635.1z"/>
							<path class="st3" d="M639.2,411.8c-0.4,0-0.8-0.1-1.2-0.3c-0.3-0.2-0.6-0.5-0.8-0.9s-0.3-0.8-0.3-1.3c0-0.5,0.1-1,0.3-1.3
								s0.5-0.7,0.8-0.9c0.3-0.2,0.7-0.3,1.2-0.3s0.8,0.1,1.2,0.3s0.6,0.5,0.8,0.9s0.3,0.8,0.3,1.3s-0.1,1-0.3,1.3
								c-0.2,0.4-0.5,0.7-0.8,0.9S639.6,411.8,639.2,411.8z M639.2,411.1c0.3,0,0.6-0.1,0.8-0.3s0.4-0.4,0.5-0.7s0.2-0.6,0.2-0.9
								s0-0.6-0.2-0.9s-0.3-0.5-0.5-0.7s-0.5-0.3-0.8-0.3s-0.6,0.1-0.8,0.3c-0.2,0.2-0.4,0.4-0.5,0.7s-0.2,0.6-0.2,0.9
								s0,0.6,0.2,0.9s0.3,0.5,0.5,0.7C638.6,411,638.9,411.1,639.2,411.1z"/>
							<path class="st3" d="M643.3,408.7v3h-0.8v-4.9h0.7v0.8h0.1c0.1-0.2,0.3-0.5,0.5-0.6s0.5-0.2,0.9-0.2c0.3,0,0.6,0.1,0.9,0.2
								s0.4,0.3,0.6,0.6s0.2,0.6,0.2,1v3.1h-0.8v-3.1c0-0.4-0.1-0.7-0.3-0.9c-0.2-0.2-0.5-0.3-0.8-0.3c-0.2,0-0.5,0-0.6,0.2
								s-0.3,0.3-0.5,0.5S643.3,408.4,643.3,408.7z"/>
							<path class="st3" d="M651.8,411.8c-0.3,0-0.6-0.1-0.8-0.2c-0.2-0.1-0.5-0.3-0.6-0.5c-0.2-0.2-0.2-0.5-0.2-0.8
								c0-0.3,0.1-0.5,0.2-0.7s0.3-0.3,0.4-0.4c0.2-0.1,0.4-0.2,0.6-0.2c0.2,0,0.5-0.1,0.7-0.1c0.3,0,0.5-0.1,0.7-0.1s0.3,0,0.4-0.1
								c0.1,0,0.1-0.1,0.1-0.3v0c0-0.3-0.1-0.6-0.3-0.7c-0.2-0.2-0.4-0.3-0.8-0.3c-0.4,0-0.6,0.1-0.8,0.2c-0.2,0.2-0.3,0.3-0.4,0.5
								l-0.7-0.3c0.1-0.3,0.3-0.5,0.5-0.7s0.5-0.3,0.7-0.4s0.5-0.1,0.8-0.1c0.2,0,0.3,0,0.5,0.1c0.2,0,0.4,0.1,0.6,0.2
								c0.2,0.1,0.3,0.3,0.5,0.5c0.1,0.2,0.2,0.5,0.2,0.9v3.2h-0.8V411h0c0,0.1-0.1,0.2-0.3,0.3s-0.3,0.2-0.5,0.3
								S652.1,411.8,651.8,411.8z M651.9,411.1c0.3,0,0.5-0.1,0.8-0.2s0.4-0.3,0.5-0.5c0.1-0.2,0.2-0.4,0.2-0.6v-0.7
								c0,0-0.1,0.1-0.2,0.1c-0.1,0-0.2,0.1-0.4,0.1s-0.3,0-0.4,0.1c-0.1,0-0.2,0-0.3,0c-0.2,0-0.4,0.1-0.5,0.1
								c-0.2,0.1-0.3,0.1-0.4,0.2s-0.2,0.3-0.2,0.5c0,0.3,0.1,0.5,0.3,0.6C651.4,411,651.6,411.1,651.9,411.1z"/>
							<path class="st3" d="M656.2,408.7v3h-0.8v-4.9h0.7v0.8h0.1c0.1-0.2,0.3-0.5,0.5-0.6s0.5-0.2,0.9-0.2c0.3,0,0.6,0.1,0.9,0.2
								s0.4,0.3,0.6,0.6s0.2,0.6,0.2,1v3.1h-0.8v-3.1c0-0.4-0.1-0.7-0.3-0.9c-0.2-0.2-0.5-0.3-0.8-0.3c-0.2,0-0.5,0-0.6,0.2
								s-0.3,0.3-0.5,0.5S656.2,408.4,656.2,408.7z"/>
							<path class="st3" d="M662.6,411.8c-0.4,0-0.8-0.1-1.1-0.3s-0.6-0.5-0.7-0.9s-0.3-0.8-0.3-1.4c0-0.5,0.1-1,0.3-1.3
								s0.4-0.7,0.7-0.9s0.7-0.3,1.1-0.3c0.3,0,0.6,0,0.8,0.2c0.2,0.1,0.3,0.2,0.4,0.4c0.1,0.1,0.2,0.2,0.2,0.3h0.1v-2.4h0.8v6.5
								h-0.7v-0.8H664c0,0.1-0.1,0.2-0.2,0.3c-0.1,0.1-0.2,0.3-0.4,0.4S662.9,411.8,662.6,411.8z M662.7,411.1
								c0.3,0,0.6-0.1,0.8-0.2s0.4-0.4,0.5-0.7s0.2-0.6,0.2-1c0-0.4,0-0.7-0.2-1c-0.1-0.3-0.3-0.5-0.5-0.6s-0.5-0.2-0.8-0.2
								c-0.3,0-0.6,0.1-0.8,0.2s-0.4,0.4-0.5,0.7s-0.2,0.6-0.2,0.9c0,0.4,0,0.7,0.2,1c0.1,0.3,0.3,0.5,0.5,0.7
								C662.1,411,662.3,411.1,662.7,411.1z"/>
							<path class="st3" d="M578.5,416.6v-0.7h4.9v0.7h-2.1v5.8h-0.8v-5.8H578.5z"/>
							<path class="st3" d="M586.5,422.5c-0.5,0-0.9-0.1-1.2-0.3s-0.6-0.5-0.8-0.9s-0.3-0.8-0.3-1.3s0.1-1,0.3-1.3
								c0.2-0.4,0.4-0.7,0.8-0.9s0.7-0.3,1.2-0.3c0.3,0,0.5,0,0.8,0.1c0.2,0.1,0.5,0.2,0.7,0.4s0.4,0.4,0.5,0.8
								c0.1,0.3,0.2,0.7,0.2,1.2v0.3h-3.8v-0.6h3c0-0.3-0.1-0.5-0.2-0.7s-0.3-0.4-0.5-0.5s-0.4-0.2-0.7-0.2c-0.3,0-0.6,0.1-0.8,0.2
								c-0.2,0.1-0.4,0.3-0.5,0.6s-0.2,0.5-0.2,0.8v0.4c0,0.4,0.1,0.7,0.2,0.9s0.3,0.5,0.5,0.6c0.2,0.1,0.5,0.2,0.8,0.2
								c0.2,0,0.4,0,0.5-0.1c0.2-0.1,0.3-0.1,0.4-0.2s0.2-0.3,0.3-0.4l0.7,0.2c-0.1,0.2-0.2,0.5-0.4,0.6s-0.4,0.3-0.7,0.4
								S586.9,422.5,586.5,422.5z"/>
							<path class="st3" d="M591.7,422.5c-0.5,0-0.9-0.1-1.2-0.3s-0.6-0.5-0.8-0.9s-0.3-0.8-0.3-1.3c0-0.5,0.1-0.9,0.3-1.3
								c0.2-0.4,0.4-0.7,0.8-0.9s0.7-0.3,1.2-0.3c0.3,0,0.7,0.1,0.9,0.2c0.3,0.1,0.5,0.3,0.7,0.5s0.3,0.5,0.3,0.8h-0.8
								c-0.1-0.2-0.2-0.4-0.4-0.6c-0.2-0.2-0.5-0.3-0.8-0.3c-0.3,0-0.5,0.1-0.8,0.2s-0.4,0.4-0.5,0.6c-0.1,0.3-0.2,0.6-0.2,1
								c0,0.4,0.1,0.7,0.2,1s0.3,0.5,0.5,0.7c0.2,0.2,0.5,0.2,0.8,0.2c0.2,0,0.4,0,0.5-0.1c0.2-0.1,0.3-0.2,0.4-0.3
								c0.1-0.1,0.2-0.3,0.2-0.5h0.8c0,0.3-0.2,0.5-0.3,0.8s-0.4,0.4-0.7,0.5C592.4,422.5,592.1,422.5,591.7,422.5z"/>
							<path class="st3" d="M595.5,419.5v3h-0.8v-6.5h0.8v2.4h0.1c0.1-0.2,0.3-0.5,0.5-0.6c0.2-0.1,0.5-0.2,0.9-0.2
								c0.3,0,0.6,0.1,0.9,0.2s0.5,0.3,0.6,0.6s0.2,0.6,0.2,1v3.1h-0.8v-3.1c0-0.4-0.1-0.7-0.3-0.9c-0.2-0.2-0.5-0.3-0.8-0.3
								c-0.2,0-0.5,0-0.7,0.2c-0.2,0.1-0.3,0.3-0.5,0.5C595.6,419,595.5,419.2,595.5,419.5z"/>
							<path class="st3" d="M600.8,419.5v3h-0.8v-4.9h0.7v0.8h0.1c0.1-0.2,0.3-0.5,0.5-0.6s0.5-0.2,0.9-0.2c0.3,0,0.6,0.1,0.9,0.2
								s0.4,0.3,0.6,0.6s0.2,0.6,0.2,1v3.1h-0.8v-3.1c0-0.4-0.1-0.7-0.3-0.9c-0.2-0.2-0.5-0.3-0.8-0.3c-0.2,0-0.5,0-0.6,0.2
								s-0.3,0.3-0.5,0.5S600.8,419.2,600.8,419.5z"/>
							<path class="st3" d="M607.3,422.5c-0.4,0-0.8-0.1-1.2-0.3c-0.3-0.2-0.6-0.5-0.8-0.9s-0.3-0.8-0.3-1.3c0-0.5,0.1-1,0.3-1.3
								s0.5-0.7,0.8-0.9c0.3-0.2,0.7-0.3,1.2-0.3s0.8,0.1,1.2,0.3s0.6,0.5,0.8,0.9s0.3,0.8,0.3,1.3s-0.1,1-0.3,1.3
								c-0.2,0.4-0.5,0.7-0.8,0.9S607.8,422.5,607.3,422.5z M607.3,421.9c0.3,0,0.6-0.1,0.8-0.3s0.4-0.4,0.5-0.7s0.2-0.6,0.2-0.9
								s0-0.6-0.2-0.9s-0.3-0.5-0.5-0.7s-0.5-0.3-0.8-0.3s-0.6,0.1-0.8,0.3c-0.2,0.2-0.4,0.4-0.5,0.7s-0.2,0.6-0.2,0.9
								s0,0.6,0.2,0.9s0.3,0.5,0.5,0.7C606.7,421.8,607,421.9,607.3,421.9z"/>
							<path class="st3" d="M611.5,415.9v6.5h-0.8v-6.5H611.5z"/>
							<path class="st3" d="M614.8,422.5c-0.4,0-0.8-0.1-1.2-0.3c-0.3-0.2-0.6-0.5-0.8-0.9s-0.3-0.8-0.3-1.3c0-0.5,0.1-1,0.3-1.3
								s0.5-0.7,0.8-0.9c0.3-0.2,0.7-0.3,1.2-0.3s0.8,0.1,1.2,0.3s0.6,0.5,0.8,0.9s0.3,0.8,0.3,1.3s-0.1,1-0.3,1.3
								c-0.2,0.4-0.5,0.7-0.8,0.9S615.3,422.5,614.8,422.5z M614.8,421.9c0.3,0,0.6-0.1,0.8-0.3s0.4-0.4,0.5-0.7s0.2-0.6,0.2-0.9
								s0-0.6-0.2-0.9s-0.3-0.5-0.5-0.7s-0.5-0.3-0.8-0.3s-0.6,0.1-0.8,0.3c-0.2,0.2-0.4,0.4-0.5,0.7s-0.2,0.6-0.2,0.9
								s0,0.6,0.2,0.9s0.3,0.5,0.5,0.7C614.2,421.8,614.5,421.9,614.8,421.9z"/>
							<path class="st3" d="M620.2,424.4c-0.4,0-0.7,0-0.9-0.1c-0.3-0.1-0.5-0.2-0.7-0.4c-0.2-0.1-0.3-0.3-0.4-0.5l0.6-0.4
								c0.1,0.1,0.2,0.2,0.3,0.3s0.2,0.2,0.4,0.3c0.2,0.1,0.4,0.1,0.7,0.1c0.4,0,0.7-0.1,1-0.3s0.4-0.5,0.4-0.9v-1h-0.1
								c0,0.1-0.1,0.2-0.2,0.3c-0.1,0.1-0.2,0.2-0.4,0.4c-0.2,0.1-0.4,0.1-0.8,0.1c-0.4,0-0.8-0.1-1.1-0.3c-0.3-0.2-0.6-0.5-0.8-0.8
								c-0.2-0.4-0.3-0.8-0.3-1.3c0-0.5,0.1-0.9,0.3-1.3s0.4-0.7,0.7-0.9s0.7-0.3,1.1-0.3c0.3,0,0.6,0,0.8,0.2s0.3,0.2,0.4,0.4
								c0.1,0.1,0.2,0.2,0.2,0.3h0.1v-0.8h0.7v5c0,0.4-0.1,0.8-0.3,1s-0.5,0.5-0.8,0.6C620.9,424.3,620.6,424.4,620.2,424.4z
								 M620.2,421.7c0.3,0,0.6-0.1,0.8-0.2s0.4-0.3,0.5-0.6s0.2-0.6,0.2-0.9c0-0.4,0-0.7-0.2-0.9s-0.3-0.5-0.5-0.6
								s-0.5-0.2-0.8-0.2c-0.3,0-0.6,0.1-0.8,0.2c-0.2,0.2-0.4,0.4-0.5,0.6s-0.2,0.6-0.2,0.9c0,0.3,0,0.6,0.2,0.9s0.3,0.5,0.5,0.6
								C619.6,421.6,619.9,421.7,620.2,421.7z"/>
							<path class="st3" d="M624.2,424.3c-0.1,0-0.2,0-0.3,0c-0.1,0-0.2,0-0.2-0.1l0.2-0.7c0.3,0.1,0.5,0.1,0.7,0
								c0.2-0.1,0.3-0.3,0.5-0.7l0.1-0.4l-1.8-4.9h0.8l1.4,3.9h0l1.4-3.9l0.8,0l-2.1,5.6c-0.1,0.2-0.2,0.5-0.3,0.6s-0.3,0.3-0.5,0.4
								C624.6,424.2,624.4,424.3,624.2,424.3z"/>
							<path class="st3" d="M636.6,417.9h-0.8c0-0.2-0.1-0.4-0.2-0.6s-0.3-0.3-0.4-0.4s-0.3-0.2-0.5-0.3s-0.4-0.1-0.6-0.1
								c-0.4,0-0.8,0.1-1.1,0.3s-0.6,0.5-0.8,0.9c-0.2,0.4-0.3,0.9-0.3,1.4s0.1,1,0.3,1.4c0.2,0.4,0.4,0.7,0.8,0.9s0.7,0.3,1.1,0.3
								c0.2,0,0.4,0,0.6-0.1s0.4-0.1,0.5-0.3s0.3-0.3,0.4-0.4c0.1-0.2,0.2-0.4,0.2-0.6h0.8c-0.1,0.3-0.2,0.6-0.3,0.9
								c-0.2,0.3-0.3,0.5-0.6,0.7c-0.2,0.2-0.5,0.3-0.8,0.4s-0.6,0.1-0.9,0.1c-0.6,0-1-0.1-1.5-0.4s-0.8-0.7-1-1.2s-0.4-1.1-0.4-1.8
								s0.1-1.3,0.4-1.8s0.6-0.9,1-1.2s0.9-0.4,1.5-0.4c0.3,0,0.6,0,0.9,0.1c0.3,0.1,0.5,0.2,0.8,0.4c0.2,0.2,0.4,0.4,0.6,0.7
								C636.5,417.3,636.6,417.6,636.6,417.9z"/>
							<path class="st3" d="M639.8,422.5c-0.4,0-0.8-0.1-1.2-0.3c-0.3-0.2-0.6-0.5-0.8-0.9s-0.3-0.8-0.3-1.3c0-0.5,0.1-1,0.3-1.3
								s0.5-0.7,0.8-0.9c0.3-0.2,0.7-0.3,1.2-0.3s0.8,0.1,1.2,0.3s0.6,0.5,0.8,0.9s0.3,0.8,0.3,1.3s-0.1,1-0.3,1.3
								c-0.2,0.4-0.5,0.7-0.8,0.9S640.2,422.5,639.8,422.5z M639.8,421.9c0.3,0,0.6-0.1,0.8-0.3s0.4-0.4,0.5-0.7s0.2-0.6,0.2-0.9
								s0-0.6-0.2-0.9s-0.3-0.5-0.5-0.7s-0.5-0.3-0.8-0.3s-0.6,0.1-0.8,0.3c-0.2,0.2-0.4,0.4-0.5,0.7s-0.2,0.6-0.2,0.9
								s0,0.6,0.2,0.9s0.3,0.5,0.5,0.7C639.2,421.8,639.5,421.9,639.8,421.9z"/>
							<path class="st3" d="M643.2,422.4v-4.9h0.7v0.7h0c0.1-0.2,0.2-0.4,0.5-0.6s0.5-0.2,0.8-0.2c0,0,0.1,0,0.2,0s0.2,0,0.2,0v0.8
								c0,0-0.1,0-0.2,0s-0.2,0-0.3,0c-0.2,0-0.5,0-0.6,0.1s-0.3,0.2-0.4,0.4s-0.2,0.4-0.2,0.6v3.1L643.2,422.4L643.2,422.4z"/>
							<path class="st3" d="M646.5,422.4v-4.9h0.7v0.7h0c0.1-0.2,0.2-0.4,0.5-0.6s0.5-0.2,0.8-0.2c0,0,0.1,0,0.2,0s0.2,0,0.2,0v0.8
								c0,0-0.1,0-0.2,0s-0.2,0-0.3,0c-0.2,0-0.5,0-0.6,0.1s-0.3,0.2-0.4,0.4s-0.2,0.4-0.2,0.6v3.1L646.5,422.4L646.5,422.4z"/>
							<path class="st3" d="M650.2,416.7c-0.2,0-0.3,0-0.4-0.1s-0.2-0.2-0.2-0.4s0-0.3,0.2-0.4c0.1-0.1,0.2-0.1,0.4-0.1
								s0.3,0,0.4,0.1s0.2,0.2,0.2,0.4s0,0.3-0.2,0.4C650.5,416.7,650.4,416.7,650.2,416.7z M649.9,422.4v-4.9h0.8v4.9H649.9z"/>
							<path class="st3" d="M653.8,422.5c-0.4,0-0.8-0.1-1.1-0.3s-0.6-0.5-0.7-0.9s-0.3-0.8-0.3-1.4c0-0.5,0.1-1,0.3-1.3
								s0.4-0.7,0.7-0.9s0.7-0.3,1.1-0.3c0.3,0,0.6,0,0.8,0.2c0.2,0.1,0.3,0.2,0.4,0.4c0.1,0.1,0.2,0.2,0.2,0.3h0.1v-2.4h0.8v6.5
								h-0.7v-0.8h-0.1c0,0.1-0.1,0.2-0.2,0.3c-0.1,0.1-0.2,0.3-0.4,0.4S654.2,422.5,653.8,422.5z M654,421.9c0.3,0,0.6-0.1,0.8-0.2
								s0.4-0.4,0.5-0.7s0.2-0.6,0.2-1c0-0.4,0-0.7-0.2-1c-0.1-0.3-0.3-0.5-0.5-0.6s-0.5-0.2-0.8-0.2c-0.3,0-0.6,0.1-0.8,0.2
								s-0.4,0.4-0.5,0.7s-0.2,0.6-0.2,0.9c0,0.4,0,0.7,0.2,1c0.1,0.3,0.3,0.5,0.5,0.7C653.4,421.8,653.6,421.9,654,421.9z"/>
							<path class="st3" d="M659.6,422.5c-0.4,0-0.8-0.1-1.2-0.3c-0.3-0.2-0.6-0.5-0.8-0.9s-0.3-0.8-0.3-1.3c0-0.5,0.1-1,0.3-1.3
								s0.5-0.7,0.8-0.9c0.3-0.2,0.7-0.3,1.2-0.3s0.8,0.1,1.2,0.3s0.6,0.5,0.8,0.9s0.3,0.8,0.3,1.3s-0.1,1-0.3,1.3
								c-0.2,0.4-0.5,0.7-0.8,0.9S660,422.5,659.6,422.5z M659.6,421.9c0.3,0,0.6-0.1,0.8-0.3s0.4-0.4,0.5-0.7s0.2-0.6,0.2-0.9
								s0-0.6-0.2-0.9s-0.3-0.5-0.5-0.7s-0.5-0.3-0.8-0.3s-0.6,0.1-0.8,0.3c-0.2,0.2-0.4,0.4-0.5,0.7s-0.2,0.6-0.2,0.9
								s0,0.6,0.2,0.9s0.3,0.5,0.5,0.7C659,421.8,659.2,421.9,659.6,421.9z"/>
							<path class="st3" d="M663,422.4v-4.9h0.7v0.7h0c0.1-0.2,0.2-0.4,0.5-0.6s0.5-0.2,0.8-0.2c0,0,0.1,0,0.2,0s0.2,0,0.2,0v0.8
								c0,0-0.1,0-0.2,0s-0.2,0-0.3,0c-0.2,0-0.5,0-0.6,0.1s-0.3,0.2-0.4,0.4s-0.2,0.4-0.2,0.6v3.1L663,422.4L663,422.4z"/>
						</g>
					</g>
				</g>
			</g>
			<g>
				<defs>
					<rect id="SVGID_00000132062088499264109880000008506811257985972128_" x="98.4" y="47" width="913.9" height="514"/>
				</defs>
				<clipPath id="SVGID_00000168803669452666737510000017639871732734623626_">
					<use xlink:href="#SVGID_00000132062088499264109880000008506811257985972128_"  style="overflow:visible;"/>
				</clipPath>
				<g style="clip-path:url(#SVGID_00000168803669452666737510000017639871732734623626_);">
					<rect x="675" y="413" class="st41" width="30" height="10.2"/>
					<g>
						<rect x="692.7" y="406.2" class="st41" width="4.1" height="8.2"/>
						<rect x="698.2" y="406.2" class="st41" width="4.1" height="8.2"/>
						<polygon class="st41" points="681.8,407.6 681.8,414.4 675,414.4 675,413 						"/>
						<polygon class="st41" points="688.6,407.6 688.6,414.4 681.8,414.4 681.8,413 						"/>
					</g>
					<g>
						<rect x="676.4" y="414.6" class="st2" width="5.9" height="1.9"/>
						<rect x="683.5" y="414.6" class="st2" width="5.9" height="1.9"/>
						<rect x="690.6" y="414.6" class="st2" width="5.9" height="1.9"/>
						<rect x="697.7" y="414.6" class="st2" width="5.9" height="1.9"/>
					</g>
				</g>
			</g>
		</g>
	</g>
</g>
<g id="Block_Clickable_00000146461027651242458950000010323322420390298777_" class="st0">
	<g id="Block_Clickable" class="st1">
		<g class="st0">
			<g class="st1">
				<defs>
					<rect id="SVGID_00000155846625777937420350000007334409860871703971_" x="98.4" y="47" width="913.9" height="514"/>
				</defs>
				<clipPath id="SVGID_00000178917971688916130710000009057278834116294827_">
					<use xlink:href="#SVGID_00000155846625777937420350000007334409860871703971_"  style="overflow:visible;"/>
				</clipPath>
				<g style="display:none;clip-path:url(#SVGID_00000178917971688916130710000009057278834116294827_);">
					<polygon class="st42" points="524.7,207 524.7,257 504.9,257 504.9,311.1 466.3,311.1 466.3,330.5 479.5,330.5 479.5,348.7 
						466.3,348.7 466.3,360.7 458.6,360.7 458.6,376 575.8,376 575.8,357.5 566.1,357.5 566.1,339.8 575.8,339.8 575.8,311.5 
						594.8,311.5 594.8,293.1 600.9,291.5 597.5,285.8 600.9,280.9 604.8,283.6 608.3,276.1 613.3,274.4 613.3,207 597.5,207 
						597.5,223.3 595.5,223.3 595.5,225.6 587,225.6 587,227.5 577.7,227.5 577.7,225.6 569.2,225.6 569.2,227.5 550.6,227.5 
						550.6,224 542.5,224 542.5,207 					"/>
					<text transform="matrix(1 0 0 1 509.998 282.187)" class="st45 st46 st47">Explore</text>
					<text transform="matrix(1 0 0 1 509.998 304.377)" class="st45 st46 st47">Santa</text>
					<text transform="matrix(1 0 0 1 509.998 326.577)" class="st45 st46 st47">Cruz</text>
				</g>
			</g>
		</g>
	</g>
</g>
<g id="Animated_Vehicles_00000180368968098070509630000002247920736302187140_" class="st0">
</g>
<g id="compass">
	<g>
		<defs>
			<rect id="SVGID_00000134970522539026994950000007996528830082492861_" x="98.6" y="47" width="913.9" height="514"/>
		</defs>
		<clipPath id="SVGID_00000000212959124744528250000001776637174261305230_">
			<use xlink:href="#SVGID_00000134970522539026994950000007996528830082492861_"  style="overflow:visible;"/>
		</clipPath>
		<g style="clip-path:url(#SVGID_00000000212959124744528250000001776637174261305230_);">
			<path class="st55" d="M110.8,515.5c-0.9,0.6-1.8,1.2-2.6,2.1c-5.5,5.5-5.5,14.4,0,19.9s14.4,5.5,19.9,0s5.5-14.4,0-19.9
				c-0.9-0.9-1.8-1.6-2.8-2.2"/>
			<polygon class="st56" points="118,534.4 114.6,527.4 118.2,519.8 121.9,527 			"/>
			<g>
				<path class="st5" d="M121.1,516.2h-1.1l-3.9-5.6h-0.1v5.6H115v-7.6h1.1l3.9,5.6h0.1v-5.6h1.1
					C121.1,508.6,121.1,516.2,121.1,516.2z"/>
			</g>
		</g>
	</g>
</g>
</svg>
