<?xml version="1.0" encoding="UTF-8"?>
<svg id="Layer_2" data-name="Layer 2" xmlns="http://www.w3.org/2000/svg" viewBox="0 0 158.05 172.39">
  <defs>
    <style>
      .cls-1 {
        stroke: red;
      }

      .cls-1, .cls-2 {
        fill: none;
        stroke-miterlimit: 10;
        stroke-width: 3px;
      }

      .cls-2 {
        stroke: #fff;
      }
    </style>
  </defs>
  <g id="Block_Clickable" data-name="Block Clickable">
    <g id="glow">
      <polyline class="cls-1" points="67.91 1.89 67.91 51.85 48.07 51.85 48.07 106.02 9.46 106.02 9.46 125.37 22.66 125.37 22.66 143.56 9.46 143.56 9.46 155.58 1.78 155.58 1.78 170.89 119.01 170.89 119.01 152.44 109.33 152.44 109.33 134.66 119.01 134.66 119.01 106.4 137.97 106.4 137.97 88.05 144.15 86.39 140.68 80.74 144.15 75.83 148.04 78.54 151.48 70.98 156.55 69.3 156.55 1.89 140.68 1.89 140.68 18.22 138.75 18.22 138.75 20.47 130.23 20.47 130.23 22.41 120.94 22.41 120.94 20.47 112.43 20.47 112.43 22.41 93.85 22.41 93.85 18.93 85.72 18.93 85.72 1.89 67.91 1.89"/>
    </g>
    <g id="outline">
      <polyline class="cls-2" points="67.63 1.5 67.63 51.45 47.8 51.45 47.8 105.62 9.19 105.62 9.19 124.98 22.39 124.98 22.39 143.17 9.19 143.17 9.19 155.18 1.5 155.18 1.5 170.5 118.73 170.5 118.73 152.05 109.05 152.05 109.05 134.27 118.73 134.27 118.73 106.01 137.7 106.01 137.7 87.65 143.87 86 140.41 80.34 143.87 75.43 147.76 78.14 151.21 70.59 156.28 68.91 156.28 1.5 140.41 1.5 140.41 17.82 138.47 17.82 138.47 20.08 129.95 20.08 129.95 22.02 120.66 22.02 120.66 20.08 112.15 20.08 112.15 22.02 93.57 22.02 93.57 18.53 85.44 18.53 85.44 1.5 67.63 1.5"/>
    </g>
  </g>
</svg>