<?xml version="1.0" encoding="utf-8"?>
<!-- Generator: Adobe Illustrator 27.5.0, SVG Export Plug-In . SVG Version: 6.00 Build 0)  -->
<svg version="1.1" id="phase2" xmlns="http://www.w3.org/2000/svg" xmlns:xlink="http://www.w3.org/1999/xlink" x="0px" y="0px"
	 viewBox="0 0 154.8 169" style="enable-background:new 0 0 154.8 169;" xml:space="preserve">
<style type="text/css">
	.st0{display:none;}
	.st1{display:inline;}
	.st2{display:none;clip-path:url(#SVGID_00000005966315853003479630000003887815218023741610_);}
	.st3{display:inline;fill:#BD3828;}
	.st4{fill:#BD3828;}
	.st5{display:none;fill:none;}
</style>
<g id="Block_Clickable">
	<g>
		<polygon class="st4" points="66.1,0 66.1,50 46.3,50 46.3,104.1 7.7,104.1 7.7,123.5 20.9,123.5 20.9,141.7 7.7,141.7 7.7,153.7 
			0,153.7 0,169 117.2,169 117.2,150.5 107.6,150.5 107.6,132.8 117.2,132.8 117.2,104.5 136.2,104.5 136.2,86.2 142.4,84.5 
			138.9,78.8 142.4,73.9 146.3,76.6 149.7,69.1 154.8,67.4 154.8,0 138.9,0 138.9,16.3 137,16.3 137,18.6 128.5,18.6 128.5,20.5 
			119.2,20.5 119.2,18.6 110.7,18.6 110.7,20.5 92.1,20.5 92.1,17 83.9,17 83.9,0 		"/>
	</g>
</g>
</svg>
