<?xml version="1.0" encoding="UTF-8"?>
<svg id="Layer_2" data-name="Layer 2" xmlns="http://www.w3.org/2000/svg" viewBox="0 0 31.08 23.08">
  <defs>
    <style>
      .cls-1 {
        fill: #fff;
        stroke: #000;
        stroke-miterlimit: 10;
        stroke-width: .08px;
      }

      .cls-2 {
        fill: #999;
      }
    </style>
  </defs>
  <g id="Layer_1-2" data-name="Layer 1">
    <g id="Road_Signs" data-name="Road Signs">
      <g>
        <ellipse class="cls-1" cx="15.54" cy="11.54" rx="15.5" ry="11.5"/>
        <g>
          <path class="cls-2" d="m7.99,16.5c-.56,0-1.06-.1-1.5-.29s-.79-.46-1.04-.81c-.26-.35-.4-.75-.42-1.2h1.07c.02.28.12.52.29.73s.39.36.67.47.58.17.92.17c.38,0,.71-.07,1-.2s.52-.31.68-.54.25-.5.25-.81-.08-.6-.24-.85-.39-.44-.7-.58c-.31-.14-.68-.21-1.12-.21h-.7v-.94h.7c.35,0,.65-.06.91-.19s.47-.3.62-.53.22-.49.22-.8-.07-.55-.2-.77-.32-.39-.55-.51c-.24-.12-.52-.18-.84-.18-.3,0-.58.05-.85.16s-.48.27-.65.47-.26.45-.27.74h-1.02c.02-.46.15-.86.41-1.2.26-.35.6-.61,1.02-.81.42-.19.88-.29,1.38-.29.54,0,1,.11,1.39.33s.68.5.89.86.31.74.31,1.15c0,.49-.13.91-.39,1.26s-.61.59-1.05.72v.07c.55.09.98.32,1.29.7s.46.84.46,1.4c0,.47-.13.9-.39,1.28s-.61.67-1.05.89-.93.31-1.5.31Z"/>
          <path class="cls-2" d="m15.47,16.5c-.59,0-1.1-.1-1.55-.31s-.8-.5-1.05-.86c-.25-.37-.37-.79-.37-1.26,0-.37.07-.71.22-1.02.15-.31.35-.58.61-.79.26-.21.54-.35.86-.4v-.05c-.42-.11-.75-.34-1-.71-.25-.36-.37-.78-.37-1.24s.11-.84.34-1.19c.23-.35.54-.62.94-.83s.85-.3,1.37-.3.96.1,1.35.3c.4.2.71.48.94.83.23.35.34.75.35,1.19,0,.46-.13.88-.38,1.24s-.58.6-.99.71v.05c.32.06.6.19.85.4s.46.47.61.79c.15.31.23.66.23,1.02,0,.47-.13.89-.38,1.26s-.6.66-1.04.86c-.44.21-.96.31-1.54.31Zm0-.93c.39,0,.74-.06,1.02-.19s.51-.31.67-.54.24-.51.24-.82c0-.33-.09-.62-.26-.87s-.4-.45-.68-.6c-.29-.14-.62-.22-.99-.22s-.7.07-1,.22c-.29.15-.52.34-.69.6s-.25.54-.25.87c0,.31.07.58.23.82.15.23.38.41.67.54.3.12.64.19,1.04.19Zm0-4.15c.31,0,.59-.06.83-.19.24-.12.43-.3.57-.52s.21-.49.21-.79-.07-.55-.21-.77-.33-.39-.57-.51-.52-.18-.84-.18-.61.06-.86.18-.43.29-.57.51c-.13.22-.2.48-.2.77s.07.56.2.79.33.4.57.52c.27.13.55.19.87.19Z"/>
          <path class="cls-2" d="m20.35,16.38l3.9-7.72v-.07h-4.5v-.94h5.59v.99l-3.89,7.74h-1.1Z"/>
        </g>
      </g>
    </g>
  </g>
</svg>