<?xml version="1.0" encoding="UTF-8"?>
<svg id="Layer_2" data-name="Layer 2" xmlns="http://www.w3.org/2000/svg" viewBox="0 0 28.09 28.09">
  <defs>
    <style>
      .cls-1 {
        fill: #fff;
        stroke: #000;
        stroke-miterlimit: 10;
        stroke-width: .08px;
      }

      .cls-2 {
        fill: #999;
      }
    </style>
  </defs>
  <g id="Layer_1-2" data-name="Layer 1">
    <g id="Road_Signs" data-name="Road Signs">
      <g>
        <g>
          <g id="g1606">
            <path id="path1608" class="cls-1" d="m.04,10.69c0-1.58.2-3.1.59-4.56h26.82c.38,1.45.59,2.98.59,4.56,0,8.53-6,15.65-14,17.36C6.04,26.35.04,19.23.04,10.69Z"/>
          </g>
          <g id="g1610">
            <path id="path1612" class="cls-1" d="m.77,5.53C1.37,3.57,2.3,1.74,3.49.13c1.63.46,3.36.7,5.13.7,1.88,0,3.7-.28,5.42-.78,1.72.51,3.53.78,5.42.78,1.78,0,3.5-.25,5.13-.7,1.18,1.61,2.12,3.43,2.72,5.4H.77Z"/>
          </g>
        </g>
        <g>
          <path class="cls-2" d="m11.85,10.32v8.73h-1.06v-7.62h-.05l-2.13,1.42v-1.07l2.18-1.45h1.06Z"/>
          <path class="cls-2" d="m17.2,19.16c-.64,0-1.19-.17-1.64-.53-.45-.35-.8-.86-1.04-1.53s-.36-1.48-.36-2.43.12-1.75.36-2.42.59-1.18,1.04-1.53c.45-.35,1-.53,1.63-.53s1.18.18,1.63.53.8.87,1.04,1.53.36,1.48.36,2.42-.12,1.76-.36,2.43c-.24.67-.58,1.18-1.04,1.53-.43.36-.98.53-1.62.53Zm0-.93c.64,0,1.13-.31,1.48-.92.35-.61.53-1.49.53-2.62,0-.76-.08-1.4-.24-1.93s-.39-.94-.69-1.21-.66-.42-1.08-.42c-.63,0-1.12.31-1.48.93s-.53,1.5-.53,2.63c0,.76.08,1.4.24,1.93s.39.93.69,1.21.65.4,1.08.4Z"/>
        </g>
      </g>
    </g>
  </g>
</svg>