<?xml version="1.0" encoding="UTF-8"?>
<svg id="Layer_2" data-name="Layer 2" xmlns="http://www.w3.org/2000/svg" viewBox="0 0 31.08 23.08">
  <defs>
    <style>
      .cls-1 {
        fill: #fff;
        stroke: #000;
        stroke-miterlimit: 10;
        stroke-width: .08px;
      }

      .cls-2 {
        fill: #999;
      }
    </style>
  </defs>
  <g id="Layer_1-2" data-name="Layer 1">
    <g id="Road_Signs" data-name="Road Signs">
      <g>
        <ellipse class="cls-1" cx="15.54" cy="11.54" rx="15.5" ry="11.5"/>
        <g>
          <path class="cls-2" d="m11.84,16.5c-.59,0-1.1-.1-1.55-.31-.45-.21-.8-.5-1.05-.86-.25-.37-.37-.79-.37-1.26,0-.37.07-.71.22-1.02s.35-.58.61-.79c.26-.21.54-.35.86-.4v-.05c-.42-.11-.75-.34-1-.71-.25-.36-.37-.78-.37-1.24s.11-.84.34-1.19.54-.62.94-.83.85-.3,1.37-.3.96.1,1.35.3c.4.2.71.48.94.83.23.35.34.75.35,1.19,0,.46-.13.88-.38,1.24s-.58.6-.99.71v.05c.32.06.6.19.85.4s.46.47.61.79c.15.31.23.66.23,1.02,0,.47-.13.89-.38,1.26s-.6.66-1.04.86c-.45.21-.96.31-1.54.31Zm0-.93c.39,0,.74-.06,1.02-.19s.51-.31.67-.54.24-.51.24-.82c0-.33-.09-.62-.26-.87s-.4-.45-.68-.6c-.29-.14-.62-.22-.99-.22s-.7.07-1,.22c-.29.15-.52.34-.69.6s-.25.54-.25.87c0,.31.07.58.23.82.15.23.38.41.67.54.29.12.64.19,1.04.19Zm0-4.15c.31,0,.59-.06.83-.19.24-.12.43-.3.57-.52s.21-.49.21-.79-.07-.55-.21-.77c-.14-.22-.33-.39-.57-.51-.24-.12-.52-.18-.84-.18s-.61.06-.86.18-.43.29-.57.51c-.13.22-.2.48-.2.77s.07.56.2.79.33.4.57.52c.27.13.55.19.87.19Z"/>
          <path class="cls-2" d="m16.23,14.59v-.87l3.83-6.07h.63v1.35h-.43l-2.9,4.58v.07h5.17v.94h-6.3Zm4.11,1.79V7.65h1.01v8.73h-1.01Z"/>
        </g>
      </g>
    </g>
  </g>
</svg>