<?xml version="1.0" encoding="UTF-8"?>
<svg id="Layer_2" data-name="Layer 2" xmlns="http://www.w3.org/2000/svg" viewBox="0 0 28.09 28.09">
  <defs>
    <style>
      .cls-1 {
        fill: #fff;
        stroke: #000;
        stroke-miterlimit: 10;
        stroke-width: .08px;
      }

      .cls-2 {
        fill: #999;
      }
    </style>
  </defs>
  <g id="Layer_1-2" data-name="Layer 1">
    <g id="Road_Signs" data-name="Road Signs">
      <g>
        <g>
          <g id="g1606">
            <path id="path1608" class="cls-1" d="m.04,10.69c0-1.58.2-3.1.59-4.56h26.82c.38,1.45.59,2.98.59,4.56,0,8.53-6,15.65-14,17.36C6.04,26.34.04,19.22.04,10.69Z"/>
          </g>
          <g id="g1610">
            <path id="path1612" class="cls-1" d="m.76,5.53C1.37,3.57,2.29,1.74,3.49.13c1.63.46,3.36.7,5.13.7,1.88,0,3.7-.28,5.42-.78,1.72.51,3.53.78,5.42.78,1.78,0,3.5-.25,5.13-.7,1.18,1.61,2.12,3.43,2.72,5.4H.76Z"/>
          </g>
        </g>
        <path class="cls-2" d="m13.57,19.16c-.59,0-1.1-.1-1.55-.31-.45-.21-.8-.5-1.05-.86-.25-.37-.37-.79-.37-1.26,0-.37.07-.71.22-1.02s.35-.58.61-.79c.26-.21.54-.35.86-.4v-.05c-.42-.11-.75-.34-1-.71-.25-.36-.37-.78-.37-1.24s.11-.84.34-1.19.54-.62.94-.83.85-.3,1.37-.3.96.1,1.35.3c.4.2.71.48.94.83.23.35.34.75.35,1.19,0,.46-.13.88-.38,1.24s-.58.6-.99.71v.05c.32.06.6.19.85.4s.46.47.61.79c.15.31.23.66.23,1.02,0,.47-.13.89-.38,1.26s-.6.66-1.04.86-.95.31-1.54.31Zm0-.94c.39,0,.74-.06,1.02-.19s.51-.31.67-.54.24-.51.24-.82c0-.33-.09-.62-.26-.87s-.4-.45-.68-.6c-.29-.14-.62-.22-.99-.22s-.7.07-1,.22c-.29.15-.52.34-.69.6s-.25.54-.25.87c0,.31.07.58.23.82.15.23.38.41.67.54.3.13.65.19,1.04.19Zm0-4.14c.31,0,.59-.06.83-.19.24-.12.43-.3.57-.52s.21-.49.21-.79-.07-.55-.21-.77c-.14-.22-.33-.39-.57-.51-.24-.12-.52-.18-.84-.18s-.61.06-.86.18-.43.29-.57.51c-.13.22-.2.48-.2.77s.07.56.2.79.33.4.57.52c.28.12.56.19.87.19Z"/>
      </g>
    </g>
  </g>
</svg>