<svg xmlns="http://www.w3.org/2000/svg" width="157.98" height="95.23" viewBox="0 0 157.98 95.23"><title>Asset 4</title><g style="isolation:isolate"><polygon points="0 38.51 67.18 77.29 133.87 38.79 66.69 0 0 38.51" style="fill:#00cbc6"/><path d="M66.58,91.07l2.65-1.53a12.87,12.87,0,0,1,2-1,8.93,8.93,0,0,1,2.13-.51,7.61,7.61,0,0,1,2.13,0,6.18,6.18,0,0,1,2,.76A2.67,2.67,0,0,1,78.69,90a1.67,1.67,0,0,1,.11,1.22A3,3,0,0,1,78,92.44a6.59,6.59,0,0,1-1.48,1.12l-2.89,1.67ZM74,93.37l.91-.54a5.79,5.79,0,0,0,1-.72,1.81,1.81,0,0,0,.55-.74.9.9,0,0,0-.07-.75,2,2,0,0,0-.79-.72,3.25,3.25,0,0,0-1.13-.4,4.23,4.23,0,0,0-1.23,0,5.71,5.71,0,0,0-1.26.28,7.46,7.46,0,0,0-1.18.54l-1,.61Z" style="fill:#00cbc6"/><path d="M78,84.44l1.47-.85,10.58,2.15-2,1.15-2.2-.48-3.11,1.8.83,1.27-2,1.13Zm2.75.82L82,87.11,84,86Z" style="fill:#00cbc6"/><path d="M85.92,81.5l-2.29,1.32L82.25,82l6.34-3.67,1.39.81-2.29,1.32,5.71,3.35-1.77,1Z" style="fill:#00cbc6"/><path d="M91.31,76.76l1.47-.84,10.58,2.14-2,1.16-2.2-.49-3.11,1.81.83,1.26-2,1.13Zm2.75.82,1.23,1.86,2-1.13Z" style="fill:#00cbc6"/><path d="M108,69.28a3.86,3.86,0,0,0-1.07.12,4,4,0,0,0-1,.42,2.3,2.3,0,0,0-.75.63,1.28,1.28,0,0,0-.27.71,1.21,1.21,0,0,0,.24.7,2.26,2.26,0,0,0,.74.64,4.15,4.15,0,0,0,1.09.44,5.48,5.48,0,0,0,1.21.14,5.29,5.29,0,0,0,1.19-.13,4.19,4.19,0,0,0,1.06-.42,2.09,2.09,0,0,0,.77-.67,1,1,0,0,0,.12-.73l2.45-.28a1.6,1.6,0,0,1-.36,1.29,4.4,4.4,0,0,1-1.31,1.11,9.47,9.47,0,0,1-2,.85,9.12,9.12,0,0,1-2.12.35,8,8,0,0,1-2.08-.17,5.9,5.9,0,0,1-1.86-.72,3.43,3.43,0,0,1-1.23-1.09,1.78,1.78,0,0,1-.27-1.21,2.48,2.48,0,0,1,.62-1.23,6,6,0,0,1,1.48-1.16,6.75,6.75,0,0,1,.76-.37,6,6,0,0,1,.9-.32,7.5,7.5,0,0,1,1-.21,5.51,5.51,0,0,1,1.08,0Z" style="fill:#00cbc6"/><path d="M108.84,66.63l1.77-1,7.1,4.16-1.77,1Z" style="fill:#00cbc6"/><path d="M115.38,64.45l-2.29,1.33L111.71,65l6.35-3.67,1.38.81-2.29,1.32,5.71,3.35-1.76,1Z" style="fill:#00cbc6"/><path d="M119.16,60.66l1.76-1L128,63.8l-1.77,1Z" style="fill:#00cbc6"/><path d="M128,62.14l-.2-4.86-3.92,2.27-1.38-.82,6.06-3.5,1.38.81.28,4.81,4.13-2.39,1.44.85L129.44,63Z" style="fill:#00cbc6"/><path d="M130.19,54.28l5.46-3.16,1.44.85L133.4,54.1l1.33.78,3.48-2,1.44.84-3.48,2,1.44.85,3.89-2.25,1.44.85-5.65,3.27Z" style="fill:#00cbc6"/><path d="M137.49,50.06l2.4-1.39,8.35.92,0,0-4.93-2.89,1.77-1,7.09,4.16-2.31,1.34-8.55-.94h0l5.06,3-1.77,1Z" style="fill:#00cbc6"/><path d="M152.65,43.31a2.88,2.88,0,0,0-.94.13,3.41,3.41,0,0,0-.81.33,3.12,3.12,0,0,0-.35.25,1.39,1.39,0,0,0-.26.3.38.38,0,0,0-.07.3.43.43,0,0,0,.22.27,1.22,1.22,0,0,0,.77.13,5.17,5.17,0,0,0,1-.23c.36-.11.74-.23,1.13-.37a7.38,7.38,0,0,1,1.23-.31,4.58,4.58,0,0,1,1.28,0,3.12,3.12,0,0,1,1.27.42,1.88,1.88,0,0,1,.78.75,1.11,1.11,0,0,1,.06.82,2,2,0,0,1-.56.82,5.51,5.51,0,0,1-1,.77,7.83,7.83,0,0,1-1.66.71,8.18,8.18,0,0,1-1.93.33l0-1.45a4.25,4.25,0,0,0,1.18-.1,4.1,4.1,0,0,0,1-.4,2.14,2.14,0,0,0,.39-.28,1.39,1.39,0,0,0,.26-.3.48.48,0,0,0,.05-.3.45.45,0,0,0-.22-.26,1.34,1.34,0,0,0-.79-.14,6.64,6.64,0,0,0-1,.22L152.5,46a7.91,7.91,0,0,1-1.25.32,5,5,0,0,1-1.28.07,2.92,2.92,0,0,1-1.23-.4,1.77,1.77,0,0,1-.75-.74,1.08,1.08,0,0,1,0-.81,2.11,2.11,0,0,1,.54-.83,5.33,5.33,0,0,1,1-.75,8.4,8.4,0,0,1,1.49-.66,7.29,7.29,0,0,1,1.71-.32Z" style="fill:#00cbc6"/><ellipse cx="45.12" cy="49.82" rx="10.98" ry="8.23" transform="translate(-12.75 15.63) rotate(-17.25)" style="fill:#009f9f;stroke:#009f9f;stroke-miterlimit:10;stroke-width:2.0208px"/><ellipse cx="90.72" cy="49.2" rx="10.98" ry="8.23" transform="translate(-10.51 29.12) rotate(-17.25)" style="fill:#009f9f;stroke:#009f9f;stroke-miterlimit:10;stroke-width:2.0208px"/><ellipse cx="66.04" cy="37.5" rx="10.98" ry="8.23" transform="translate(-8.15 21.28) rotate(-17.25)" style="fill:#009f9f;stroke:#009f9f;stroke-miterlimit:10;stroke-width:2.0208px"/><ellipse cx="85.88" cy="25.38" rx="10.98" ry="8.23" transform="matrix(0.95, -0.3, 0.3, 0.95, -3.66, 26.62)" style="fill:#009f9f;stroke:#009f9f;stroke-miterlimit:10;stroke-width:2.0208px"/><ellipse cx="46.35" cy="23.85" rx="10.98" ry="8.23" transform="matrix(0.95, -0.3, 0.3, 0.95, -4.99, 14.82)" style="fill:#009f9f;stroke:#009f9f;stroke-miterlimit:10;stroke-width:2.0208px"/><line x1="53.13" y1="53.13" x2="81.91" y2="53.13" style="fill:none;stroke:#009f9f;stroke-miterlimit:10;stroke-width:1.01041662693024px"/><line x1="45.37" y1="49.19" x2="83.85" y2="25.47" style="fill:none;stroke:#009f9f;stroke-miterlimit:10;stroke-width:1.01041662693024px"/><line x1="53.6" y1="28.38" x2="90.72" y2="49.2" style="fill:none;stroke:#009f9f;stroke-miterlimit:10;stroke-width:1.01041662693024px"/><line x1="54.22" y1="21.3" x2="81.91" y2="21.3" style="fill:none;stroke:#009f9f;stroke-miterlimit:10;stroke-width:1.01041662693024px"/><line x1="39.51" y1="24.38" x2="39.51" y2="52.08" style="fill:none;stroke:#009f9f;stroke-miterlimit:10;stroke-width:1.01041662693024px"/><line x1="87.49" y1="24.38" x2="87.49" y2="52.08" style="fill:#94cece;stroke:#94cece;stroke-miterlimit:10;stroke-width:0.843731739291454px"/><path d="M71,23.88A2.37,2.37,0,0,1,73.06,26c.18,1,.6,6.81.65,9.08,0,1.12.23,2.23.17,2.56-.09.6-2.31,1.54-2.75.13a20.47,20.47,0,0,1-1.08-8.51c0-1.48-.18-3.3-.19-4S69.69,24,71,23.88Z" style="fill:#e8eef7"/><path d="M65.79,41.6A9.21,9.21,0,0,1,62,40.87s-.59-12.47-.45-12.65a9.13,9.13,0,0,1,3-2.53,25.41,25.41,0,0,1,6.4-1.83c.66.16,1.2,1.51,1.45,2.63A15.39,15.39,0,0,0,73,29.26c.65,1.72,1.1,3.2.42,4.19a5.44,5.44,0,0,0-.68,1.88,6.09,6.09,0,0,0-.18,3.18C72.75,40.39,67.24,41.61,65.79,41.6Z" style="fill:#f7f9fb"/><path d="M65.72,36.79a4.48,4.48,0,0,0-2.61,4.38s-2.18-.6-2.18-.66c-.24-4.17,0-11,0-11.07a1.82,1.82,0,0,1,.63-1.25c.89-.53,2.1.82,2.12,2.33,0,2.4-.35,2.51-.16,4C63.73,36.67,66.24,36.61,65.72,36.79Z" style="fill:#c5d1dd;mix-blend-mode:multiply"/><path d="M70.25,15.58c.64.89,1.53,2.16.81,3.35-1.16,1.9-.35,4.18-.57,3.82-1.53-2.62-.2-5.06-1.14-5.37-.57-.18-3,5.75-3.53,5.32A8.09,8.09,0,0,1,64.44,21c-2.21-2.91-2.3-5.86,0-6.84A4.82,4.82,0,0,1,70.25,15.58Z" style="fill:#e6ac7a"/><path d="M60.92,14.91s-1.49-.16-2,2.39.44,2.78,0,5.12a2,2,0,0,1-1.4,1.49c-.89.26,1.55,1.29,2.7.8.88-.37,1.52-.91,1.69-3.32C62.09,19.19,62.55,15.38,60.92,14.91Z" style="fill:#b3855f"/><path d="M64.54,25.71a.43.43,0,0,0,.11.28c.51.54,2.69,2.67,4.32,1.92.78-.36-.42-2.57-.42-2.57l-.38-1.68-4.46-2.51s.73,2.29.82,2.89A11.63,11.63,0,0,1,64.54,25.71Z" style="fill:#cecece"/><path d="M70.65,16a7.1,7.1,0,0,1,.29,2.46c0,.16-.23.47-.26.78s.12.64.12,1.07c0,2.26-1.51,4.25-2,4.33a4.16,4.16,0,0,1-2.25-.14,5.92,5.92,0,0,1-1.58-1c-.53-.39-.44-1.17-.9-1.79-2.21-2.91-1.72-5.85.55-6.83S69.94,14.08,70.65,16Z" style="fill:#eac49b"/><path d="M63.34,15.64a1.43,1.43,0,1,1-1.17-1.77A1.51,1.51,0,0,1,63.34,15.64Z" style="fill:#c19066"/><path d="M70,14.69c1.09,1,1,2.87,0,3.11-2.53.58-3.29,1.08-3.31,2.63A6.71,6.71,0,0,1,66,23.14c-.18.3,0-2.28-.57-3.58s-1.71,0-1.25,3.26c-.75-.09-1.92-1.54-2.5-2.88a5.16,5.16,0,0,1,.4-5.09C64.46,11.66,68.37,13.18,70,14.69Z" style="fill:#cba270"/><path d="M62.8,28.63a3.37,3.37,0,0,1,.49,2.3c-.08,1.54-.25,8.53-.18,10.24,0,.78-3.3.9-3.37-1.26a48.91,48.91,0,0,1,0-6.52c.17-1.52.2-2.15.35-3.13a2.5,2.5,0,0,1,1.76-2.19A1.15,1.15,0,0,1,62.8,28.63Z" style="fill:#e8eef7"/><path d="M90,14.49a2.15,2.15,0,0,1,1.86,2c.17.87.55,6.17.6,8.23,0,1,0,1.68,0,2,0,.92-2,1.73-2.36.46a18.58,18.58,0,0,1-1-7.72c0-1.33-.16-3-.17-3.61S88.81,14.62,90,14.49Z" style="fill:#0099ea"/><path d="M84.5,30.64a10,10,0,0,1-3.8-.56S80.06,19,80.19,18.85a14.78,14.78,0,0,1,3.55-3.08,18,18,0,0,1,5.92-1.22c.59.14,1.09,1.29,1.32,2.3a35.2,35.2,0,0,1,.44,3.81c.18,3.31.35,5.95.07,7C91,29.27,85.81,30.65,84.5,30.64Z" style="fill:#a5e0fb"/><path d="M83.5,16.1a.8.8,0,0,0,.27.51,3.06,3.06,0,0,0,2.62.47,1,1,0,0,0,.82-.73l0-1.19-4-3.45s.28,3.13.28,3.65C83.5,15.65,83.51,15.87,83.5,16.1Z" style="fill:#eec7ae"/><path d="M89.54,8.15a3.43,3.43,0,0,1,.2,1.85c0,.14.09,1.7,0,2.05-.28,1.89-1,3.09-1.4,3.24a2.34,2.34,0,0,1-1.9,0,17,17,0,0,1-2-1.16c-.28-.2-.52-1.3-.62-1.62s-.1.23-.37.23a.36.36,0,0,1-.32-.18c-1.82-2.56-1.65-6.1.32-6.88S88.73,6.59,89.54,8.15Z" style="fill:#fbd9c5"/><path d="M88.92,6.76c.31.28.5.61,1,.13.14-.15.58,1.13-.54,1.39a5.89,5.89,0,0,1-1.79.31c-.15,0-1.55-.09-1.9-.14a.33.33,0,0,0-.2,0,.4.4,0,0,0-.13.13,2.48,2.48,0,0,0-.15.82c-.2.31-.65.36-.65.78,0,.07.07,1.3-1,1.12a.64.64,0,0,0,.16-.84c-.15-.33-.33-.57-.58-.61-.48-.08-.52.68-.33,1.4s.52,1.38.34,1.33c-.85-.24-1.48-1-1-1,.64-.1-1.14-2.34-.12-4.66C83.21,4.11,87.05,5.06,88.92,6.76Z" style="fill:#383838"/><path d="M81.39,19.19a3,3,0,0,1,.44,2.09c-.07,1.39.17,7.63.14,9.19,0,.48-3.3.57-3.35-1.56a42.48,42.48,0,0,1,0-5.41c.16-1.37.19-1.95.32-2.83a2.29,2.29,0,0,1,1.59-2A1,1,0,0,1,81.39,19.19Z" style="fill:#009aed"/><path d="M50.16,10.53a2.35,2.35,0,0,1,2,2.14c.18.95.6,6.77.66,9,0,1.11.22,2.22.17,2.54-.1.6-2.3,1.53-2.74.13a20.35,20.35,0,0,1-1.07-8.46c0-1.46-.18-3.27-.19-4S48.86,10.67,50.16,10.53Z" style="fill:#d8265a"/><path d="M45,28.14a9.1,9.1,0,0,1-3.73-.73S40.68,15,40.81,14.84a9.16,9.16,0,0,1,2.94-2.51,25.2,25.2,0,0,1,6.36-1.82c.65.17,1.18,1.5,1.44,2.61a14.19,14.19,0,0,0,.57,2.75c.64,1.72,1.09,3.18.41,4.17a5.51,5.51,0,0,0-.67,1.87,6,6,0,0,0-.18,3.15C51.9,26.94,46.42,28.15,45,28.14Z" style="fill:#fb4277"/><path d="M44.92,23.36a4.44,4.44,0,0,0-2.59,4.35s-2.17-.59-2.17-.66c-.24-4.14,0-10.92,0-11a1.81,1.81,0,0,1,.62-1.24c.89-.53,2.09.8,2.11,2.31,0,2.38-.34,2.49-.16,4C42.94,23.24,45.43,23.18,44.92,23.36Z" style="fill:#c5d1dd;mix-blend-mode:multiply"/><path d="M49.47,2.25A5.3,5.3,0,0,1,50.57,5c-.44,1.42,1.24,3.08-.31,6.21-.8,1.63-4,.05-4.89-.14-.54-.11.47-1.49-.1-1.83a7.57,7.57,0,0,1-1.43-1.45c-2.3-2.44-2.45-6.12-.48-7.23S48.23.86,49.47,2.25Z" style="fill:#313131"/><path d="M43.75,12.35a.37.37,0,0,0,.1.28c.51.53,2.68,2.65,4.29,1.91.78-.36-.42-2.56-.42-2.56l-.37-1.67L43,8.36a24.11,24.11,0,0,1,.71,2.33A15.32,15.32,0,0,1,43.75,12.35Z" style="fill:#a18a74"/><path d="M49.21,2.5a6.9,6.9,0,0,1,.37,2.24c0,.16-.19.45-.21.74s.14.58.16,1c.09,2.07-1.19,4-1.59,4.06a3.89,3.89,0,0,1-2.06,0,7.68,7.68,0,0,1-1.78-1A7.53,7.53,0,0,1,42.76,7.9c-2.15-2.57-1.11-5.15.92-6.15S48.47.8,49.21,2.5Z" style="fill:#b49579"/><path d="M48.33,1.23c1.1.79,1.28,2.74.31,2.83-3.47.33-2.77,1.48-2.75,2.72a23.2,23.2,0,0,0-.22,2.43c.11.89-1.57,1.35-1.14,2.28,2.08,4.52-1.75,3-2.87,2.78-1.52-.29-1.24,5.41-2.19,3-1.24-3.19,1.6-3,.16-5.61-1-1.74,1.14-2.38.2-5.17-.73-2.17.52-3.55,1-4.42C42.66-1.1,46.67,0,48.33,1.23Z" style="fill:#464646"/><path d="M42,15.25a3.33,3.33,0,0,1,.48,2.29c-.08,1.53-.25,8.47-.17,10.17,0,.77-3.29.9-3.36-1.25A50,50,0,0,1,39,20c.18-1.51.21-2.14.35-3.11a2.51,2.51,0,0,1,1.75-2.18A1.16,1.16,0,0,1,42,15.25Z" style="fill:#d8265a"/><path d="M95.7,33.45a2.75,2.75,0,0,1,2.39,2.49c.21,1.11.7,7.89.76,10.52,0,1.29.26,2.58.2,3-.11.69-2.68,1.78-3.19.15a23.73,23.73,0,0,1-1.25-9.86c0-1.7-.2-3.81-.22-4.61S94.19,33.61,95.7,33.45Z" style="fill:#fbd025"/><path d="M89.68,54a10.79,10.79,0,0,1-4.34-.85s-.68-14.45-.52-14.65a10.72,10.72,0,0,1,3.41-2.93,29,29,0,0,1,7.42-2.12c.75.19,1.38,1.75,1.67,3A17.68,17.68,0,0,0,98,39.68c.75,2,1.28,3.7.48,4.85a6.39,6.39,0,0,0-.78,2.18,7.07,7.07,0,0,0-.21,3.68C97.74,52.58,91.36,54,89.68,54Z" style="fill:#fbe125"/><path d="M89.6,48.41a5.17,5.17,0,0,0-3,5.07s-2.53-.7-2.53-.77C83.77,47.88,84,40,84,39.89a2.13,2.13,0,0,1,.73-1.44c1-.62,2.43.94,2.46,2.69,0,2.77-.4,2.91-.19,4.66C87.29,48.27,90.2,48.2,89.6,48.41Z" style="fill:#fbdf8a;mix-blend-mode:multiply"/><path d="M94.91,23.79A6.27,6.27,0,0,1,96.19,27c-.52,1.65,1.62,2.45-.18,6.11-.93,1.9-4.85,1.19-5.88,1-.63-.14.54-1.75-.12-2.14a8.71,8.71,0,0,1-1.67-1.7c-2.68-2.84-2.85-7.12-.55-8.42S93.46,22.18,94.91,23.79Z" style="fill:#282828"/><path d="M88.23,35.57a.42.42,0,0,0,.13.32,4.33,4.33,0,0,0,3.86.52,1,1,0,0,0,.65-1.27l-.44-1.94-5-2.28a27.33,27.33,0,0,1,.82,2.71A14,14,0,0,1,88.23,35.57Z" style="fill:#99755f"/><path d="M94.6,24.09A7.82,7.82,0,0,1,95,26.7c0,.18-.21.53-.24.86s.17.67.19,1.13c.11,2.41-1.39,4.61-1.85,4.72a4.48,4.48,0,0,1-2.41,0,9,9,0,0,1-2.08-1.21,9.28,9.28,0,0,1-1.56-1.79c-2.5-3-1.29-6,1.08-7.17S93.74,22.11,94.6,24.09Z" style="fill:#a7836d"/><path d="M93.58,22.61c1.28.92,1.49,3.19.36,3.3-4,.38-3.24,1.72-3.21,3.17a27.06,27.06,0,0,0-.25,2.83c.13,1,.84.59.72,1.78-.24,2.31-6.1,2.74-7.78-.27-1.13-2,1.34-1.47.25-4.72-.85-2.53.6-4.13,1.19-5.15C87,19.89,91.64,21.2,93.58,22.61Z" style="fill:#2e2e2e"/><path d="M86.22,39a3.84,3.84,0,0,1,.56,2.67c-.09,1.78-.29,9.88-.2,11.86,0,.89-3.83,1-3.91-1.46a55.94,55.94,0,0,1,0-7.55c.2-1.77.24-2.5.41-3.63a2.9,2.9,0,0,1,2-2.54A1.36,1.36,0,0,1,86.22,39Z" style="fill:#fbd025"/><path d="M50.74,35.44A2.5,2.5,0,0,1,52.9,37.7c.18,1,.63,7.13.69,9.5,0,1.17,0,1.94,0,2.29,0,1.07-2.27,2-2.73.53a21.42,21.42,0,0,1-1.13-8.91c0-1.54-.18-3.45-.2-4.17S49.37,35.59,50.74,35.44Z" style="fill:#d8265a"/><path d="M44.39,54.1A11.49,11.49,0,0,1,40,53.45s-.73-12.78-.59-13a17,17,0,0,1,4.1-3.55,21,21,0,0,1,6.84-1.42c.68.17,1.26,1.49,1.53,2.66a38,38,0,0,1,.5,4.4c.21,3.82.41,6.87.09,8C51.94,52.52,45.9,54.11,44.39,54.1Z" style="fill:#f7f9fb"/><path d="M43.4,37.29a.94.94,0,0,0,.3.59,3.54,3.54,0,0,0,3,.62,1.21,1.21,0,0,0,1-.82l.07-1.39-4.58-4.12s.24,3.65.22,4.25C43.42,36.76,43.42,37,43.4,37.29Z" style="fill:#887b70"/><path d="M50.1,27.88A4.08,4.08,0,0,1,50.46,30c0,.17.22,2,.19,2.38-.19,2.21-.95,3.66-1.4,3.86a2.73,2.73,0,0,1-2.21.14,20.27,20.27,0,0,1-2.36-1.2c-.35-.21-.7-1.48-.84-1.84s-.09.27-.41.29a.43.43,0,0,1-.39-.19c-2.29-2.83-2.34-7-.11-8S49.05,26.12,50.1,27.88Z" style="fill:#7f706d"/><path d="M43.58,31.1a1.1,1.1,0,0,1-.07,1.23c.18.19.5,2.69.91,3.32s4.26,1.27,5,1.05c.49-.14,1-2.24.94-2.62,0,0-.36-.34-1.19-.13s-1.88,1.27-2,1.2a21,21,0,0,1-2.6-1.6c-.24-.86-.07-1,0-1.09.3-.39,0-1.7,0-1.75C44.48,30.22,43.38,30.72,43.58,31.1Zm4.86,4.06,1.36-.42a2.37,2.37,0,0,1-.23.44,1,1,0,0,1-.73.18A2.92,2.92,0,0,1,48.44,35.16Z" style="fill:#383838"/><path d="M50.05,26.37c.54.05,1,.63-.3,1.13-.22.09-.1.61-.57.84s-1,0-1.43.17-.17.43-.89.47a7.14,7.14,0,0,1-1.34-.32.42.42,0,0,0-.23.07.43.43,0,0,0-.12.17,2.91,2.91,0,0,0-.05,1c-.18.39-.7.53-.62,1,0,.08.74,2.53-1,1.47-.24-.16.34-.53.05-1s-.47-.61-.78-.62c-.57,0-.48.88-.14,1.69s.72,1.07.63,1.27c-.36.81-1.77.25-1.36-.54.09-.16-.18-.14-.24-.65,0-.32.08-.46,0-.66s-.32-.26-.39-.55,0-.49-.06-.68-.36-.36-.44-.71.07-.56,0-.81-.21-.43-.16-.85.21-.48.3-.77-.05-.53.07-.84.43-.46.63-.66,0-.4.36-.62.61-.12.8-.2.18-.26.54-.35a3.18,3.18,0,0,1,.86,0c.22,0,.41-.21.77-.2s.49.19.78.23.58-.15,1,0,.56.44.86.53.66.05,1,.13C49.43,25.63,48.82,26.25,50.05,26.37Z" style="fill:#383838"/><path d="M51.54,30s-1-.13-1.08-.12V30a2.76,2.76,0,0,0-1.31.51,1.36,1.36,0,0,1-.75.22,3.38,3.38,0,0,0-1.93.67l-.29.15a.45.45,0,0,1-.34,0c-.66-.28-1.09-.43-2-.79a4.64,4.64,0,0,0-.85-.3,1.11,1.11,0,0,1,.45.46s2.65,1.25,2.66,1.25,0,0,0,0a1.36,1.36,0,0,0,.24.82h0l.19.17a1.31,1.31,0,0,0,.94-.06,1.56,1.56,0,0,0,.87-.89c0-.13.06-.46.11-.76v-.13a.36.36,0,0,1,.5-.13,3.38,3.38,0,0,0,.12.69.71.71,0,0,0,.13.22,1.65,1.65,0,0,0,.2.19,1.36,1.36,0,0,0,.56,0,1.65,1.65,0,0,0,1.08-.61,3,3,0,0,0,.31-1.18.41.41,0,0,1,.09-.2.21.21,0,0,0,.18-.25A1.07,1.07,0,0,0,51.54,30Zm-3.26,1.58c0,.29-.08.6-.11.71a1.11,1.11,0,0,1-.66.68l-.2.08a.78.78,0,0,1-.75-.11,1.35,1.35,0,0,1-.21-.79.73.73,0,0,1,.16-.44l0,0a4.41,4.41,0,0,1,1.08-.54A1.88,1.88,0,0,1,48.3,31,1.23,1.23,0,0,1,48.28,31.55Zm2.64.09a1.43,1.43,0,0,1-.73.5l-.21,0a.52.52,0,0,1-.65-.34,3.1,3.1,0,0,1-.11-.58,1.27,1.27,0,0,1,0-.51,2.1,2.1,0,0,1,.69-.33A2.89,2.89,0,0,1,51,30.31h0c.08,0,.14.22.14.36A2.51,2.51,0,0,1,50.92,31.64Z" style="fill:#6c6c6c"/><path d="M51.7,30.12a3.54,3.54,0,0,1-.46,0,3,3,0,0,0-1.92.5,1.9,1.9,0,0,1-.75.23,3.32,3.32,0,0,0-1.93.67c-.12.07-.47.23-.47.23s0,0,0,.21,0,.19,0,.19.19,0,.18.06a1.58,1.58,0,0,0,.27.92,1,1,0,0,0,1.06,0,1.37,1.37,0,0,0,.8-.85,5.45,5.45,0,0,0,.17-.75.48.48,0,0,1,.57-.2,4.27,4.27,0,0,0,.12.69c.08.23.27.45.76.38a1.64,1.64,0,0,0,1.09-.65,2.58,2.58,0,0,0,.33-1.1c0-.09.19-.17.19-.17s0,0,0-.22S51.7,30.12,51.7,30.12ZM48.45,31.7a6.46,6.46,0,0,1-.15.66,1.06,1.06,0,0,1-.66.68.7.7,0,0,1-.2.08.76.76,0,0,1-.72-.06,1.45,1.45,0,0,1-.21-.79.73.73,0,0,1,.17-.45l0,0a5,5,0,0,1,1.07-.53,1.91,1.91,0,0,1,.69-.08A1.86,1.86,0,0,1,48.45,31.7Zm2.6.05a1.43,1.43,0,0,1-.73.5l-.21,0c-.31,0-.52,0-.62-.3a3.3,3.3,0,0,1-.11-.58,1.63,1.63,0,0,1,0-.52,2.74,2.74,0,0,1,.69-.33,3.09,3.09,0,0,1,1.06-.11h0c.08,0,.14.22.14.36A2.31,2.31,0,0,1,51.05,31.75Z" style="fill:#464646"/><path d="M40.8,40.88a3.51,3.51,0,0,1,.51,2.4c-.08,1.61.19,8.82.16,10.62,0,.55-3.81.65-3.86-1.81a46.31,46.31,0,0,1,0-6.23c.18-1.6.22-2.26.37-3.28a2.64,2.64,0,0,1,1.84-2.3A1.22,1.22,0,0,1,40.8,40.88Z" style="fill:#d8265a"/></g></svg>